Literata-M1.ufo
<glyph name="numbersign" format="2">
	<unicode hex="0023"/>
	<advance width="729"/>
	<outline>
		<contour>
			<point x="162" y="0" type="line"/>
			<point x="231" y="0" type="line"/>
			<point x="254" y="136" type="line"/>
			<point x="428" y="136" type="line"/>
			<point x="405" y="0" type="line"/>
			<point x="474" y="0" type="line"/>
			<point x="497" y="136" type="line"/>
			<point x="632" y="136" type="line"/>
			<point x="644" y="200" type="line"/>
			<point x="508" y="200" type="line"/>
			<point x="535" y="359" type="line"/>
			<point x="663" y="359" type="line"/>
			<point x="674" y="423" type="line"/>
			<point x="544" y="423" type="line"/>
			<point x="564" y="550" type="line"/>
			<point x="494" y="550" type="line"/>
			<point x="475" y="423" type="line"/>
			<point x="302" y="423" type="line"/>
			<point x="322" y="550" type="line"/>
			<point x="253" y="550" type="line"/>
			<point x="233" y="423" type="line"/>
			<point x="104" y="423" type="line"/>
			<point x="92" y="359" type="line"/>
			<point x="222" y="359" type="line"/>
			<point x="196" y="200" type="line"/>
			<point x="70" y="200" type="line"/>
			<point x="55" y="136" type="line"/>
			<point x="184" y="136" type="line"/>
		</contour>
		<contour>
			<point x="265" y="200" type="line"/>
			<point x="290" y="359" type="line"/>
			<point x="465" y="359" type="line"/>
			<point x="439" y="200" type="line"/>
		</contour>
	</outline>
</glyph>
<glyph name="dollar" format="2">
	<unicode hex="0024"/>
	<advance width="651"/>
	<outline>
		<contour>
			<point x="309" y="-100" type="line"/>
			<point x="366" y="-100" type="line"/>
			<point x="366" y="-13" type="line"/>
			<point x="495" y="-5"/>
			<point x="586" y="81"/>
			<point x="586" y="200" type="curve" smooth="yes"/>
			<point x="586" y="299"/>
			<point x="537" y="353"/>
			<point x="380" y="403" type="curve" smooth="yes"/>
			<point x="376" y="405"/>
			<point x="371" y="406"/>
			<point x="366" y="408" type="curve"/>
			<point x="366" y="647" type="line"/>
			<point x="436" y="636"/>
			<point x="483" y="593"/>
			<point x="511" y="504" type="curve"/>
			<point x="565" y="516" type="line"/>
			<point x="546" y="714" type="line"/>
			<point x="497" y="714" type="line"/>
			<point x="482" y="662" type="line"/>
			<point x="451" y="686"/>
			<point x="409" y="703"/>
			<point x="366" y="710" type="curve"/>
			<point x="366" y="803" type="line"/>
			<point x="309" y="803" type="line"/>
			<point x="309" y="714" type="line"/>
			<point x="182" y="708"/>
			<point x="94" y="632"/>
			<point x="94" y="521" type="curve" smooth="yes"/>
			<point x="94" y="429"/>
			<point x="137" y="374"/>
			<point x="265" y="329" type="curve" smooth="yes"/>
			<point x="278" y="324"/>
			<point x="293" y="320"/>
			<point x="309" y="315" type="curve"/>
			<point x="309" y="60" type="line"/>
			<point x="226" y="69"/>
			<point x="160" y="113"/>
			<point x="120" y="220" type="curve"/>
			<point x="65" y="215" type="line"/>
			<point x="88" y="-6" type="line"/>
			<point x="133" y="-6" type="line"/>
			<point x="151" y="53" type="line"/>
			<point x="189" y="19"/>
			<point x="248" y="-5"/>
			<point x="309" y="-12" type="curve"/>
		</contour>
		<contour>
			<point x="366" y="59" type="curve"/>
			<point x="366" y="297" type="line"/>
			<point x="455" y="264"/>
			<point x="486" y="227"/>
			<point x="486" y="165" type="curve" smooth="yes"/>
			<point x="486" y="98"/>
			<point x="441" y="64"/>
		</contour>
		<contour>
			<point x="309" y="427" type="line"/>
			<point x="223" y="460"/>
			<point x="194" y="493"/>
			<point x="194" y="549" type="curve" smooth="yes"/>
			<point x="194" y="610"/>
			<point x="239" y="645"/>
			<point x="309" y="649" type="curve"/>
		</contour>
	</outline>
	<anchor name="bottom" x="326" y="-30"/>
	<anchor name="top" x="323" y="730"/>
</glyph>
<glyph name="parenright" format="2">
	<unicode hex="0029"/>
	<advance width="371"/>
	<outline>
		<contour>
			<point x="74" y="-204" type="line"/>
			<point x="176" y="-102"/>
			<point x="283" y="86"/>
			<point x="283" y="306" type="curve" smooth="yes"/>
			<point x="283" y="528"/>
			<point x="178" y="721"/>
			<point x="79" y="817" type="curve"/>
			<point x="38" y="794" type="line"/>
			<point x="124" y="662"/>
			<point x="186" y="485"/>
			<point x="186" y="317" type="curve" smooth="yes"/>
			<point x="186" y="132"/>
			<point x="128" y="-24"/>
			<point x="34" y="-182" type="curve"/>
		</contour>
	</outline>
</glyph>
<glyph name="asterisk" format="2">
	<unicode hex="002A"/>
	<advance width="500"/>
	<outline>
		<contour>
			<point x="245" y="405" type="curve" smooth="yes"/>
			<point x="282" y="405"/>
			<point x="291" y="436"/>
			<point x="286" y="465" type="curve" smooth="yes"/>
			<point x="270" y="558" type="line"/>
			<point x="359" y="488" type="line" smooth="yes"/>
			<point x="380" y="472"/>
			<point x="405" y="467"/>
			<point x="422" y="494" type="curve" smooth="yes"/>
			<point x="439" y="522"/>
			<point x="419" y="547"/>
			<point x="388" y="558" type="curve" smooth="yes"/>
			<point x="289" y="594" type="line"/>
			<point x="399" y="631" type="line" smooth="yes"/>
			<point x="429" y="641"/>
			<point x="443" y="656"/>
			<point x="428" y="685" type="curve" smooth="yes"/>
			<point x="411" y="719"/>
			<point x="375" y="709"/>
			<point x="353" y="692" type="curve" smooth="yes"/>
			<point x="270" y="629" type="line"/>
			<point x="291" y="734" type="line" smooth="yes"/>
			<point x="297" y="764"/>
			<point x="284" y="784"/>
			<point x="256" y="784" type="curve" smooth="yes"/>
			<point x="219" y="784"/>
			<point x="205" y="757"/>
			<point x="211" y="724" type="curve" smooth="yes"/>
			<point x="228" y="630" type="line"/>
			<point x="139" y="699" type="line" smooth="yes"/>
			<point x="119" y="714"/>
			<point x="92" y="719"/>
			<point x="75" y="692" type="curve" smooth="yes"/>
			<point x="57" y="664"/>
			<point x="73" y="642"/>
			<point x="110" y="629" type="curve" smooth="yes"/>
			<point x="208" y="595" type="line"/>
			<point x="101" y="558" type="line" smooth="yes"/>
			<point x="76" y="549"/>
			<point x="55" y="532"/>
			<point x="73" y="501" type="curve" smooth="yes"/>
			<point x="90" y="472"/>
			<point x="122" y="479"/>
			<point x="145" y="496" type="curve" smooth="yes"/>
			<point x="227" y="559" type="line"/>
			<point x="207" y="456" type="line" smooth="yes"/>
			<point x="202" y="431"/>
			<point x="212" y="405"/>
		</contour>
	</outline>
</glyph>
<glyph name="hyphen" format="2">
	<unicode hex="002D"/>
	<advance width="375"/>
	<outline>
		<contour>
			<point x="54" y="247" type="line"/>
			<point x="321" y="247" type="line"/>
			<point x="321" y="329" type="line"/>
			<point x="54" y="329" type="line"/>
		</contour>
	</outline>
</glyph>
<glyph name="period" format="2">
	<unicode hex="002E"/>
	<advance width="345"/>
	<outline>
		<contour>
			<point x="172" y="-14" type="curve" smooth="yes"/>
			<point x="217" y="-14"/>
			<point x="249" y="18"/>
			<point x="249" y="62" type="curve" smooth="yes"/>
			<point x="249" y="106"/>
			<point x="217" y="137"/>
			<point x="172" y="137" type="curve" smooth="yes"/>
			<point x="128" y="137"/>
			<point x="96" y="105"/>
			<point x="96" y="61" type="curve" smooth="yes"/>
			<point x="96" y="17"/>
			<point x="128" y="-14"/>
		</contour>
	</outline>
</glyph>
<glyph name="zero" format="2">
	<unicode hex="0030"/>
	<advance width="670"/>
	<outline>
		<contour>
			<point x="335" y="-13" type="curve" smooth="yes"/>
			<point x="487" y="-13"/>
			<point x="610" y="117"/>
			<point x="610" y="363" type="curve" smooth="yes"/>
			<point x="610" y="602"/>
			<point x="483" y="714"/>
			<point x="341" y="714" type="curve" smooth="yes"/>
			<point x="200" y="714"/>
			<point x="60" y="617"/>
			<point x="60" y="339" type="curve" smooth="yes"/>
			<point x="60" y="138"/>
			<point x="159" y="-13"/>
		</contour>
		<contour>
			<point x="343" y="56" type="curve" smooth="yes"/>
			<point x="228" y="56"/>
			<point x="166" y="172"/>
			<point x="166" y="356" type="curve" smooth="yes"/>
			<point x="166" y="570"/>
			<point x="236" y="645"/>
			<point x="332" y="645" type="curve" smooth="yes"/>
			<point x="442" y="645"/>
			<point x="503" y="548"/>
			<point x="503" y="348" type="curve" smooth="yes"/>
			<point x="503" y="145"/>
			<point x="445" y="56"/>
		</contour>
	</outline>
</glyph>
<glyph name="four" format="2">
	<unicode hex="0034"/>
	<advance width="618"/>
	<outline>
		<contour>
			<point x="227" y="0" type="line"/>
			<point x="559" y="0" type="line"/>
			<point x="559" y="53" type="line"/>
			<point x="497" y="60" type="line" smooth="yes"/>
			<point x="461" y="64"/>
			<point x="460" y="82"/>
			<point x="460" y="107" type="curve" smooth="yes"/>
			<point x="460" y="169" type="line"/>
			<point x="578" y="169" type="line"/>
			<point x="578" y="244" type="line"/>
			<point x="460" y="244" type="line"/>
			<point x="460" y="701" type="line"/>
			<point x="449" y="710" type="line"/>
			<point x="359" y="695" type="line"/>
			<point x="25" y="225" type="line"/>
			<point x="35" y="169" type="line"/>
			<point x="361" y="169" type="line"/>
			<point x="361" y="108" type="line" smooth="yes"/>
			<point x="361" y="79"/>
			<point x="355" y="62"/>
			<point x="326" y="59" type="curve" smooth="yes"/>
			<point x="227" y="49" type="line"/>
		</contour>
		<contour>
			<point x="119" y="244" type="line"/>
			<point x="357" y="575" type="line"/>
			<point x="361" y="575" type="line"/>
			<point x="361" y="244" type="line"/>
		</contour>
	</outline>
</glyph>
<glyph name="five" format="2">
	<unicode hex="0035"/>
	<advance width="572"/>
	<outline>
		<contour>
			<point x="271" y="-14" type="curve" smooth="yes"/>
			<point x="423" y="-14"/>
			<point x="517" y="74"/>
			<point x="517" y="238" type="curve" smooth="yes"/>
			<point x="517" y="359"/>
			<point x="434" y="449"/>
			<point x="297" y="449" type="curve" smooth="yes"/>
			<point x="251" y="449"/>
			<point x="201" y="437"/>
			<point x="158" y="413" type="curve"/>
			<point x="183" y="602" type="line"/>
			<point x="470" y="602" type="line"/>
			<point x="494" y="672" type="line"/>
			<point x="495" y="700" type="line"/>
			<point x="122" y="700" type="line"/>
			<point x="84" y="363" type="line"/>
			<point x="119" y="326" type="line"/>
			<point x="161" y="354"/>
			<point x="207" y="368"/>
			<point x="265" y="368" type="curve" smooth="yes"/>
			<point x="361" y="368"/>
			<point x="411" y="308"/>
			<point x="411" y="228" type="curve" smooth="yes"/>
			<point x="411" y="129"/>
			<point x="357" y="69"/>
			<point x="261" y="69" type="curve" smooth="yes"/>
			<point x="192" y="69"/>
			<point x="135" y="92"/>
			<point x="81" y="158" type="curve"/>
			<point x="30" y="119" type="line"/>
			<point x="85" y="24"/>
			<point x="175" y="-14"/>
		</contour>
	</outline>
</glyph>
<glyph name="eight" format="2">
	<unicode hex="0038"/>
	<advance width="616"/>
	<outline>
		<contour>
			<point x="301" y="-13" type="curve" smooth="yes"/>
			<point x="443" y="-13"/>
			<point x="566" y="58"/>
			<point x="566" y="194" type="curve" smooth="yes"/>
			<point x="566" y="273"/>
			<point x="525" y="339"/>
			<point x="410" y="386" type="curve"/>
			<point x="475" y="423"/>
			<point x="532" y="478"/>
			<point x="532" y="563" type="curve" smooth="yes"/>
			<point x="532" y="649"/>
			<point x="462" y="714"/>
			<point x="307" y="714" type="curve" smooth="yes"/>
			<point x="139" y="714"/>
			<point x="76" y="621"/>
			<point x="76" y="539" type="curve" smooth="yes"/>
			<point x="76" y="465"/>
			<point x="107" y="416"/>
			<point x="215" y="368" type="curve"/>
			<point x="80" y="324"/>
			<point x="45" y="242"/>
			<point x="45" y="171" type="curve" smooth="yes"/>
			<point x="45" y="45"/>
			<point x="150" y="-13"/>
		</contour>
		<contour>
			<point x="310" y="51" type="curve" smooth="yes"/>
			<point x="209" y="51"/>
			<point x="146" y="99"/>
			<point x="146" y="180" type="curve" smooth="yes"/>
			<point x="146" y="242"/>
			<point x="182" y="297"/>
			<point x="274" y="340" type="curve"/>
			<point x="395" y="298"/>
			<point x="462" y="259"/>
			<point x="462" y="175" type="curve" smooth="yes"/>
			<point x="462" y="94"/>
			<point x="403" y="51"/>
		</contour>
		<contour>
			<point x="345" y="411" type="curve"/>
			<point x="206" y="462"/>
			<point x="169" y="502"/>
			<point x="169" y="558" type="curve" smooth="yes"/>
			<point x="169" y="624"/>
			<point x="230" y="651"/>
			<point x="302" y="651" type="curve" smooth="yes"/>
			<point x="373" y="651"/>
			<point x="439" y="620"/>
			<point x="439" y="549" type="curve" smooth="yes"/>
			<point x="439" y="494"/>
			<point x="401" y="445"/>
		</contour>
	</outline>
</glyph>
<glyph name="less" format="2">
	<unicode hex="003C"/>
	<advance width="620"/>
	<outline>
		<contour>
			<point x="473" y="37" type="line"/>
			<point x="509" y="99" type="line"/>
			<point x="192" y="285" type="line"/>
			<point x="509" y="472" type="line"/>
			<point x="473" y="532" type="line"/>
			<point x="95" y="305" type="line"/>
			<point x="95" y="263" type="line"/>
		</contour>
	</outline>
</glyph>
<glyph name="equal" format="2">
	<unicode hex="003D"/>
	<advance width="620"/>
	<outline>
		<contour>
			<point x="96" y="357" type="line"/>
			<point x="524" y="357" type="line"/>
			<point x="524" y="430" type="line"/>
			<point x="96" y="430" type="line"/>
		</contour>
		<contour>
			<point x="96" y="177" type="line"/>
			<point x="524" y="177" type="line"/>
			<point x="524" y="250" type="line"/>
			<point x="96" y="250" type="line"/>
		</contour>
	</outline>
</glyph>
<glyph name="question" format="2">
	<unicode hex="003F"/>
	<advance width="586"/>
	<outline>
		<contour>
			<point x="234" y="205" type="line"/>
			<point x="295" y="205" type="line"/>
			<point x="295" y="257" type="line" smooth="yes"/>
			<point x="295" y="278"/>
			<point x="299" y="290"/>
			<point x="390" y="378" type="curve" smooth="yes"/>
			<point x="433" y="420"/>
			<point x="490" y="476"/>
			<point x="490" y="551" type="curve" smooth="yes"/>
			<point x="490" y="650"/>
			<point x="408" y="714"/>
			<point x="285" y="714" type="curve" smooth="yes"/>
			<point x="172" y="714"/>
			<point x="74" y="650"/>
			<point x="74" y="572" type="curve" smooth="yes"/>
			<point x="74" y="535"/>
			<point x="91" y="509"/>
			<point x="136" y="509" type="curve" smooth="yes"/>
			<point x="170" y="509"/>
			<point x="200" y="534"/>
			<point x="200" y="560" type="curve" smooth="yes"/>
			<point x="200" y="574"/>
			<point x="184" y="599"/>
			<point x="172" y="617" type="curve"/>
			<point x="195" y="642"/>
			<point x="223" y="653"/>
			<point x="270" y="653" type="curve" smooth="yes"/>
			<point x="342" y="653"/>
			<point x="390" y="614"/>
			<point x="390" y="560" type="curve" smooth="yes"/>
			<point x="390" y="522"/>
			<point x="370" y="491"/>
			<point x="311" y="437" type="curve" smooth="yes"/>
			<point x="246" y="378"/>
			<point x="234" y="350"/>
			<point x="234" y="317" type="curve" smooth="yes"/>
		</contour>
		<contour>
			<point x="261" y="-14" type="curve" smooth="yes"/>
			<point x="306" y="-14"/>
			<point x="338" y="18"/>
			<point x="338" y="62" type="curve" smooth="yes"/>
			<point x="338" y="106"/>
			<point x="306" y="137"/>
			<point x="261" y="137" type="curve" smooth="yes"/>
			<point x="217" y="137"/>
			<point x="185" y="105"/>
			<point x="185" y="61" type="curve" smooth="yes"/>
			<point x="185" y="17"/>
			<point x="217" y="-14"/>
		</contour>
	</outline>
</glyph>
<glyph name="at" format="2">
	<unicode hex="0040"/>
	<advance width="929"/>
	<outline>
		<contour>
			<point x="449" y="-187" type="curve" smooth="yes"/>
			<point x="558" y="-187"/>
			<point x="646" y="-153"/>
			<point x="710" y="-95" type="curve"/>
			<point x="673" y="-53" type="line"/>
			<point x="619" y="-94"/>
			<point x="561" y="-125"/>
			<point x="454" y="-125" type="curve" smooth="yes"/>
			<point x="311" y="-125"/>
			<point x="140" y="-55"/>
			<point x="140" y="186" type="curve" smooth="yes"/>
			<point x="140" y="398"/>
			<point x="286" y="510"/>
			<point x="481" y="510" type="curve" smooth="yes"/>
			<point x="699" y="510"/>
			<point x="793" y="409"/>
			<point x="793" y="237" type="curve" smooth="yes"/>
			<point x="793" y="112"/>
			<point x="738" y="48"/>
			<point x="672" y="48" type="curve" smooth="yes"/>
			<point x="639" y="48"/>
			<point x="639" y="60"/>
			<point x="641" y="105" type="curve" smooth="yes"/>
			<point x="652" y="388" type="line"/>
			<point x="633" y="394" type="line"/>
			<point x="586" y="367" type="line"/>
			<point x="553" y="385"/>
			<point x="516" y="395"/>
			<point x="465" y="395" type="curve" smooth="yes"/>
			<point x="352" y="395"/>
			<point x="252" y="323"/>
			<point x="252" y="147" type="curve" smooth="yes"/>
			<point x="252" y="56"/>
			<point x="295" y="-11"/>
			<point x="395" y="-11" type="curve" smooth="yes"/>
			<point x="464" y="-11"/>
			<point x="513" y="40"/>
			<point x="547" y="137" type="curve" smooth="yes"/>
			<point x="569" y="200" type="line"/>
			<point x="573" y="200" type="line"/>
			<point x="567" y="83" type="line" smooth="yes"/>
			<point x="564" y="24"/>
			<point x="568" y="-11"/>
			<point x="647" y="-11" type="curve" smooth="yes"/>
			<point x="760" y="-11"/>
			<point x="863" y="67"/>
			<point x="863" y="244" type="curve" smooth="yes"/>
			<point x="863" y="461"/>
			<point x="713" y="572"/>
			<point x="481" y="572" type="curve" smooth="yes"/>
			<point x="219" y="572"/>
			<point x="66" y="401"/>
			<point x="66" y="184" type="curve" smooth="yes"/>
			<point x="66" y="-75"/>
			<point x="250" y="-187"/>
		</contour>
		<contour>
			<point x="408" y="56" type="curve" smooth="yes"/>
			<point x="362" y="56"/>
			<point x="345" y="92"/>
			<point x="345" y="153" type="curve" smooth="yes"/>
			<point x="345" y="249"/>
			<point x="384" y="342"/>
			<point x="476" y="342" type="curve" smooth="yes"/>
			<point x="506" y="342"/>
			<point x="532" y="337"/>
			<point x="556" y="327" type="curve"/>
			<point x="523" y="223" type="line" smooth="yes"/>
			<point x="484" y="100"/>
			<point x="455" y="56"/>
		</contour>
	</outline>
</glyph>
<glyph name="A" format="2">
	<unicode hex="0041"/>
	<advance width="802"/>
	<outline>
		<contour>
			<point x="16" y="0" type="line"/>
			<point x="281" y="0" type="line"/>
			<point x="281" y="52" type="line"/>
			<point x="221" y="56" type="line" smooth="yes"/>
			<point x="185" y="58"/>
			<point x="187" y="83"/>
			<point x="196" y="109" type="curve" smooth="yes"/>
			<point x="240" y="227" type="line"/>
			<point x="535" y="227" type="line"/>
			<point x="580" y="107" type="line" smooth="yes"/>
			<point x="596" y="65"/>
			<point x="580" y="58"/>
			<point x="559" y="57" type="curve" smooth="yes"/>
			<point x="497" y="53" type="line"/>
			<point x="497" y="0" type="line"/>
			<point x="786" y="0" type="line"/>
			<point x="786" y="53" type="line"/>
			<point x="737" y="59" type="line" smooth="yes"/>
			<point x="709" y="62"/>
			<point x="701" y="77"/>
			<point x="690" y="108" type="curve" smooth="yes"/>
			<point x="463" y="700" type="line"/>
			<point x="351" y="700" type="line"/>
			<point x="122" y="110" type="line" smooth="yes"/>
			<point x="105" y="65"/>
			<point x="95" y="60"/>
			<point x="73" y="58" type="curve" smooth="yes"/>
			<point x="16" y="53" type="line"/>
		</contour>
		<contour>
			<point x="262" y="291" type="line"/>
			<point x="385" y="617" type="line"/>
			<point x="393" y="617" type="line"/>
			<point x="513" y="291" type="line"/>
		</contour>
	</outline>
	<anchor name="bottom" x="390" y="-30"/>
	<anchor name="top" x="407" y="730"/>
</glyph>
<glyph name="B" format="2">
	<unicode hex="0042"/>
	<advance width="721"/>
	<outline>
		<contour>
			<point x="69" y="0" type="line"/>
			<point x="347" y="0" type="line" smooth="yes"/>
			<point x="542" y="0"/>
			<point x="665" y="72"/>
			<point x="665" y="199" type="curve" smooth="yes"/>
			<point x="665" y="299"/>
			<point x="596" y="359"/>
			<point x="462" y="370" type="curve"/>
			<point x="462" y="375" type="line"/>
			<point x="555" y="395"/>
			<point x="621" y="461"/>
			<point x="621" y="534" type="curve" smooth="yes"/>
			<point x="621" y="657"/>
			<point x="511" y="700"/>
			<point x="339" y="700" type="curve" smooth="yes"/>
			<point x="69" y="700" type="line"/>
			<point x="69" y="647" type="line"/>
			<point x="135" y="643" type="line" smooth="yes"/>
			<point x="168" y="641"/>
			<point x="171" y="624"/>
			<point x="171" y="596" type="curve" smooth="yes"/>
			<point x="171" y="108" type="line" smooth="yes"/>
			<point x="171" y="66"/>
			<point x="160" y="58"/>
			<point x="137" y="57" type="curve" smooth="yes"/>
			<point x="69" y="53" type="line"/>
		</contour>
		<contour>
			<point x="347" y="58" type="curve" smooth="yes"/>
			<point x="313" y="58"/>
			<point x="284" y="60"/>
			<point x="269" y="63" type="curve"/>
			<point x="269" y="330" type="line"/>
			<point x="289" y="333"/>
			<point x="314" y="334"/>
			<point x="353" y="334" type="curve" smooth="yes"/>
			<point x="479" y="334"/>
			<point x="554" y="291"/>
			<point x="554" y="202" type="curve" smooth="yes"/>
			<point x="554" y="106"/>
			<point x="479" y="58"/>
		</contour>
		<contour>
			<point x="330" y="392" type="curve" smooth="yes"/>
			<point x="301" y="392"/>
			<point x="283" y="392"/>
			<point x="269" y="394" type="curve"/>
			<point x="269" y="642" type="line"/>
			<point x="334" y="642" type="line" smooth="yes"/>
			<point x="443" y="642"/>
			<point x="511" y="623"/>
			<point x="511" y="530" type="curve" smooth="yes"/>
			<point x="511" y="441"/>
			<point x="440" y="392"/>
		</contour>
	</outline>
</glyph>
<glyph name="D" format="2">
	<unicode hex="0044"/>
	<advance width="834"/>
	<outline>
		<contour>
			<point x="69" y="0" type="line"/>
			<point x="353" y="0" type="line" smooth="yes"/>
			<point x="610" y="0"/>
			<point x="770" y="136"/>
			<point x="770" y="372" type="curve" smooth="yes"/>
			<point x="770" y="587"/>
			<point x="636" y="700"/>
			<point x="381" y="700" type="curve" smooth="yes"/>
			<point x="69" y="700" type="line"/>
			<point x="69" y="647" type="line"/>
			<point x="135" y="643" type="line" smooth="yes"/>
			<point x="165" y="641"/>
			<point x="171" y="630"/>
			<point x="171" y="596" type="curve" smooth="yes"/>
			<point x="171" y="108" type="line" smooth="yes"/>
			<point x="171" y="70"/>
			<point x="165" y="59"/>
			<point x="137" y="57" type="curve" smooth="yes"/>
			<point x="69" y="53" type="line"/>
		</contour>
		<contour>
			<point x="351" y="60" type="curve" smooth="yes"/>
			<point x="322" y="60"/>
			<point x="285" y="60"/>
			<point x="269" y="60" type="curve"/>
			<point x="269" y="640" type="line"/>
			<point x="376" y="640" type="line" smooth="yes"/>
			<point x="566" y="640"/>
			<point x="660" y="549"/>
			<point x="660" y="364" type="curve" smooth="yes"/>
			<point x="660" y="152"/>
			<point x="566" y="60"/>
		</contour>
	</outline>
	<anchor name="bottom" x="394" y="-30"/>
	<anchor name="top" x="392" y="730"/>
</glyph>
<glyph name="F" format="2">
	<unicode hex="0046"/>
	<advance width="650"/>
	<outline>
		<contour>
			<point x="69" y="0" type="line"/>
			<point x="395" y="0" type="line"/>
			<point x="395" y="52" type="line"/>
			<point x="309" y="57" type="line" smooth="yes"/>
			<point x="278" y="59"/>
			<point x="269" y="71"/>
			<point x="269" y="106" type="curve" smooth="yes"/>
			<point x="269" y="310" type="line"/>
			<point x="366" y="310" type="line" smooth="yes"/>
			<point x="436" y="310"/>
			<point x="450" y="305"/>
			<point x="465" y="214" type="curve"/>
			<point x="512" y="222" type="line"/>
			<point x="512" y="460" type="line"/>
			<point x="464" y="454" type="line"/>
			<point x="446" y="377"/>
			<point x="440" y="370"/>
			<point x="367" y="370" type="curve" smooth="yes"/>
			<point x="269" y="370" type="line"/>
			<point x="269" y="640" type="line"/>
			<point x="378" y="640" type="line" smooth="yes"/>
			<point x="471" y="640"/>
			<point x="503" y="634"/>
			<point x="552" y="506" type="curve"/>
			<point x="605" y="522" type="line"/>
			<point x="567" y="700" type="line"/>
			<point x="69" y="700" type="line"/>
			<point x="69" y="647" type="line"/>
			<point x="136" y="643" type="line" smooth="yes"/>
			<point x="164" y="641"/>
			<point x="171" y="630"/>
			<point x="171" y="596" type="curve" smooth="yes"/>
			<point x="171" y="108" type="line" smooth="yes"/>
			<point x="171" y="65"/>
			<point x="160" y="58"/>
			<point x="138" y="57" type="curve" smooth="yes"/>
			<point x="69" y="53" type="line"/>
		</contour>
	</outline>
</glyph>
<glyph name="H" format="2">
	<unicode hex="0048"/>
	<advance width="917"/>
	<outline>
		<contour>
			<point x="69" y="0" type="line"/>
			<point x="370" y="0" type="line"/>
			<point x="370" y="53" type="line"/>
			<point x="304" y="57" type="line" smooth="yes"/>
			<point x="276" y="59"/>
			<point x="269" y="71"/>
			<point x="269" y="104" type="curve" smooth="yes"/>
			<point x="269" y="328" type="line"/>
			<point x="650" y="328" type="line"/>
			<point x="650" y="108" type="line" smooth="yes"/>
			<point x="650" y="71"/>
			<point x="643" y="59"/>
			<point x="617" y="57" type="curve" smooth="yes"/>
			<point x="550" y="53" type="line"/>
			<point x="550" y="0" type="line"/>
			<point x="848" y="0" type="line"/>
			<point x="848" y="53" type="line"/>
			<point x="783" y="57" type="line" smooth="yes"/>
			<point x="748" y="59"/>
			<point x="748" y="79"/>
			<point x="748" y="104" type="curve" smooth="yes"/>
			<point x="748" y="592" type="line" smooth="yes"/>
			<point x="748" y="630"/>
			<point x="755" y="642"/>
			<point x="780" y="643" type="curve" smooth="yes"/>
			<point x="848" y="647" type="line"/>
			<point x="848" y="700" type="line"/>
			<point x="550" y="700" type="line"/>
			<point x="550" y="647" type="line"/>
			<point x="614" y="643" type="line" smooth="yes"/>
			<point x="650" y="641"/>
			<point x="650" y="621"/>
			<point x="650" y="596" type="curve" smooth="yes"/>
			<point x="650" y="392" type="line"/>
			<point x="269" y="392" type="line"/>
			<point x="269" y="592" type="line" smooth="yes"/>
			<point x="269" y="630"/>
			<point x="278" y="642"/>
			<point x="301" y="643" type="curve" smooth="yes"/>
			<point x="370" y="647" type="line"/>
			<point x="370" y="700" type="line"/>
			<point x="69" y="700" type="line"/>
			<point x="69" y="647" type="line"/>
			<point x="135" y="643" type="line" smooth="yes"/>
			<point x="168" y="641"/>
			<point x="171" y="624"/>
			<point x="171" y="596" type="curve" smooth="yes"/>
			<point x="171" y="108" type="line" smooth="yes"/>
			<point x="171" y="66"/>
			<point x="160" y="58"/>
			<point x="138" y="57" type="curve" smooth="yes"/>
			<point x="69" y="53" type="line"/>
		</contour>
	</outline>
	<anchor name="bottom" x="458" y="-30"/>
	<anchor name="top" x="460" y="730"/>
</glyph>
<glyph name="J" format="2">
	<unicode hex="004A"/>
	<advance width="586"/>
	<outline>
		<contour>
			<point x="222" y="-14" type="curve" smooth="yes"/>
			<point x="373" y="-14"/>
			<point x="441" y="77"/>
			<point x="441" y="228" type="curve" smooth="yes"/>
			<point x="441" y="592" type="line" smooth="yes"/>
			<point x="441" y="628"/>
			<point x="448" y="642"/>
			<point x="474" y="643" type="curve" smooth="yes"/>
			<point x="544" y="647" type="line"/>
			<point x="544" y="700" type="line"/>
			<point x="231" y="700" type="line"/>
			<point x="231" y="647" type="line"/>
			<point x="307" y="643" type="line" smooth="yes"/>
			<point x="339" y="641"/>
			<point x="343" y="625"/>
			<point x="343" y="594" type="curve" smooth="yes"/>
			<point x="343" y="205" type="line" smooth="yes"/>
			<point x="343" y="100"/>
			<point x="305" y="50"/>
			<point x="227" y="50" type="curve" smooth="yes"/>
			<point x="198" y="50"/>
			<point x="160" y="60"/>
			<point x="141" y="74" type="curve"/>
			<point x="166" y="116"/>
			<point x="172" y="129"/>
			<point x="172" y="147" type="curve" smooth="yes"/>
			<point x="172" y="175"/>
			<point x="150" y="194"/>
			<point x="110" y="194" type="curve" smooth="yes"/>
			<point x="63" y="194"/>
			<point x="30" y="157"/>
			<point x="30" y="110" type="curve" smooth="yes"/>
			<point x="30" y="39"/>
			<point x="107" y="-14"/>
		</contour>
	</outline>
	<anchor name="top" x="389" y="730"/>
</glyph>
<glyph name="K" format="2">
	<unicode hex="004B"/>
	<advance width="784"/>
	<outline>
		<contour>
			<point x="664" y="-14" type="curve" smooth="yes"/>
			<point x="708" y="-14"/>
			<point x="748" y="1"/>
			<point x="774" y="26" type="curve"/>
			<point x="762" y="64" type="line"/>
			<point x="742" y="57"/>
			<point x="723" y="55"/>
			<point x="708" y="55" type="curve" smooth="yes"/>
			<point x="657" y="55"/>
			<point x="635" y="78"/>
			<point x="593" y="136" type="curve" smooth="yes"/>
			<point x="405" y="397" type="line"/>
			<point x="614" y="596" type="line" smooth="yes"/>
			<point x="655" y="635"/>
			<point x="660" y="639"/>
			<point x="682" y="642" type="curve" smooth="yes"/>
			<point x="724" y="647" type="line"/>
			<point x="724" y="700" type="line"/>
			<point x="476" y="700" type="line"/>
			<point x="467" y="646" type="line"/>
			<point x="514" y="643" type="line" smooth="yes"/>
			<point x="549" y="641"/>
			<point x="548" y="615"/>
			<point x="524" y="593" type="curve" smooth="yes"/>
			<point x="269" y="350" type="line"/>
			<point x="269" y="592" type="line" smooth="yes"/>
			<point x="269" y="631"/>
			<point x="277" y="642"/>
			<point x="301" y="643" type="curve" smooth="yes"/>
			<point x="370" y="647" type="line"/>
			<point x="370" y="700" type="line"/>
			<point x="69" y="700" type="line"/>
			<point x="69" y="647" type="line"/>
			<point x="135" y="643" type="line" smooth="yes"/>
			<point x="164" y="641"/>
			<point x="171" y="631"/>
			<point x="171" y="596" type="curve" smooth="yes"/>
			<point x="171" y="108" type="line" smooth="yes"/>
			<point x="171" y="67"/>
			<point x="161" y="58"/>
			<point x="138" y="57" type="curve" smooth="yes"/>
			<point x="69" y="53" type="line"/>
			<point x="69" y="0" type="line"/>
			<point x="370" y="0" type="line"/>
			<point x="370" y="53" type="line"/>
			<point x="304" y="57" type="line" smooth="yes"/>
			<point x="276" y="59"/>
			<point x="269" y="70"/>
			<point x="269" y="104" type="curve" smooth="yes"/>
			<point x="269" y="270" type="line"/>
			<point x="331" y="331" type="line"/>
			<point x="496" y="93" type="line" smooth="yes"/>
			<point x="530" y="44"/>
			<point x="572" y="-14"/>
		</contour>
	</outline>
	<anchor name="bottom" x="411" y="-30"/>
	<anchor name="top" x="411" y="730"/>
</glyph>
<glyph name="L" format="2">
	<unicode hex="004C"/>
	<advance width="656"/>
	<outline>
		<contour>
			<point x="69" y="0" type="line"/>
			<point x="588" y="0" type="line"/>
			<point x="611" y="214" type="line"/>
			<point x="555" y="214" type="line"/>
			<point x="511" y="73"/>
			<point x="485" y="60"/>
			<point x="389" y="60" type="curve" smooth="yes"/>
			<point x="269" y="60" type="line"/>
			<point x="269" y="596" type="line" smooth="yes"/>
			<point x="269" y="630"/>
			<point x="276" y="640"/>
			<point x="304" y="642" type="curve" smooth="yes"/>
			<point x="377" y="647" type="line"/>
			<point x="377" y="700" type="line"/>
			<point x="69" y="700" type="line"/>
			<point x="69" y="647" type="line"/>
			<point x="135" y="643" type="line" smooth="yes"/>
			<point x="165" y="641"/>
			<point x="171" y="630"/>
			<point x="171" y="596" type="curve" smooth="yes"/>
			<point x="171" y="108" type="line" smooth="yes"/>
			<point x="171" y="66"/>
			<point x="160" y="58"/>
			<point x="137" y="57" type="curve" smooth="yes"/>
			<point x="69" y="53" type="line"/>
		</contour>
	</outline>
	<anchor name="bottom" x="354" y="-30"/>
	<anchor name="top" x="219" y="730"/>
</glyph>
<glyph name="M" format="2">
	<unicode hex="004D"/>
	<advance width="1058"/>
	<outline>
		<contour>
			<point x="66" y="0" type="line"/>
			<point x="326" y="0" type="line"/>
			<point x="326" y="53" type="line"/>
			<point x="266" y="57" type="line" smooth="yes"/>
			<point x="235" y="59"/>
			<point x="229" y="72"/>
			<point x="231" y="104" type="curve" smooth="yes"/>
			<point x="264" y="623" type="line"/>
			<point x="265" y="623" type="line"/>
			<point x="463" y="105" type="line"/>
			<point x="566" y="105" type="line"/>
			<point x="767" y="622" type="line"/>
			<point x="768" y="622" type="line"/>
			<point x="800" y="108" type="line" smooth="yes"/>
			<point x="802" y="68"/>
			<point x="794" y="59"/>
			<point x="767" y="57" type="curve" smooth="yes"/>
			<point x="700" y="53" type="line"/>
			<point x="700" y="0" type="line"/>
			<point x="1001" y="0" type="line"/>
			<point x="1001" y="53" type="line"/>
			<point x="934" y="57" type="line" smooth="yes"/>
			<point x="901" y="59"/>
			<point x="900" y="78"/>
			<point x="898" y="104" type="curve" smooth="yes"/>
			<point x="868" y="592" type="line" smooth="yes"/>
			<point x="865" y="636"/>
			<point x="880" y="642"/>
			<point x="899" y="643" type="curve" smooth="yes"/>
			<point x="968" y="647" type="line"/>
			<point x="968" y="700" type="line"/>
			<point x="726" y="700" type="line"/>
			<point x="533" y="203" type="line"/>
			<point x="529" y="203" type="line"/>
			<point x="343" y="700" type="line"/>
			<point x="99" y="700" type="line"/>
			<point x="99" y="647" type="line"/>
			<point x="159" y="643" type="line" smooth="yes"/>
			<point x="191" y="641"/>
			<point x="195" y="624"/>
			<point x="193" y="596" type="curve" smooth="yes"/>
			<point x="161" y="108" type="line" smooth="yes"/>
			<point x="159" y="77"/>
			<point x="156" y="58"/>
			<point x="128" y="57" type="curve" smooth="yes"/>
			<point x="66" y="53" type="line"/>
		</contour>
	</outline>
	<anchor name="bottom" x="510" y="-30"/>
</glyph>
<glyph name="N" format="2">
	<unicode hex="004E"/>
	<advance width="907"/>
	<outline>
		<contour>
			<point x="69" y="0" type="line"/>
			<point x="344" y="0" type="line"/>
			<point x="344" y="53" type="line"/>
			<point x="277" y="57" type="line" smooth="yes"/>
			<point x="242" y="59"/>
			<point x="242" y="79"/>
			<point x="242" y="104" type="curve" smooth="yes"/>
			<point x="242" y="604" type="line"/>
			<point x="247" y="604" type="line"/>
			<point x="645" y="0" type="line"/>
			<point x="743" y="0" type="line"/>
			<point x="743" y="592" type="line" smooth="yes"/>
			<point x="743" y="629"/>
			<point x="750" y="641"/>
			<point x="777" y="643" type="curve" smooth="yes"/>
			<point x="843" y="647" type="line"/>
			<point x="843" y="700" type="line"/>
			<point x="571" y="700" type="line"/>
			<point x="571" y="647" type="line"/>
			<point x="635" y="643" type="line" smooth="yes"/>
			<point x="664" y="641"/>
			<point x="671" y="629"/>
			<point x="671" y="596" type="curve" smooth="yes"/>
			<point x="671" y="138" type="line"/>
			<point x="666" y="138" type="line"/>
			<point x="306" y="700" type="line"/>
			<point x="69" y="700" type="line"/>
			<point x="69" y="647" type="line"/>
			<point x="137" y="643" type="line" smooth="yes"/>
			<point x="165" y="641"/>
			<point x="171" y="630"/>
			<point x="171" y="596" type="curve" smooth="yes"/>
			<point x="171" y="108" type="line" smooth="yes"/>
			<point x="171" y="70"/>
			<point x="163" y="58"/>
			<point x="139" y="57" type="curve" smooth="yes"/>
			<point x="69" y="53" type="line"/>
		</contour>
	</outline>
	<anchor name="bottom" x="443" y="-30"/>
	<anchor name="top" x="446" y="730"/>
</glyph>
<glyph name="O" format="2">
	<unicode hex="004F"/>
	<advance width="834"/>
	<outline>
		<contour>
			<point x="412" y="-14" type="curve" smooth="yes"/>
			<point x="623" y="-14"/>
			<point x="770" y="140"/>
			<point x="770" y="368" type="curve" smooth="yes"/>
			<point x="770" y="576"/>
			<point x="632" y="714"/>
			<point x="422" y="714" type="curve" smooth="yes"/>
			<point x="198" y="714"/>
			<point x="64" y="567"/>
			<point x="64" y="336" type="curve" smooth="yes"/>
			<point x="64" y="126"/>
			<point x="204" y="-14"/>
		</contour>
		<contour>
			<point x="425" y="57" type="curve" smooth="yes"/>
			<point x="272" y="57"/>
			<point x="174" y="165"/>
			<point x="174" y="356" type="curve" smooth="yes"/>
			<point x="174" y="543"/>
			<point x="259" y="644"/>
			<point x="408" y="644" type="curve" smooth="yes"/>
			<point x="564" y="644"/>
			<point x="660" y="541"/>
			<point x="660" y="348" type="curve" smooth="yes"/>
			<point x="660" y="155"/>
			<point x="577" y="57"/>
		</contour>
	</outline>
	<anchor name="bottom" x="411" y="-30"/>
	<anchor name="top" x="417" y="730"/>
</glyph>
<glyph name="Q" format="2">
	<unicode hex="0051"/>
	<advance width="837"/>
	<outline>
		<contour>
			<point x="753" y="-191" type="curve" smooth="yes"/>
			<point x="828" y="-191"/>
			<point x="883" y="-159"/>
			<point x="957" y="-75" type="curve"/>
			<point x="936" y="-45" type="line"/>
			<point x="882" y="-80"/>
			<point x="838" y="-94"/>
			<point x="781" y="-94" type="curve" smooth="yes"/>
			<point x="731" y="-94"/>
			<point x="681" y="-58"/>
			<point x="608" y="36" type="curve"/>
			<point x="716" y="100"/>
			<point x="773" y="220"/>
			<point x="773" y="368" type="curve" smooth="yes"/>
			<point x="773" y="576"/>
			<point x="638" y="714"/>
			<point x="428" y="714" type="curve" smooth="yes"/>
			<point x="204" y="714"/>
			<point x="64" y="567"/>
			<point x="64" y="336" type="curve" smooth="yes"/>
			<point x="64" y="126"/>
			<point x="210" y="-14"/>
			<point x="418" y="-14" type="curve" smooth="yes"/>
			<point x="453" y="-14"/>
			<point x="486" y="-10"/>
			<point x="518" y="-2" type="curve"/>
			<point x="593" y="-137"/>
			<point x="662" y="-191"/>
		</contour>
		<contour>
			<point x="431" y="53" type="curve" smooth="yes"/>
			<point x="345" y="53"/>
			<point x="273" y="88"/>
			<point x="231" y="150" type="curve"/>
			<point x="259" y="192"/>
			<point x="291" y="204"/>
			<point x="327" y="204" type="curve" smooth="yes"/>
			<point x="381" y="204"/>
			<point x="430" y="155"/>
			<point x="485" y="57" type="curve"/>
			<point x="475" y="54"/>
			<point x="459" y="53"/>
		</contour>
		<contour>
			<point x="569" y="94" type="curve"/>
			<point x="480" y="205"/>
			<point x="411" y="260"/>
			<point x="341" y="260" type="curve" smooth="yes"/>
			<point x="289" y="260"/>
			<point x="249" y="245"/>
			<point x="208" y="193" type="curve"/>
			<point x="184" y="238"/>
			<point x="174" y="296"/>
			<point x="174" y="357" type="curve" smooth="yes"/>
			<point x="174" y="544"/>
			<point x="262" y="645"/>
			<point x="414" y="645" type="curve" smooth="yes"/>
			<point x="570" y="645"/>
			<point x="663" y="538"/>
			<point x="663" y="349" type="curve" smooth="yes"/>
			<point x="663" y="228"/>
			<point x="630" y="141"/>
		</contour>
	</outline>
</glyph>
<glyph name="T" format="2">
	<unicode hex="0054"/>
	<advance width="778"/>
	<outline>
		<contour>
			<point x="217" y="0" type="line"/>
			<point x="563" y="0" type="line"/>
			<point x="563" y="53" type="line"/>
			<point x="475" y="60" type="line" smooth="yes"/>
			<point x="445" y="62"/>
			<point x="439" y="74"/>
			<point x="439" y="106" type="curve" smooth="yes"/>
			<point x="439" y="640" type="line"/>
			<point x="508" y="640" type="line" smooth="yes"/>
			<point x="598" y="640"/>
			<point x="622" y="633"/>
			<point x="674" y="487" type="curve"/>
			<point x="728" y="499" type="line"/>
			<point x="691" y="700" type="line"/>
			<point x="89" y="700" type="line"/>
			<point x="50" y="499" type="line"/>
			<point x="103" y="487" type="line"/>
			<point x="155" y="633"/>
			<point x="178" y="640"/>
			<point x="271" y="640" type="curve" smooth="yes"/>
			<point x="341" y="640" type="line"/>
			<point x="341" y="110" type="line" smooth="yes"/>
			<point x="341" y="77"/>
			<point x="333" y="62"/>
			<point x="305" y="60" type="curve" smooth="yes"/>
			<point x="217" y="53" type="line"/>
		</contour>
	</outline>
	<anchor name="bottom" x="387" y="-30"/>
	<anchor name="top" x="387" y="730"/>
</glyph>
<glyph name="X" format="2">
	<unicode hex="0058"/>
	<advance width="771"/>
	<outline>
		<contour>
			<point x="20" y="0" type="line"/>
			<point x="273" y="0" type="line"/>
			<point x="273" y="53" type="line"/>
			<point x="227" y="59" type="line" smooth="yes"/>
			<point x="191" y="64"/>
			<point x="201" y="78"/>
			<point x="218" y="99" type="curve" smooth="yes"/>
			<point x="369" y="287" type="line"/>
			<point x="522" y="100" type="line" smooth="yes"/>
			<point x="547" y="70"/>
			<point x="538" y="58"/>
			<point x="513" y="56" type="curve" smooth="yes"/>
			<point x="465" y="53" type="line"/>
			<point x="465" y="0" type="line"/>
			<point x="750" y="0" type="line"/>
			<point x="750" y="53" type="line"/>
			<point x="709" y="58" type="line" smooth="yes"/>
			<point x="681" y="61"/>
			<point x="661" y="75"/>
			<point x="635" y="108" type="curve" smooth="yes"/>
			<point x="432" y="362" type="line"/>
			<point x="619" y="596" type="line" smooth="yes"/>
			<point x="644" y="628"/>
			<point x="660" y="638"/>
			<point x="685" y="642" type="curve" smooth="yes"/>
			<point x="726" y="647" type="line"/>
			<point x="726" y="700" type="line"/>
			<point x="482" y="700" type="line"/>
			<point x="482" y="647" type="line"/>
			<point x="521" y="641" type="line" smooth="yes"/>
			<point x="558" y="635"/>
			<point x="551" y="621"/>
			<point x="531" y="596" type="curve" smooth="yes"/>
			<point x="389" y="417" type="line"/>
			<point x="241" y="600" type="line" smooth="yes"/>
			<point x="217" y="630"/>
			<point x="224" y="642"/>
			<point x="249" y="644" type="curve" smooth="yes"/>
			<point x="290" y="647" type="line"/>
			<point x="290" y="700" type="line"/>
			<point x="20" y="700" type="line"/>
			<point x="20" y="647" type="line"/>
			<point x="60" y="641" type="line" smooth="yes"/>
			<point x="89" y="637"/>
			<point x="100" y="623"/>
			<point x="126" y="592" type="curve" smooth="yes"/>
			<point x="324" y="343" type="line"/>
			<point x="125" y="102" type="line" smooth="yes"/>
			<point x="92" y="62"/>
			<point x="80" y="61"/>
			<point x="61" y="58" type="curve" smooth="yes"/>
			<point x="20" y="53" type="line"/>
		</contour>
	</outline>
</glyph>
<glyph name="bracketright" format="2">
	<unicode hex="005D"/>
	<advance width="386"/>
	<outline>
		<contour>
			<point x="55" y="-212" type="line"/>
			<point x="265" y="-212" type="line"/>
			<point x="265" y="812" type="line"/>
			<point x="55" y="812" type="line"/>
			<point x="51" y="757" type="line"/>
			<point x="145" y="751" type="line" smooth="yes"/>
			<point x="171" y="749"/>
			<point x="175" y="740"/>
			<point x="175" y="705" type="curve" smooth="yes"/>
			<point x="175" y="-105" type="line" smooth="yes"/>
			<point x="175" y="-142"/>
			<point x="171" y="-149"/>
			<point x="145" y="-151" type="curve" smooth="yes"/>
			<point x="51" y="-157" type="line"/>
		</contour>
	</outline>
</glyph>
<glyph name="grave" format="2">
	<unicode hex="0060"/>
	<advance width="500"/>
	<outline>
		<contour>
			<point x="289" y="591" type="line"/>
			<point x="318" y="621" type="line"/>
			<point x="211" y="753" type="line" smooth="yes"/>
			<point x="195" y="773"/>
			<point x="184" y="782"/>
			<point x="169" y="782" type="curve" smooth="yes"/>
			<point x="140" y="782"/>
			<point x="122" y="756"/>
			<point x="122" y="731" type="curve" smooth="yes"/>
			<point x="122" y="709"/>
			<point x="134" y="693"/>
			<point x="157" y="678" type="curve" smooth="yes"/>
		</contour>
	</outline>
	<anchor name="_top" x="250" y="550"/>
</glyph>
<glyph name="c" format="2">
	<unicode hex="0063"/>
	<advance width="560"/>
	<outline>
		<contour>
			<point x="311" y="-14" type="curve" smooth="yes"/>
			<point x="397" y="-14"/>
			<point x="471" y="26"/>
			<point x="516" y="84" type="curve"/>
			<point x="479" y="124" type="line"/>
			<point x="443" y="93"/>
			<point x="396" y="65"/>
			<point x="331" y="65" type="curve" smooth="yes"/>
			<point x="231" y="65"/>
			<point x="160" y="125"/>
			<point x="160" y="278" type="curve" smooth="yes"/>
			<point x="160" y="416"/>
			<point x="227" y="471"/>
			<point x="315" y="471" type="curve" smooth="yes"/>
			<point x="356" y="471"/>
			<point x="387" y="461"/>
			<point x="410" y="445" type="curve"/>
			<point x="393" y="412"/>
			<point x="385" y="394"/>
			<point x="385" y="378" type="curve" smooth="yes"/>
			<point x="385" y="349"/>
			<point x="406" y="329"/>
			<point x="446" y="329" type="curve" smooth="yes"/>
			<point x="485" y="329"/>
			<point x="512" y="356"/>
			<point x="512" y="396" type="curve" smooth="yes"/>
			<point x="512" y="475"/>
			<point x="428" y="533"/>
			<point x="316" y="533" type="curve" smooth="yes"/>
			<point x="163" y="533"/>
			<point x="62" y="424"/>
			<point x="62" y="253" type="curve" smooth="yes"/>
			<point x="62" y="84"/>
			<point x="156" y="-14"/>
		</contour>
	</outline>
	<anchor name="bottom" x="308" y="-30"/>
	<anchor name="top" x="309" y="550"/>
</glyph>
<glyph name="g" format="2">
	<unicode hex="0067"/>
	<advance width="609"/>
	<outline>
		<contour>
			<point x="280" y="-230" type="curve" smooth="yes"/>
			<point x="454" y="-230"/>
			<point x="562" y="-162"/>
			<point x="562" y="-46" type="curve" smooth="yes"/>
			<point x="562" y="51"/>
			<point x="492" y="83"/>
			<point x="372" y="83" type="curve" smooth="yes"/>
			<point x="235" y="83" type="line" smooth="yes"/>
			<point x="189" y="83"/>
			<point x="160" y="91"/>
			<point x="160" y="124" type="curve" smooth="yes"/>
			<point x="160" y="142"/>
			<point x="173" y="166"/>
			<point x="200" y="193" type="curve"/>
			<point x="216" y="187"/>
			<point x="252" y="184"/>
			<point x="283" y="184" type="curve" smooth="yes"/>
			<point x="412" y="184"/>
			<point x="497" y="252"/>
			<point x="497" y="358" type="curve" smooth="yes"/>
			<point x="497" y="401"/>
			<point x="484" y="438"/>
			<point x="457" y="468" type="curve"/>
			<point x="467" y="494"/>
			<point x="476" y="512"/>
			<point x="488" y="531" type="curve"/>
			<point x="499" y="510" type="line" smooth="yes"/>
			<point x="508" y="493"/>
			<point x="522" y="483"/>
			<point x="542" y="483" type="curve" smooth="yes"/>
			<point x="573" y="483"/>
			<point x="603" y="510"/>
			<point x="603" y="539" type="curve" smooth="yes"/>
			<point x="603" y="570"/>
			<point x="573" y="592"/>
			<point x="531" y="592" type="curve" smooth="yes"/>
			<point x="477" y="592"/>
			<point x="438" y="560"/>
			<point x="415" y="500" type="curve"/>
			<point x="378" y="521"/>
			<point x="334" y="531"/>
			<point x="281" y="531" type="curve" smooth="yes"/>
			<point x="147" y="531"/>
			<point x="60" y="461"/>
			<point x="60" y="353" type="curve" smooth="yes"/>
			<point x="60" y="288"/>
			<point x="86" y="241"/>
			<point x="140" y="216" type="curve"/>
			<point x="140" y="213" type="line"/>
			<point x="84" y="160"/>
			<point x="69" y="124"/>
			<point x="69" y="89" type="curve" smooth="yes"/>
			<point x="69" y="56"/>
			<point x="97" y="22"/>
			<point x="131" y="12" type="curve"/>
			<point x="131" y="8" type="line"/>
			<point x="62" y="-21"/>
			<point x="34" y="-57"/>
			<point x="34" y="-106" type="curve" smooth="yes"/>
			<point x="34" y="-188"/>
			<point x="120" y="-230"/>
		</contour>
		<contour>
			<point x="288" y="-159" type="curve" smooth="yes"/>
			<point x="173" y="-159"/>
			<point x="128" y="-135"/>
			<point x="128" y="-89" type="curve" smooth="yes"/>
			<point x="128" y="-57"/>
			<point x="144" y="-31"/>
			<point x="179" y="-8" type="curve"/>
			<point x="363" y="-8" type="line" smooth="yes"/>
			<point x="430" y="-8"/>
			<point x="465" y="-29"/>
			<point x="465" y="-70" type="curve" smooth="yes"/>
			<point x="465" y="-122"/>
			<point x="397" y="-159"/>
		</contour>
		<contour>
			<point x="279" y="250" type="curve" smooth="yes"/>
			<point x="205" y="250"/>
			<point x="157" y="294"/>
			<point x="157" y="358" type="curve" smooth="yes"/>
			<point x="157" y="425"/>
			<point x="199" y="467"/>
			<point x="273" y="467" type="curve" smooth="yes"/>
			<point x="353" y="467"/>
			<point x="400" y="421"/>
			<point x="400" y="355" type="curve" smooth="yes"/>
			<point x="400" y="290"/>
			<point x="357" y="250"/>
		</contour>
	</outline>
	<anchor name="top" x="275" y="560"/>
</glyph>
<glyph name="h" format="2">
	<unicode hex="0068"/>
	<advance width="725"/>
	<outline>
		<contour>
			<point x="61" y="0" type="line"/>
			<point x="319" y="0" type="line"/>
			<point x="319" y="53" type="line"/>
			<point x="266" y="59" type="line" smooth="yes"/>
			<point x="245" y="61"/>
			<point x="239" y="72"/>
			<point x="239" y="102" type="curve" smooth="yes"/>
			<point x="239" y="317" type="line" smooth="yes"/>
			<point x="239" y="401"/>
			<point x="299" y="456"/>
			<point x="392" y="456" type="curve" smooth="yes"/>
			<point x="480" y="456"/>
			<point x="506" y="413"/>
			<point x="506" y="328" type="curve" smooth="yes"/>
			<point x="506" y="97" type="line" smooth="yes"/>
			<point x="506" y="65"/>
			<point x="499" y="58"/>
			<point x="473" y="56" type="curve" smooth="yes"/>
			<point x="430" y="53" type="line"/>
			<point x="430" y="0" type="line"/>
			<point x="689" y="0" type="line"/>
			<point x="689" y="53" type="line"/>
			<point x="632" y="56" type="line" smooth="yes"/>
			<point x="599" y="58"/>
			<point x="599" y="77"/>
			<point x="599" y="98" type="curve" smooth="yes"/>
			<point x="599" y="362" type="line" smooth="yes"/>
			<point x="599" y="473"/>
			<point x="532" y="533"/>
			<point x="421" y="533" type="curve" smooth="yes"/>
			<point x="348" y="533"/>
			<point x="274" y="497"/>
			<point x="240" y="442" type="curve"/>
			<point x="239" y="442" type="line"/>
			<point x="239" y="755" type="line"/>
			<point x="227" y="766" type="line"/>
			<point x="46" y="761" type="line"/>
			<point x="40" y="708" type="line"/>
			<point x="99" y="704" type="line" smooth="yes"/>
			<point x="140" y="701"/>
			<point x="146" y="689"/>
			<point x="146" y="644" type="curve" smooth="yes"/>
			<point x="146" y="104" type="line" smooth="yes"/>
			<point x="146" y="70"/>
			<point x="141" y="59"/>
			<point x="116" y="57" type="curve" smooth="yes"/>
			<point x="61" y="53" type="line"/>
		</contour>
	</outline>
	<anchor name="bottom" x="372" y="-30"/>
	<anchor name="top" x="141" y="780"/>
</glyph>
<glyph name="i" format="2">
	<unicode hex="0069"/>
	<advance width="372"/>
	<outline>
		<contour>
			<point x="47" y="0" type="line"/>
			<point x="342" y="0" type="line"/>
			<point x="342" y="53" type="line"/>
			<point x="276" y="57" type="line" smooth="yes"/>
			<point x="243" y="59"/>
			<point x="241" y="78"/>
			<point x="241" y="104" type="curve" smooth="yes"/>
			<point x="241" y="519" type="line"/>
			<point x="228" y="526" type="line"/>
			<point x="57" y="516" type="line"/>
			<point x="49" y="462" type="line"/>
			<point x="109" y="458" type="line" smooth="yes"/>
			<point x="141" y="456"/>
			<point x="148" y="446"/>
			<point x="148" y="398" type="curve" smooth="yes"/>
			<point x="148" y="108" type="line" smooth="yes"/>
			<point x="148" y="70"/>
			<point x="142" y="59"/>
			<point x="114" y="57" type="curve" smooth="yes"/>
			<point x="47" y="53" type="line"/>
		</contour>
		<contour>
			<point x="180" y="620" type="curve" smooth="yes"/>
			<point x="221" y="620"/>
			<point x="250" y="648"/>
			<point x="250" y="687" type="curve" smooth="yes"/>
			<point x="250" y="726"/>
			<point x="220" y="753"/>
			<point x="180" y="753" type="curve" smooth="yes"/>
			<point x="140" y="753"/>
			<point x="111" y="725"/>
			<point x="111" y="686" type="curve" smooth="yes"/>
			<point x="111" y="647"/>
			<point x="140" y="620"/>
		</contour>
	</outline>
	<anchor name="bottom" x="189" y="-30"/>
</glyph>
<glyph name="n" format="2">
	<unicode hex="006E"/>
	<advance width="726"/>
	<outline>
		<contour>
			<point x="62" y="0" type="line"/>
			<point x="320" y="0" type="line"/>
			<point x="320" y="53" type="line"/>
			<point x="267" y="57" type="line" smooth="yes"/>
			<point x="245" y="59"/>
			<point x="240" y="70"/>
			<point x="240" y="102" type="curve" smooth="yes"/>
			<point x="240" y="317" type="line" smooth="yes"/>
			<point x="240" y="401"/>
			<point x="301" y="456"/>
			<point x="395" y="456" type="curve" smooth="yes"/>
			<point x="483" y="456"/>
			<point x="507" y="413"/>
			<point x="507" y="328" type="curve" smooth="yes"/>
			<point x="507" y="98" type="line" smooth="yes"/>
			<point x="507" y="65"/>
			<point x="499" y="58"/>
			<point x="475" y="56" type="curve" smooth="yes"/>
			<point x="431" y="53" type="line"/>
			<point x="431" y="0" type="line"/>
			<point x="690" y="0" type="line"/>
			<point x="690" y="53" type="line"/>
			<point x="634" y="56" type="line" smooth="yes"/>
			<point x="604" y="58"/>
			<point x="600" y="70"/>
			<point x="600" y="97" type="curve" smooth="yes"/>
			<point x="600" y="362" type="line" smooth="yes"/>
			<point x="600" y="473"/>
			<point x="535" y="533"/>
			<point x="423" y="533" type="curve" smooth="yes"/>
			<point x="347" y="533"/>
			<point x="272" y="493"/>
			<point x="232" y="430" type="curve"/>
			<point x="226" y="430" type="line"/>
			<point x="218" y="519" type="line"/>
			<point x="205" y="526" type="line"/>
			<point x="60" y="515" type="line"/>
			<point x="52" y="462" type="line"/>
			<point x="110" y="458" type="line" smooth="yes"/>
			<point x="141" y="456"/>
			<point x="147" y="444"/>
			<point x="147" y="401" type="curve" smooth="yes"/>
			<point x="147" y="105" type="line" smooth="yes"/>
			<point x="147" y="66"/>
			<point x="138" y="58"/>
			<point x="119" y="57" type="curve" smooth="yes"/>
			<point x="62" y="53" type="line"/>
		</contour>
	</outline>
	<anchor name="bottom" x="371" y="-30"/>
	<anchor name="top" x="370" y="550"/>
</glyph>
<glyph name="r" format="2">
	<unicode hex="0072"/>
	<advance width="523"/>
	<outline>
		<contour>
			<point x="62" y="0" type="line"/>
			<point x="361" y="0" type="line"/>
			<point x="361" y="52" type="line"/>
			<point x="269" y="57" type="line" smooth="yes"/>
			<point x="244" y="58"/>
			<point x="240" y="72"/>
			<point x="240" y="103" type="curve" smooth="yes"/>
			<point x="240" y="318" type="line" smooth="yes"/>
			<point x="240" y="409"/>
			<point x="326" y="490"/>
			<point x="391" y="460" type="curve"/>
			<point x="377" y="432"/>
			<point x="372" y="415"/>
			<point x="372" y="402" type="curve" smooth="yes"/>
			<point x="372" y="374"/>
			<point x="392" y="356"/>
			<point x="431" y="356" type="curve" smooth="yes"/>
			<point x="477" y="356"/>
			<point x="498" y="388"/>
			<point x="498" y="438" type="curve" smooth="yes"/>
			<point x="498" y="496"/>
			<point x="458" y="533"/>
			<point x="392" y="533" type="curve" smooth="yes"/>
			<point x="329" y="533"/>
			<point x="275" y="497"/>
			<point x="232" y="429" type="curve"/>
			<point x="226" y="429" type="line"/>
			<point x="218" y="519" type="line"/>
			<point x="205" y="526" type="line"/>
			<point x="60" y="515" type="line"/>
			<point x="52" y="462" type="line"/>
			<point x="110" y="458" type="line" smooth="yes"/>
			<point x="141" y="456"/>
			<point x="147" y="445"/>
			<point x="147" y="401" type="curve" smooth="yes"/>
			<point x="147" y="105" type="line" smooth="yes"/>
			<point x="147" y="70"/>
			<point x="141" y="59"/>
			<point x="117" y="57" type="curve" smooth="yes"/>
			<point x="62" y="53" type="line"/>
		</contour>
	</outline>
	<anchor name="bottom" x="201" y="-30"/>
	<anchor name="top" x="293" y="550"/>
</glyph>
<glyph name="s" format="2">
	<unicode hex="0073"/>
	<advance width="500"/>
	<outline>
		<contour>
			<point x="65" y="-14" type="line"/>
			<point x="114" y="-14" type="line"/>
			<point x="127" y="23" type="line"/>
			<point x="158" y="1"/>
			<point x="205" y="-14"/>
			<point x="261" y="-14" type="curve" smooth="yes"/>
			<point x="370" y="-14"/>
			<point x="452" y="54"/>
			<point x="452" y="152" type="curve" smooth="yes"/>
			<point x="452" y="235"/>
			<point x="411" y="275"/>
			<point x="277" y="310" type="curve" smooth="yes"/>
			<point x="186" y="334"/>
			<point x="155" y="350"/>
			<point x="155" y="402" type="curve" smooth="yes"/>
			<point x="155" y="448"/>
			<point x="188" y="475"/>
			<point x="252" y="475" type="curve" smooth="yes"/>
			<point x="314" y="475"/>
			<point x="365" y="431"/>
			<point x="378" y="375" type="curve"/>
			<point x="438" y="370" type="line"/>
			<point x="428" y="533" type="line"/>
			<point x="377" y="533" type="line"/>
			<point x="369" y="499" type="line"/>
			<point x="343" y="519"/>
			<point x="293" y="533"/>
			<point x="250" y="533" type="curve" smooth="yes"/>
			<point x="145" y="533"/>
			<point x="67" y="474"/>
			<point x="67" y="378" type="curve" smooth="yes"/>
			<point x="67" y="296"/>
			<point x="110" y="254"/>
			<point x="239" y="224" type="curve" smooth="yes"/>
			<point x="340" y="200"/>
			<point x="365" y="177"/>
			<point x="365" y="130" type="curve" smooth="yes"/>
			<point x="365" y="82"/>
			<point x="326" y="50"/>
			<point x="263" y="50" type="curve" smooth="yes"/>
			<point x="192" y="50"/>
			<point x="140" y="90"/>
			<point x="112" y="162" type="curve"/>
			<point x="53" y="158" type="line"/>
		</contour>
	</outline>
	<anchor name="bottom" x="251" y="-30"/>
	<anchor name="top" x="246" y="550"/>
</glyph>
<glyph name="x" format="2">
	<unicode hex="0078"/>
	<advance width="623"/>
	<outline>
		<contour>
			<point x="14" y="0" type="line"/>
			<point x="263" y="0" type="line"/>
			<point x="263" y="53" type="line"/>
			<point x="213" y="56" type="line" smooth="yes"/>
			<point x="178" y="58"/>
			<point x="188" y="76"/>
			<point x="204" y="96" type="curve" smooth="yes"/>
			<point x="295" y="206" type="line"/>
			<point x="388" y="97" type="line" smooth="yes"/>
			<point x="411" y="70"/>
			<point x="408" y="56"/>
			<point x="380" y="55" type="curve" smooth="yes"/>
			<point x="330" y="53" type="line"/>
			<point x="330" y="0" type="line"/>
			<point x="612" y="0" type="line"/>
			<point x="612" y="53" type="line"/>
			<point x="577" y="54" type="line" smooth="yes"/>
			<point x="542" y="55"/>
			<point x="522" y="70"/>
			<point x="495" y="104" type="curve" smooth="yes"/>
			<point x="359" y="265" type="line"/>
			<point x="484" y="418" type="line" smooth="yes"/>
			<point x="514" y="455"/>
			<point x="523" y="460"/>
			<point x="550" y="464" type="curve" smooth="yes"/>
			<point x="592" y="470" type="line"/>
			<point x="592" y="519" type="line"/>
			<point x="364" y="519" type="line"/>
			<point x="353" y="470" type="line"/>
			<point x="396" y="463" type="line" smooth="yes"/>
			<point x="435" y="457"/>
			<point x="423" y="441"/>
			<point x="405" y="419" type="curve" smooth="yes"/>
			<point x="320" y="313" type="line"/>
			<point x="228" y="423" type="line" smooth="yes"/>
			<point x="205" y="451"/>
			<point x="211" y="464"/>
			<point x="235" y="466" type="curve" smooth="yes"/>
			<point x="279" y="470" type="line"/>
			<point x="279" y="519" type="line"/>
			<point x="26" y="519" type="line"/>
			<point x="15" y="470" type="line"/>
			<point x="53" y="465" type="line" smooth="yes"/>
			<point x="88" y="460"/>
			<point x="95" y="445"/>
			<point x="120" y="415" type="curve" smooth="yes"/>
			<point x="256" y="252" type="line"/>
			<point x="114" y="88" type="line"/>
			<point x="90" y="63"/>
			<point x="78" y="57"/>
			<point x="50" y="55" type="curve" smooth="yes"/>
			<point x="14" y="53" type="line"/>
		</contour>
	</outline>
</glyph>
<glyph name="y" format="2">
	<unicode hex="0079"/>
	<advance width="631"/>
	<outline>
		<contour>
			<point x="127" y="-230" type="curve" smooth="yes"/>
			<point x="216" y="-230"/>
			<point x="264" y="-182"/>
			<point x="322" y="-54" type="curve" smooth="yes"/>
			<point x="532" y="410" type="line" smooth="yes"/>
			<point x="552" y="454"/>
			<point x="559" y="462"/>
			<point x="583" y="464" type="curve" smooth="yes"/>
			<point x="626" y="467" type="line"/>
			<point x="626" y="519" type="line"/>
			<point x="400" y="519" type="line"/>
			<point x="392" y="468" type="line"/>
			<point x="437" y="463" type="line" smooth="yes"/>
			<point x="469" y="459"/>
			<point x="475" y="442"/>
			<point x="461" y="409" type="curve" smooth="yes"/>
			<point x="338" y="124" type="line"/>
			<point x="333" y="124" type="line"/>
			<point x="211" y="416" type="line" smooth="yes"/>
			<point x="194" y="457"/>
			<point x="209" y="465"/>
			<point x="231" y="466" type="curve" smooth="yes"/>
			<point x="283" y="468" type="line"/>
			<point x="283" y="519" type="line"/>
			<point x="26" y="519" type="line"/>
			<point x="15" y="465" type="line"/>
			<point x="59" y="462" type="line" smooth="yes"/>
			<point x="82" y="460"/>
			<point x="87" y="451"/>
			<point x="105" y="411" type="curve" smooth="yes"/>
			<point x="282" y="11" type="line"/>
			<point x="255" y="-46" type="line" smooth="yes"/>
			<point x="206" y="-149"/>
			<point x="182" y="-175"/>
			<point x="138" y="-173" type="curve"/>
			<point x="143" y="-135"/>
			<point x="143" y="-127"/>
			<point x="142" y="-118" type="curve" smooth="yes"/>
			<point x="140" y="-96"/>
			<point x="117" y="-83"/>
			<point x="85" y="-83" type="curve" smooth="yes"/>
			<point x="47" y="-83"/>
			<point x="17" y="-112"/>
			<point x="17" y="-150" type="curve" smooth="yes"/>
			<point x="17" y="-199"/>
			<point x="60" y="-230"/>
		</contour>
	</outline>
	<anchor name="bottom" x="443" y="-30"/>
	<anchor name="top" x="336" y="550"/>
</glyph>
<glyph name="cent" format="2">
	<unicode hex="00A2"/>
	<advance width="584"/>
	<outline>
		<contour>
			<point x="189" y="-32" type="line"/>
			<point x="247" y="-32" type="line"/>
			<point x="393" y="655" type="line"/>
			<point x="335" y="655" type="line"/>
		</contour>
		<contour>
			<point x="311" y="36" type="curve" smooth="yes"/>
			<point x="397" y="36"/>
			<point x="471" y="76"/>
			<point x="516" y="134" type="curve"/>
			<point x="479" y="174" type="line"/>
			<point x="443" y="143"/>
			<point x="396" y="115"/>
			<point x="331" y="115" type="curve" smooth="yes"/>
			<point x="231" y="115"/>
			<point x="160" y="175"/>
			<point x="160" y="328" type="curve" smooth="yes"/>
			<point x="160" y="466"/>
			<point x="227" y="521"/>
			<point x="315" y="521" type="curve" smooth="yes"/>
			<point x="356" y="521"/>
			<point x="387" y="511"/>
			<point x="410" y="495" type="curve"/>
			<point x="393" y="462"/>
			<point x="385" y="444"/>
			<point x="385" y="428" type="curve" smooth="yes"/>
			<point x="385" y="399"/>
			<point x="406" y="379"/>
			<point x="446" y="379" type="curve" smooth="yes"/>
			<point x="485" y="379"/>
			<point x="512" y="406"/>
			<point x="512" y="446" type="curve" smooth="yes"/>
			<point x="512" y="525"/>
			<point x="428" y="583"/>
			<point x="316" y="583" type="curve" smooth="yes"/>
			<point x="163" y="583"/>
			<point x="62" y="474"/>
			<point x="62" y="303" type="curve" smooth="yes"/>
			<point x="62" y="134"/>
			<point x="156" y="36"/>
		</contour>
	</outline>
	<anchor name="bottom" x="308" y="20"/>
	<anchor name="top" x="309" y="600"/>
</glyph>
<glyph name="yen" format="2">
	<unicode hex="00A5"/>
	<advance width="784"/>
	<outline>
		<contour>
			<point x="238" y="0" type="line"/>
			<point x="538" y="0" type="line"/>
			<point x="538" y="53" type="line"/>
			<point x="472" y="57" type="line" smooth="yes"/>
			<point x="444" y="59"/>
			<point x="437" y="70"/>
			<point x="437" y="104" type="curve" smooth="yes"/>
			<point x="437" y="202" type="line"/>
			<point x="652" y="202" type="line"/>
			<point x="652" y="259" type="line"/>
			<point x="437" y="259" type="line"/>
			<point x="437" y="284" type="line"/>
			<point x="468" y="331" type="line"/>
			<point x="652" y="331" type="line"/>
			<point x="652" y="390" type="line"/>
			<point x="507" y="390" type="line"/>
			<point x="637" y="589" type="line" smooth="yes"/>
			<point x="661" y="626"/>
			<point x="675" y="645"/>
			<point x="698" y="645" type="curve" smooth="yes"/>
			<point x="753" y="647" type="line"/>
			<point x="753" y="700" type="line"/>
			<point x="492" y="700" type="line"/>
			<point x="492" y="647" type="line"/>
			<point x="541" y="641" type="line" smooth="yes"/>
			<point x="582" y="636"/>
			<point x="574" y="613"/>
			<point x="560" y="590" type="curve" smooth="yes"/>
			<point x="410" y="358" type="line"/>
			<point x="405" y="358" type="line"/>
			<point x="247" y="595" type="line" smooth="yes"/>
			<point x="226" y="626"/>
			<point x="237" y="644"/>
			<point x="268" y="645" type="curve" smooth="yes"/>
			<point x="328" y="647" type="line"/>
			<point x="328" y="700" type="line"/>
			<point x="31" y="700" type="line"/>
			<point x="31" y="647" type="line"/>
			<point x="71" y="641" type="line" smooth="yes"/>
			<point x="106" y="636"/>
			<point x="117" y="618"/>
			<point x="136" y="591" type="curve" smooth="yes"/>
			<point x="270" y="390" type="line"/>
			<point x="136" y="390" type="line"/>
			<point x="131" y="333" type="line"/>
			<point x="309" y="333" type="line"/>
			<point x="338" y="289" type="line"/>
			<point x="338" y="259" type="line"/>
			<point x="133" y="259" type="line"/>
			<point x="128" y="202" type="line"/>
			<point x="338" y="202" type="line"/>
			<point x="338" y="108" type="line" smooth="yes"/>
			<point x="338" y="65"/>
			<point x="327" y="58"/>
			<point x="305" y="57" type="curve" smooth="yes"/>
			<point x="238" y="53" type="line"/>
		</contour>
	</outline>
	<anchor name="bottom" x="386" y="-30"/>
	<anchor name="top" x="404" y="730"/>
</glyph>
<glyph name="copyright" format="2">
	<unicode hex="00A9"/>
	<advance width="867"/>
	<outline>
		<contour>
			<point x="433" y="-20" type="curve" smooth="yes"/>
			<point x="652" y="-20"/>
			<point x="796" y="113"/>
			<point x="796" y="325" type="curve" smooth="yes"/>
			<point x="796" y="531"/>
			<point x="653" y="655"/>
			<point x="435" y="655" type="curve" smooth="yes"/>
			<point x="238" y="655"/>
			<point x="71" y="532"/>
			<point x="71" y="311" type="curve" smooth="yes"/>
			<point x="71" y="118"/>
			<point x="191" y="-20"/>
		</contour>
		<contour>
			<point x="436" y="33" type="curve" smooth="yes"/>
			<point x="250" y="33"/>
			<point x="136" y="137"/>
			<point x="136" y="312" type="curve" smooth="yes"/>
			<point x="136" y="497"/>
			<point x="264" y="602"/>
			<point x="435" y="602" type="curve" smooth="yes"/>
			<point x="608" y="602"/>
			<point x="730" y="505"/>
			<point x="730" y="319" type="curve" smooth="yes"/>
			<point x="730" y="142"/>
			<point x="621" y="33"/>
		</contour>
		<contour>
			<point x="438" y="100" type="curve" smooth="yes"/>
			<point x="521" y="100"/>
			<point x="566" y="138"/>
			<point x="603" y="183" type="curve"/>
			<point x="572" y="212" type="line"/>
			<point x="534" y="173"/>
			<point x="506" y="152"/>
			<point x="447" y="152" type="curve" smooth="yes"/>
			<point x="372" y="152"/>
			<point x="322" y="223"/>
			<point x="322" y="314" type="curve" smooth="yes"/>
			<point x="322" y="423"/>
			<point x="371" y="480"/>
			<point x="437" y="480" type="curve" smooth="yes"/>
			<point x="490" y="480"/>
			<point x="529" y="458"/>
			<point x="554" y="385" type="curve"/>
			<point x="595" y="392" type="line"/>
			<point x="570" y="530" type="line"/>
			<point x="535" y="530" type="line"/>
			<point x="530" y="498" type="line"/>
			<point x="515" y="510"/>
			<point x="477" y="529"/>
			<point x="437" y="529" type="curve" smooth="yes"/>
			<point x="322" y="529"/>
			<point x="234" y="452"/>
			<point x="234" y="313" type="curve" smooth="yes"/>
			<point x="234" y="200"/>
			<point x="302" y="100"/>
		</contour>
	</outline>
</glyph>
<glyph name="logicalnot" format="2">
	<unicode hex="00AC"/>
	<advance width="620"/>
	<outline>
		<contour>
			<point x="447" y="149" type="line"/>
			<point x="524" y="149" type="line"/>
			<point x="524" y="372" type="line"/>
			<point x="96" y="372" type="line"/>
			<point x="96" y="299" type="line"/>
			<point x="447" y="299" type="line"/>
		</contour>
	</outline>
</glyph>
<glyph name="softhyphen" format="2">
	<unicode hex="00AD"/>
	<advance width="375"/>
	<outline>
		<contour>
			<point x="54" y="247" type="line"/>
			<point x="321" y="247" type="line"/>
			<point x="321" y="329" type="line"/>
			<point x="54" y="329" type="line"/>
		</contour>
	</outline>
</glyph>
<glyph name="degree" format="2">
	<unicode hex="00B0"/>
	<advance width="359"/>
	<outline>
		<contour>
			<point x="179" y="547" type="curve" smooth="yes"/>
			<point x="264" y="547"/>
			<point x="309" y="601"/>
			<point x="309" y="667" type="curve" smooth="yes"/>
			<point x="309" y="735"/>
			<point x="266" y="782"/>
			<point x="182" y="782" type="curve" smooth="yes"/>
			<point x="94" y="782"/>
			<point x="50" y="727"/>
			<point x="50" y="665" type="curve" smooth="yes"/>
			<point x="50" y="598"/>
			<point x="90" y="547"/>
		</contour>
		<contour>
			<point x="181" y="598" type="curve" smooth="yes"/>
			<point x="130" y="598"/>
			<point x="108" y="627"/>
			<point x="108" y="665" type="curve" smooth="yes"/>
			<point x="108" y="704"/>
			<point x="133" y="732"/>
			<point x="178" y="732" type="curve" smooth="yes"/>
			<point x="225" y="732"/>
			<point x="252" y="706"/>
			<point x="252" y="665" type="curve" smooth="yes"/>
			<point x="252" y="627"/>
			<point x="226" y="598"/>
		</contour>
	</outline>
</glyph>
<glyph name="plusminus" format="2">
	<unicode hex="00B1"/>
	<advance width="620"/>
	<outline>
		<contour>
			<point x="268" y="141" type="line"/>
			<point x="345" y="141" type="line"/>
			<point x="345" y="301" type="line"/>
			<point x="524" y="301" type="line"/>
			<point x="524" y="374" type="line"/>
			<point x="345" y="374" type="line"/>
			<point x="345" y="521" type="line"/>
			<point x="268" y="521" type="line"/>
			<point x="268" y="374" type="line"/>
			<point x="96" y="374" type="line"/>
			<point x="96" y="301" type="line"/>
			<point x="268" y="301" type="line"/>
		</contour>
		<contour>
			<point x="96" y="1" type="line"/>
			<point x="524" y="1" type="line"/>
			<point x="524" y="74" type="line"/>
			<point x="96" y="74" type="line"/>
		</contour>
	</outline>
</glyph>
<glyph name="twosuperior" format="2">
	<unicode hex="00B2"/>
	<advance width="417"/>
	<outline>
		<contour>
			<point x="45" y="374" type="line"/>
			<point x="364" y="374" type="line"/>
			<point x="377" y="519" type="line"/>
			<point x="332" y="519" type="line"/>
			<point x="305" y="455"/>
			<point x="300" y="442"/>
			<point x="238" y="442" type="curve" smooth="yes"/>
			<point x="139" y="442" type="line"/>
			<point x="328" y="588"/>
			<point x="366" y="646"/>
			<point x="366" y="711" type="curve" smooth="yes"/>
			<point x="366" y="794"/>
			<point x="298" y="839"/>
			<point x="190" y="839" type="curve" smooth="yes"/>
			<point x="101" y="839"/>
			<point x="30" y="799"/>
			<point x="30" y="741" type="curve" smooth="yes"/>
			<point x="30" y="713"/>
			<point x="46" y="689"/>
			<point x="84" y="689" type="curve" smooth="yes"/>
			<point x="114" y="689"/>
			<point x="129" y="709"/>
			<point x="129" y="727" type="curve" smooth="yes"/>
			<point x="129" y="734"/>
			<point x="122" y="746"/>
			<point x="109" y="766" type="curve"/>
			<point x="126" y="776"/>
			<point x="143" y="785"/>
			<point x="182" y="785" type="curve" smooth="yes"/>
			<point x="247" y="785"/>
			<point x="279" y="753"/>
			<point x="279" y="708" type="curve" smooth="yes"/>
			<point x="279" y="642"/>
			<point x="238" y="596"/>
			<point x="39" y="420" type="curve"/>
		</contour>
	</outline>
</glyph>
<glyph name="threesuperior" format="2">
	<unicode hex="00B3"/>
	<advance width="421"/>
	<outline>
		<contour>
			<point x="202" y="362" type="curve" smooth="yes"/>
			<point x="293" y="362"/>
			<point x="376" y="415"/>
			<point x="376" y="498" type="curve" smooth="yes"/>
			<point x="376" y="569"/>
			<point x="326" y="603"/>
			<point x="261" y="612" type="curve"/>
			<point x="261" y="614" type="line"/>
			<point x="316" y="627"/>
			<point x="358" y="671"/>
			<point x="358" y="723" type="curve" smooth="yes"/>
			<point x="358" y="794"/>
			<point x="291" y="839"/>
			<point x="199" y="839" type="curve" smooth="yes"/>
			<point x="102" y="839"/>
			<point x="39" y="791"/>
			<point x="39" y="740" type="curve" smooth="yes"/>
			<point x="39" y="712"/>
			<point x="56" y="690"/>
			<point x="92" y="690" type="curve" smooth="yes"/>
			<point x="121" y="690"/>
			<point x="136" y="708"/>
			<point x="136" y="728" type="curve" smooth="yes"/>
			<point x="136" y="735"/>
			<point x="130" y="746"/>
			<point x="117" y="764" type="curve"/>
			<point x="135" y="777"/>
			<point x="154" y="785"/>
			<point x="191" y="785" type="curve" smooth="yes"/>
			<point x="246" y="785"/>
			<point x="276" y="758"/>
			<point x="276" y="721" type="curve" smooth="yes"/>
			<point x="276" y="675"/>
			<point x="242" y="638"/>
			<point x="162" y="631" type="curve"/>
			<point x="158" y="580" type="line"/>
			<point x="246" y="583"/>
			<point x="286" y="560"/>
			<point x="286" y="500" type="curve" smooth="yes"/>
			<point x="286" y="455"/>
			<point x="254" y="423"/>
			<point x="187" y="423" type="curve" smooth="yes"/>
			<point x="124" y="423"/>
			<point x="90" y="456"/>
			<point x="67" y="483" type="curve"/>
			<point x="25" y="448" type="line"/>
			<point x="42" y="418"/>
			<point x="85" y="362"/>
		</contour>
	</outline>
</glyph>
<glyph name="acute" format="2">
	<unicode hex="00B4"/>
	<advance width="500"/>
	<outline>
		<contour>
			<point x="212" y="591" type="line"/>
			<point x="344" y="678" type="line" smooth="yes"/>
			<point x="367" y="693"/>
			<point x="379" y="709"/>
			<point x="379" y="731" type="curve" smooth="yes"/>
			<point x="379" y="756"/>
			<point x="361" y="782"/>
			<point x="332" y="782" type="curve" smooth="yes"/>
			<point x="317" y="782"/>
			<point x="306" y="773"/>
			<point x="290" y="753" type="curve" smooth="yes"/>
			<point x="183" y="621" type="line"/>
		</contour>
	</outline>
	<anchor name="_top" x="250" y="550"/>
</glyph>
<glyph name="paragraph" format="2">
	<unicode hex="00B6"/>
	<advance width="631"/>
	<outline>
		<contour>
			<point x="277" y="-144" type="line"/>
			<point x="488" y="-144" type="line"/>
			<point x="488" y="592" type="line" smooth="yes"/>
			<point x="488" y="624"/>
			<point x="496" y="640"/>
			<point x="523" y="642" type="curve" smooth="yes"/>
			<point x="577" y="646" type="line"/>
			<point x="577" y="700" type="line"/>
			<point x="398" y="700" type="line"/>
			<point x="398" y="-37" type="line" smooth="yes"/>
			<point x="398" y="-71"/>
			<point x="389" y="-84"/>
			<point x="363" y="-86" type="curve" smooth="yes"/>
			<point x="277" y="-91" type="line"/>
		</contour>
		<contour>
			<point x="314" y="238" type="curve" smooth="yes"/>
			<point x="329" y="238" type="line"/>
			<point x="329" y="700" type="line"/>
			<point x="318" y="700" type="line" smooth="yes"/>
			<point x="163" y="700"/>
			<point x="84" y="615"/>
			<point x="84" y="468" type="curve" smooth="yes"/>
			<point x="84" y="322"/>
			<point x="171" y="238"/>
		</contour>
	</outline>
</glyph>
<glyph name="cedilla" format="2">
	<unicode hex="00B8"/>
	<advance width="500"/>
	<outline>
		<contour>
			<point x="242" y="-229" type="curve" smooth="yes"/>
			<point x="322" y="-229"/>
			<point x="359" y="-189"/>
			<point x="359" y="-133" type="curve" smooth="yes"/>
			<point x="359" y="-76"/>
			<point x="319" y="-49"/>
			<point x="253" y="-53" type="curve"/>
			<point x="280" y="13" type="line"/>
			<point x="229" y="13" type="line"/>
			<point x="194" y="-75" type="line"/>
			<point x="202" y="-98" type="line"/>
			<point x="211" y="-96"/>
			<point x="219" y="-95"/>
			<point x="232" y="-95" type="curve" smooth="yes"/>
			<point x="269" y="-95"/>
			<point x="287" y="-104"/>
			<point x="287" y="-131" type="curve" smooth="yes"/>
			<point x="287" y="-161"/>
			<point x="260" y="-172"/>
			<point x="234" y="-172" type="curve" smooth="yes"/>
			<point x="212" y="-172"/>
			<point x="180" y="-160"/>
			<point x="163" y="-148" type="curve"/>
			<point x="137" y="-193" type="line"/>
			<point x="151" y="-206"/>
			<point x="188" y="-229"/>
		</contour>
	</outline>
	<anchor name="_bottom" x="250" y="-30"/>
</glyph>
<glyph name="onesuperior" format="2">
	<unicode hex="00B9"/>
	<advance width="329"/>
	<outline>
		<contour>
			<point x="49" y="374" type="line"/>
			<point x="309" y="374" type="line"/>
			<point x="309" y="417" type="line"/>
			<point x="247" y="423" type="line" smooth="yes"/>
			<point x="226" y="425"/>
			<point x="222" y="433"/>
			<point x="222" y="453" type="curve" smooth="yes"/>
			<point x="222" y="829" type="line"/>
			<point x="214" y="836" type="line"/>
			<point x="51" y="813" type="line"/>
			<point x="46" y="773" type="line"/>
			<point x="107" y="771" type="line" smooth="yes"/>
			<point x="136" y="770"/>
			<point x="138" y="757"/>
			<point x="138" y="729" type="curve" smooth="yes"/>
			<point x="138" y="455" type="line" smooth="yes"/>
			<point x="138" y="436"/>
			<point x="134" y="425"/>
			<point x="114" y="423" type="curve" smooth="yes"/>
			<point x="49" y="417" type="line"/>
		</contour>
	</outline>
</glyph>
<glyph name="ordmasculine" format="2">
	<unicode hex="00BA"/>
	<advance width="441"/>
	<outline>
		<contour>
			<point x="217" y="362" type="curve" smooth="yes"/>
			<point x="329" y="362"/>
			<point x="404" y="432"/>
			<point x="404" y="562" type="curve" smooth="yes"/>
			<point x="404" y="683"/>
			<point x="331" y="742"/>
			<point x="228" y="742" type="curve" smooth="yes"/>
			<point x="125" y="742"/>
			<point x="37" y="688"/>
			<point x="37" y="544" type="curve" smooth="yes"/>
			<point x="37" y="439"/>
			<point x="95" y="362"/>
		</contour>
		<contour>
			<point x="228" y="415" type="curve" smooth="yes"/>
			<point x="152" y="415"/>
			<point x="116" y="474"/>
			<point x="116" y="566" type="curve" smooth="yes"/>
			<point x="116" y="652"/>
			<point x="154" y="691"/>
			<point x="216" y="691" type="curve" smooth="yes"/>
			<point x="285" y="691"/>
			<point x="324" y="634"/>
			<point x="324" y="545" type="curve" smooth="yes"/>
			<point x="324" y="463"/>
			<point x="292" y="415"/>
		</contour>
	</outline>
</glyph>
<glyph name="Thorn" format="2">
	<unicode hex="00DE"/>
	<advance width="657"/>
	<outline>
		<contour>
			<point x="69" y="0" type="line"/>
			<point x="395" y="0" type="line"/>
			<point x="395" y="52" type="line"/>
			<point x="309" y="56" type="line" smooth="yes"/>
			<point x="278" y="57"/>
			<point x="269" y="71"/>
			<point x="269" y="106" type="curve" smooth="yes"/>
			<point x="269" y="159" type="line"/>
			<point x="285" y="156"/>
			<point x="316" y="154"/>
			<point x="354" y="154" type="curve" smooth="yes"/>
			<point x="521" y="154"/>
			<point x="621" y="237"/>
			<point x="621" y="363" type="curve" smooth="yes"/>
			<point x="621" y="492"/>
			<point x="531" y="550"/>
			<point x="334" y="550" type="curve" smooth="yes"/>
			<point x="269" y="550" type="line"/>
			<point x="269" y="593" type="line" smooth="yes"/>
			<point x="269" y="631"/>
			<point x="280" y="643"/>
			<point x="309" y="644" type="curve" smooth="yes"/>
			<point x="395" y="648" type="line"/>
			<point x="395" y="700" type="line"/>
			<point x="69" y="700" type="line"/>
			<point x="69" y="647" type="line"/>
			<point x="135" y="643" type="line" smooth="yes"/>
			<point x="168" y="641"/>
			<point x="171" y="624"/>
			<point x="171" y="596" type="curve" smooth="yes"/>
			<point x="171" y="108" type="line" smooth="yes"/>
			<point x="171" y="66"/>
			<point x="160" y="58"/>
			<point x="137" y="57" type="curve" smooth="yes"/>
			<point x="69" y="53" type="line"/>
		</contour>
		<contour>
			<point x="269" y="217" type="curve"/>
			<point x="269" y="492" type="line"/>
			<point x="328" y="492" type="line" smooth="yes"/>
			<point x="444" y="492"/>
			<point x="511" y="465"/>
			<point x="511" y="360" type="curve" smooth="yes"/>
			<point x="511" y="260"/>
			<point x="454" y="212"/>
			<point x="334" y="212" type="curve" smooth="yes"/>
			<point x="308" y="212"/>
			<point x="285" y="214"/>
		</contour>
	</outline>
</glyph>
<glyph name="ae" format="2">
	<unicode hex="00E6"/>
	<advance width="884"/>
	<outline>
		<contour>
			<point x="215" y="-14" type="curve" smooth="yes"/>
			<point x="315" y="-14"/>
			<point x="370" y="22"/>
			<point x="414" y="90" type="curve"/>
			<point x="457" y="21"/>
			<point x="528" y="-14"/>
			<point x="626" y="-14" type="curve" smooth="yes"/>
			<point x="706" y="-14"/>
			<point x="785" y="24"/>
			<point x="834" y="85" type="curve"/>
			<point x="797" y="124" type="line"/>
			<point x="757" y="87"/>
			<point x="703" y="65"/>
			<point x="649" y="65" type="curve" smooth="yes"/>
			<point x="535" y="65"/>
			<point x="474" y="128"/>
			<point x="471" y="247" type="curve"/>
			<point x="816" y="247" type="line"/>
			<point x="822" y="283"/>
			<point x="824" y="314"/>
			<point x="824" y="349" type="curve" smooth="yes"/>
			<point x="824" y="462"/>
			<point x="747" y="533"/>
			<point x="628" y="533" type="curve" smooth="yes"/>
			<point x="552" y="533"/>
			<point x="488" y="504"/>
			<point x="446" y="455" type="curve"/>
			<point x="413" y="506"/>
			<point x="356" y="533"/>
			<point x="270" y="533" type="curve" smooth="yes"/>
			<point x="162" y="533"/>
			<point x="67" y="471"/>
			<point x="67" y="401" type="curve" smooth="yes"/>
			<point x="67" y="359"/>
			<point x="90" y="340"/>
			<point x="130" y="340" type="curve" smooth="yes"/>
			<point x="162" y="340"/>
			<point x="190" y="360"/>
			<point x="190" y="389" type="curve" smooth="yes"/>
			<point x="190" y="399"/>
			<point x="182" y="418"/>
			<point x="162" y="448" type="curve"/>
			<point x="178" y="464"/>
			<point x="217" y="475"/>
			<point x="255" y="475" type="curve" smooth="yes"/>
			<point x="349" y="475"/>
			<point x="378" y="433"/>
			<point x="378" y="364" type="curve" smooth="yes"/>
			<point x="378" y="293" type="line"/>
			<point x="323" y="291"/>
			<point x="273" y="286"/>
			<point x="239" y="280" type="curve" smooth="yes"/>
			<point x="110" y="258"/>
			<point x="65" y="212"/>
			<point x="65" y="124" type="curve" smooth="yes"/>
			<point x="65" y="41"/>
			<point x="126" y="-14"/>
		</contour>
		<contour>
			<point x="254" y="60" type="curve" smooth="yes"/>
			<point x="199" y="60"/>
			<point x="164" y="87"/>
			<point x="164" y="137" type="curve" smooth="yes"/>
			<point x="164" y="183"/>
			<point x="194" y="210"/>
			<point x="261" y="223" type="curve" smooth="yes"/>
			<point x="292" y="229"/>
			<point x="331" y="232"/>
			<point x="378" y="232" type="curve"/>
			<point x="378" y="164" type="line" smooth="yes"/>
			<point x="378" y="107"/>
			<point x="322" y="60"/>
		</contour>
		<contour>
			<point x="471" y="310" type="line"/>
			<point x="484" y="416"/>
			<point x="535" y="468"/>
			<point x="618" y="468" type="curve" smooth="yes"/>
			<point x="691" y="468"/>
			<point x="730" y="426"/>
			<point x="730" y="353" type="curve" smooth="yes"/>
			<point x="730" y="337"/>
			<point x="729" y="323"/>
			<point x="727" y="310" type="curve"/>
		</contour>
	</outline>
	<anchor name="bottom" x="414" y="-30"/>
	<anchor name="top" x="441" y="550"/>
</glyph>
<glyph name="oslash" format="2">
	<unicode hex="00F8"/>
	<advance width="643"/>
	<outline>
		<contour>
			<point x="38" y="-14" type="line"/>
			<point x="122" y="-14" type="line"/>
			<point x="161" y="29" type="line"/>
			<point x="201" y="1"/>
			<point x="252" y="-14"/>
			<point x="313" y="-14" type="curve" smooth="yes"/>
			<point x="485" y="-14"/>
			<point x="585" y="93"/>
			<point x="585" y="271" type="curve" smooth="yes"/>
			<point x="585" y="339"/>
			<point x="568" y="396"/>
			<point x="536" y="439" type="curve"/>
			<point x="611" y="521" type="line"/>
			<point x="527" y="521" type="line"/>
			<point x="493" y="483" type="line"/>
			<point x="450" y="516"/>
			<point x="394" y="533"/>
			<point x="328" y="533" type="curve" smooth="yes"/>
			<point x="165" y="533"/>
			<point x="62" y="423"/>
			<point x="62" y="246" type="curve" smooth="yes"/>
			<point x="62" y="174"/>
			<point x="81" y="115"/>
			<point x="116" y="71" type="curve"/>
		</contour>
		<contour>
			<point x="329" y="51" type="curve" smooth="yes"/>
			<point x="285" y="51"/>
			<point x="248" y="66"/>
			<point x="220" y="93" type="curve"/>
			<point x="466" y="362" type="line"/>
			<point x="479" y="330"/>
			<point x="486" y="290"/>
			<point x="486" y="244" type="curve" smooth="yes"/>
			<point x="486" y="117"/>
			<point x="429" y="51"/>
		</contour>
		<contour>
			<point x="184" y="146" type="line"/>
			<point x="169" y="179"/>
			<point x="161" y="220"/>
			<point x="161" y="269" type="curve" smooth="yes"/>
			<point x="161" y="398"/>
			<point x="217" y="467"/>
			<point x="312" y="467" type="curve" smooth="yes"/>
			<point x="361" y="467"/>
			<point x="402" y="450"/>
			<point x="432" y="417" type="curve"/>
		</contour>
	</outline>
	<anchor name="bottom" x="324" y="-30"/>
	<anchor name="top" x="320" y="550"/>
</glyph>
<glyph name="thorn" format="2">
	<unicode hex="00FE"/>
	<advance width="671"/>
	<outline>
		<contour>
			<point x="32" y="-216" type="line"/>
			<point x="319" y="-216" type="line"/>
			<point x="319" y="-163" type="line"/>
			<point x="248" y="-158" type="line" smooth="yes"/>
			<point x="222" y="-156"/>
			<point x="214" y="-140"/>
			<point x="214" y="-109" type="curve" smooth="yes"/>
			<point x="214" y="19" type="line"/>
			<point x="247" y="0"/>
			<point x="306" y="-14"/>
			<point x="360" y="-14" type="curve" smooth="yes"/>
			<point x="516" y="-14"/>
			<point x="611" y="90"/>
			<point x="611" y="277" type="curve" smooth="yes"/>
			<point x="611" y="439"/>
			<point x="530" y="533"/>
			<point x="400" y="533" type="curve" smooth="yes"/>
			<point x="314" y="533"/>
			<point x="258" y="502"/>
			<point x="216" y="443" type="curve"/>
			<point x="214" y="443" type="line"/>
			<point x="214" y="755" type="line"/>
			<point x="202" y="766" type="line"/>
			<point x="21" y="761" type="line"/>
			<point x="15" y="708" type="line"/>
			<point x="74" y="704" type="line" smooth="yes"/>
			<point x="115" y="701"/>
			<point x="121" y="690"/>
			<point x="121" y="644" type="curve" smooth="yes"/>
			<point x="121" y="-112" type="line" smooth="yes"/>
			<point x="121" y="-150"/>
			<point x="107" y="-158"/>
			<point x="89" y="-159" type="curve" smooth="yes"/>
			<point x="32" y="-162" type="line"/>
		</contour>
		<contour>
			<point x="355" y="55" type="curve" smooth="yes"/>
			<point x="301" y="55"/>
			<point x="242" y="71"/>
			<point x="214" y="95" type="curve"/>
			<point x="214" y="310" type="line" smooth="yes"/>
			<point x="214" y="401"/>
			<point x="275" y="457"/>
			<point x="372" y="457" type="curve" smooth="yes"/>
			<point x="465" y="457"/>
			<point x="512" y="391"/>
			<point x="512" y="263" type="curve" smooth="yes"/>
			<point x="512" y="129"/>
			<point x="453" y="55"/>
		</contour>
	</outline>
</glyph>
<glyph name="Iogonek" format="2">
	<unicode hex="012E"/>
	<advance width="440"/>
	<outline>
		<contour>
			<point x="213" y="-229" type="curve" smooth="yes"/>
			<point x="255" y="-229"/>
			<point x="295" y="-211"/>
			<point x="320" y="-194" type="curve"/>
			<point x="306" y="-152" type="line"/>
			<point x="292" y="-159"/>
			<point x="270" y="-165"/>
			<point x="251" y="-165" type="curve" smooth="yes"/>
			<point x="218" y="-165"/>
			<point x="206" y="-150"/>
			<point x="206" y="-123" type="curve" smooth="yes"/>
			<point x="206" y="-81"/>
			<point x="237" y="-46"/>
			<point x="296" y="0" type="curve"/>
			<point x="371" y="0" type="line"/>
			<point x="371" y="53" type="line"/>
			<point x="303" y="57" type="line" smooth="yes"/>
			<point x="273" y="59"/>
			<point x="269" y="74"/>
			<point x="269" y="104" type="curve" smooth="yes"/>
			<point x="269" y="592" type="line" smooth="yes"/>
			<point x="269" y="629"/>
			<point x="276" y="642"/>
			<point x="301" y="643" type="curve" smooth="yes"/>
			<point x="371" y="647" type="line"/>
			<point x="371" y="700" type="line"/>
			<point x="69" y="700" type="line"/>
			<point x="69" y="647" type="line"/>
			<point x="135" y="643" type="line" smooth="yes"/>
			<point x="168" y="641"/>
			<point x="171" y="624"/>
			<point x="171" y="596" type="curve" smooth="yes"/>
			<point x="171" y="108" type="line" smooth="yes"/>
			<point x="171" y="67"/>
			<point x="161" y="58"/>
			<point x="138" y="57" type="curve" smooth="yes"/>
			<point x="69" y="53" type="line"/>
			<point x="69" y="0" type="line"/>
			<point x="239" y="0" type="line"/>
			<point x="188" y="-32"/>
			<point x="119" y="-78"/>
			<point x="119" y="-145" type="curve" smooth="yes"/>
			<point x="119" y="-193"/>
			<point x="154" y="-229"/>
		</contour>
	</outline>
	<anchor name="bottom" x="216" y="-30"/>
	<anchor name="top" x="220" y="730"/>
</glyph>
<glyph name="iogonek" format="2">
	<unicode hex="012F"/>
	<advance width="372"/>
	<outline>
		<contour>
			<point x="188" y="-229" type="curve" smooth="yes"/>
			<point x="230" y="-229"/>
			<point x="270" y="-211"/>
			<point x="295" y="-194" type="curve"/>
			<point x="281" y="-152" type="line"/>
			<point x="267" y="-159"/>
			<point x="245" y="-165"/>
			<point x="226" y="-165" type="curve" smooth="yes"/>
			<point x="193" y="-165"/>
			<point x="181" y="-150"/>
			<point x="181" y="-123" type="curve" smooth="yes"/>
			<point x="181" y="-81"/>
			<point x="212" y="-46"/>
			<point x="271" y="0" type="curve"/>
			<point x="342" y="0" type="line"/>
			<point x="342" y="53" type="line"/>
			<point x="276" y="57" type="line" smooth="yes"/>
			<point x="243" y="59"/>
			<point x="241" y="78"/>
			<point x="241" y="104" type="curve" smooth="yes"/>
			<point x="241" y="519" type="line"/>
			<point x="228" y="526" type="line"/>
			<point x="57" y="516" type="line"/>
			<point x="49" y="462" type="line"/>
			<point x="109" y="458" type="line" smooth="yes"/>
			<point x="141" y="456"/>
			<point x="148" y="446"/>
			<point x="148" y="398" type="curve" smooth="yes"/>
			<point x="148" y="108" type="line" smooth="yes"/>
			<point x="148" y="70"/>
			<point x="142" y="59"/>
			<point x="114" y="57" type="curve" smooth="yes"/>
			<point x="47" y="53" type="line"/>
			<point x="47" y="0" type="line"/>
			<point x="214" y="0" type="line"/>
			<point x="163" y="-32"/>
			<point x="94" y="-78"/>
			<point x="94" y="-145" type="curve" smooth="yes"/>
			<point x="94" y="-193"/>
			<point x="129" y="-229"/>
		</contour>
		<contour>
			<point x="180" y="620" type="curve" smooth="yes"/>
			<point x="221" y="620"/>
			<point x="250" y="648"/>
			<point x="250" y="687" type="curve" smooth="yes"/>
			<point x="250" y="726"/>
			<point x="220" y="753"/>
			<point x="180" y="753" type="curve" smooth="yes"/>
			<point x="140" y="753"/>
			<point x="111" y="725"/>
			<point x="111" y="686" type="curve" smooth="yes"/>
			<point x="111" y="647"/>
			<point x="140" y="620"/>
		</contour>
	</outline>
	<anchor name="bottom" x="189" y="-30"/>
</glyph>
<glyph name="idotless" format="2">
	<unicode hex="0131"/>
	<advance width="372"/>
	<outline>
		<contour>
			<point x="47" y="0" type="line"/>
			<point x="342" y="0" type="line"/>
			<point x="342" y="53" type="line"/>
			<point x="276" y="57" type="line" smooth="yes"/>
			<point x="243" y="59"/>
			<point x="241" y="78"/>
			<point x="241" y="104" type="curve" smooth="yes"/>
			<point x="241" y="519" type="line"/>
			<point x="228" y="526" type="line"/>
			<point x="57" y="516" type="line"/>
			<point x="49" y="462" type="line"/>
			<point x="109" y="458" type="line" smooth="yes"/>
			<point x="141" y="456"/>
			<point x="148" y="446"/>
			<point x="148" y="398" type="curve" smooth="yes"/>
			<point x="148" y="108" type="line" smooth="yes"/>
			<point x="148" y="70"/>
			<point x="142" y="59"/>
			<point x="114" y="57" type="curve" smooth="yes"/>
			<point x="47" y="53" type="line"/>
		</contour>
	</outline>
	<anchor name="bottom" x="189" y="-30"/>
	<anchor name="top" x="154" y="550"/>
</glyph>
<glyph name="Lslash" format="2">
	<unicode hex="0141"/>
	<advance width="656"/>
	<outline>
		<contour>
			<point x="555" y="214" type="line"/>
			<point x="511" y="73"/>
			<point x="485" y="60"/>
			<point x="389" y="60" type="curve" smooth="yes"/>
			<point x="269" y="60" type="line"/>
			<point x="269" y="340" type="line"/>
			<point x="454" y="439" type="line"/>
			<point x="454" y="506" type="line"/>
			<point x="269" y="406" type="line"/>
			<point x="269" y="596" type="line" smooth="yes"/>
			<point x="269" y="630"/>
			<point x="276" y="640"/>
			<point x="304" y="642" type="curve" smooth="yes"/>
			<point x="377" y="647" type="line"/>
			<point x="377" y="700" type="line"/>
			<point x="69" y="700" type="line"/>
			<point x="69" y="647" type="line"/>
			<point x="135" y="643" type="line" smooth="yes"/>
			<point x="165" y="641"/>
			<point x="171" y="630"/>
			<point x="171" y="596" type="curve" smooth="yes"/>
			<point x="171" y="368" type="line"/>
			<point x="59" y="309" type="line"/>
			<point x="59" y="241" type="line"/>
			<point x="171" y="301" type="line"/>
			<point x="171" y="108" type="line" smooth="yes"/>
			<point x="171" y="66"/>
			<point x="160" y="58"/>
			<point x="137" y="57" type="curve" smooth="yes"/>
			<point x="69" y="53" type="line"/>
			<point x="69" y="0" type="line"/>
			<point x="588" y="0" type="line"/>
			<point x="611" y="214" type="line"/>
		</contour>
	</outline>
	<anchor name="bottom" x="354" y="-30"/>
	<anchor name="top" x="219" y="730"/>
</glyph>
<glyph name="lslash" format="2">
	<unicode hex="0142"/>
	<advance width="369"/>
	<outline>
		<contour>
			<point x="61" y="0" type="line"/>
			<point x="329" y="0" type="line"/>
			<point x="329" y="53" type="line"/>
			<point x="272" y="56" type="line" smooth="yes"/>
			<point x="243" y="58"/>
			<point x="239" y="70"/>
			<point x="239" y="101" type="curve" smooth="yes"/>
			<point x="239" y="389" type="line"/>
			<point x="349" y="448" type="line"/>
			<point x="349" y="519" type="line"/>
			<point x="239" y="459" type="line"/>
			<point x="239" y="755" type="line"/>
			<point x="227" y="766" type="line"/>
			<point x="46" y="761" type="line"/>
			<point x="40" y="708" type="line"/>
			<point x="99" y="704" type="line" smooth="yes"/>
			<point x="139" y="701"/>
			<point x="146" y="689"/>
			<point x="146" y="643" type="curve" smooth="yes"/>
			<point x="146" y="425" type="line"/>
			<point x="35" y="365" type="line"/>
			<point x="35" y="293" type="line"/>
			<point x="146" y="354" type="line"/>
			<point x="146" y="104" type="line" smooth="yes"/>
			<point x="146" y="66"/>
			<point x="139" y="59"/>
			<point x="114" y="57" type="curve" smooth="yes"/>
			<point x="61" y="53" type="line"/>
		</contour>
	</outline>
	<anchor name="bottom" x="191" y="-30"/>
	<anchor name="top" x="141" y="780"/>
</glyph>
<glyph name="Eng" format="2">
	<unicode hex="014A"/>
	<advance width="907"/>
	<outline>
		<contour>
			<point x="69" y="0" type="line"/>
			<point x="344" y="0" type="line"/>
			<point x="344" y="53" type="line"/>
			<point x="277" y="57" type="line" smooth="yes"/>
			<point x="242" y="59"/>
			<point x="242" y="79"/>
			<point x="242" y="104" type="curve" smooth="yes"/>
			<point x="242" y="604" type="line"/>
			<point x="247" y="604" type="line"/>
			<point x="644" y="1" type="line"/>
			<point x="644" y="0" type="line"/>
			<point x="641" y="-92"/>
			<point x="615" y="-146"/>
			<point x="552" y="-191" type="curve"/>
			<point x="578" y="-229" type="line"/>
			<point x="706" y="-166"/>
			<point x="743" y="-85"/>
			<point x="743" y="95" type="curve" smooth="yes"/>
			<point x="743" y="592" type="line" smooth="yes"/>
			<point x="743" y="629"/>
			<point x="750" y="641"/>
			<point x="777" y="643" type="curve" smooth="yes"/>
			<point x="843" y="647" type="line"/>
			<point x="843" y="700" type="line"/>
			<point x="571" y="700" type="line"/>
			<point x="571" y="647" type="line"/>
			<point x="635" y="643" type="line" smooth="yes"/>
			<point x="664" y="641"/>
			<point x="671" y="629"/>
			<point x="671" y="596" type="curve" smooth="yes"/>
			<point x="671" y="138" type="line"/>
			<point x="666" y="138" type="line"/>
			<point x="306" y="700" type="line"/>
			<point x="69" y="700" type="line"/>
			<point x="69" y="647" type="line"/>
			<point x="137" y="643" type="line" smooth="yes"/>
			<point x="165" y="641"/>
			<point x="171" y="630"/>
			<point x="171" y="596" type="curve" smooth="yes"/>
			<point x="171" y="108" type="line" smooth="yes"/>
			<point x="171" y="70"/>
			<point x="163" y="58"/>
			<point x="139" y="57" type="curve" smooth="yes"/>
			<point x="69" y="53" type="line"/>
		</contour>
	</outline>
	<anchor name="bottom" x="203" y="-30"/>
	<anchor name="top" x="446" y="730"/>
</glyph>
<glyph name="OE" format="2">
	<unicode hex="0152"/>
	<advance width="1175"/>
	<outline>
		<contour>
			<point x="412" y="-14" type="curve" smooth="yes"/>
			<point x="512" y="-14"/>
			<point x="599" y="16"/>
			<point x="660" y="93" type="curve"/>
			<point x="660" y="0" type="line"/>
			<point x="1092" y="0" type="line"/>
			<point x="1115" y="189" type="line"/>
			<point x="1059" y="189" type="line"/>
			<point x="1029" y="82"/>
			<point x="1000" y="60"/>
			<point x="898" y="60" type="curve" smooth="yes"/>
			<point x="758" y="60" type="line"/>
			<point x="758" y="326" type="line"/>
			<point x="850" y="326" type="line" smooth="yes"/>
			<point x="921" y="326"/>
			<point x="933" y="319"/>
			<point x="948" y="237" type="curve"/>
			<point x="996" y="245" type="line"/>
			<point x="996" y="475" type="line"/>
			<point x="948" y="469" type="line"/>
			<point x="928" y="393"/>
			<point x="924" y="386"/>
			<point x="852" y="386" type="curve" smooth="yes"/>
			<point x="758" y="386" type="line"/>
			<point x="758" y="640" type="line"/>
			<point x="867" y="640" type="line" smooth="yes"/>
			<point x="967" y="640"/>
			<point x="994" y="630"/>
			<point x="1039" y="515" type="curve"/>
			<point x="1093" y="532" type="line"/>
			<point x="1056" y="700" type="line"/>
			<point x="660" y="700" type="line"/>
			<point x="660" y="613" type="line"/>
			<point x="599" y="680"/>
			<point x="518" y="714"/>
			<point x="422" y="714" type="curve" smooth="yes"/>
			<point x="198" y="714"/>
			<point x="64" y="567"/>
			<point x="64" y="336" type="curve" smooth="yes"/>
			<point x="64" y="126"/>
			<point x="204" y="-14"/>
		</contour>
		<contour>
			<point x="425" y="57" type="curve" smooth="yes"/>
			<point x="272" y="57"/>
			<point x="174" y="165"/>
			<point x="174" y="356" type="curve" smooth="yes"/>
			<point x="174" y="543"/>
			<point x="259" y="644"/>
			<point x="408" y="644" type="curve" smooth="yes"/>
			<point x="564" y="644"/>
			<point x="660" y="541"/>
			<point x="660" y="348" type="curve" smooth="yes"/>
			<point x="660" y="155"/>
			<point x="577" y="57"/>
		</contour>
	</outline>
</glyph>
<glyph name="oe" format="2">
	<unicode hex="0153"/>
	<advance width="999"/>
	<outline>
		<contour>
			<point x="313" y="-14" type="curve" smooth="yes"/>
			<point x="411" y="-14"/>
			<point x="487" y="23"/>
			<point x="531" y="92" type="curve"/>
			<point x="576" y="22"/>
			<point x="649" y="-14"/>
			<point x="741" y="-14" type="curve" smooth="yes"/>
			<point x="821" y="-14"/>
			<point x="900" y="24"/>
			<point x="949" y="85" type="curve"/>
			<point x="912" y="124" type="line"/>
			<point x="872" y="87"/>
			<point x="818" y="65"/>
			<point x="764" y="65" type="curve" smooth="yes"/>
			<point x="658" y="65"/>
			<point x="589" y="126"/>
			<point x="585" y="247" type="curve"/>
			<point x="931" y="247" type="line"/>
			<point x="937" y="283"/>
			<point x="939" y="314"/>
			<point x="939" y="349" type="curve" smooth="yes"/>
			<point x="939" y="462"/>
			<point x="862" y="533"/>
			<point x="743" y="533" type="curve" smooth="yes"/>
			<point x="654" y="533"/>
			<point x="584" y="496"/>
			<point x="539" y="427" type="curve"/>
			<point x="495" y="490"/>
			<point x="422" y="533"/>
			<point x="328" y="533" type="curve" smooth="yes"/>
			<point x="165" y="533"/>
			<point x="62" y="423"/>
			<point x="62" y="246" type="curve" smooth="yes"/>
			<point x="62" y="85"/>
			<point x="157" y="-14"/>
		</contour>
		<contour>
			<point x="329" y="51" type="curve" smooth="yes"/>
			<point x="227" y="51"/>
			<point x="161" y="130"/>
			<point x="161" y="269" type="curve" smooth="yes"/>
			<point x="161" y="398"/>
			<point x="217" y="467"/>
			<point x="312" y="467" type="curve" smooth="yes"/>
			<point x="418" y="467"/>
			<point x="486" y="389"/>
			<point x="486" y="244" type="curve" smooth="yes"/>
			<point x="486" y="117"/>
			<point x="429" y="51"/>
		</contour>
		<contour>
			<point x="585" y="310" type="line"/>
			<point x="596" y="413"/>
			<point x="651" y="468"/>
			<point x="733" y="468" type="curve" smooth="yes"/>
			<point x="806" y="468"/>
			<point x="845" y="426"/>
			<point x="845" y="353" type="curve" smooth="yes"/>
			<point x="845" y="337"/>
			<point x="844" y="323"/>
			<point x="842" y="310" type="curve"/>
		</contour>
	</outline>
</glyph>
<glyph name="scedilla" format="2">
	<unicode hex="015F"/>
	<advance width="500"/>
	<outline>
		<contour>
			<point x="243" y="-229" type="curve" smooth="yes"/>
			<point x="323" y="-229"/>
			<point x="360" y="-189"/>
			<point x="360" y="-133" type="curve" smooth="yes"/>
			<point x="360" y="-76"/>
			<point x="320" y="-49"/>
			<point x="254" y="-53" type="curve"/>
			<point x="270" y="-14" type="line"/>
			<point x="374" y="-10"/>
			<point x="452" y="57"/>
			<point x="452" y="152" type="curve" smooth="yes"/>
			<point x="452" y="235"/>
			<point x="411" y="275"/>
			<point x="277" y="310" type="curve" smooth="yes"/>
			<point x="186" y="334"/>
			<point x="155" y="350"/>
			<point x="155" y="402" type="curve" smooth="yes"/>
			<point x="155" y="448"/>
			<point x="188" y="475"/>
			<point x="252" y="475" type="curve" smooth="yes"/>
			<point x="314" y="475"/>
			<point x="365" y="431"/>
			<point x="378" y="375" type="curve"/>
			<point x="438" y="370" type="line"/>
			<point x="428" y="533" type="line"/>
			<point x="377" y="533" type="line"/>
			<point x="369" y="499" type="line"/>
			<point x="343" y="519"/>
			<point x="293" y="533"/>
			<point x="250" y="533" type="curve" smooth="yes"/>
			<point x="145" y="533"/>
			<point x="67" y="474"/>
			<point x="67" y="378" type="curve" smooth="yes"/>
			<point x="67" y="296"/>
			<point x="110" y="254"/>
			<point x="239" y="224" type="curve" smooth="yes"/>
			<point x="340" y="200"/>
			<point x="365" y="177"/>
			<point x="365" y="130" type="curve" smooth="yes"/>
			<point x="365" y="82"/>
			<point x="326" y="50"/>
			<point x="263" y="50" type="curve" smooth="yes"/>
			<point x="192" y="50"/>
			<point x="140" y="90"/>
			<point x="112" y="162" type="curve"/>
			<point x="53" y="158" type="line"/>
			<point x="65" y="-14" type="line"/>
			<point x="114" y="-14" type="line"/>
			<point x="127" y="23" type="line"/>
			<point x="150" y="7"/>
			<point x="182" y="-6"/>
			<point x="220" y="-11" type="curve"/>
			<point x="195" y="-75" type="line"/>
			<point x="203" y="-98" type="line"/>
			<point x="212" y="-96"/>
			<point x="220" y="-95"/>
			<point x="233" y="-95" type="curve" smooth="yes"/>
			<point x="270" y="-95"/>
			<point x="288" y="-104"/>
			<point x="288" y="-131" type="curve" smooth="yes"/>
			<point x="288" y="-161"/>
			<point x="261" y="-172"/>
			<point x="235" y="-172" type="curve" smooth="yes"/>
			<point x="213" y="-172"/>
			<point x="181" y="-160"/>
			<point x="164" y="-148" type="curve"/>
			<point x="138" y="-193" type="line"/>
			<point x="152" y="-206"/>
			<point x="189" y="-229"/>
		</contour>
	</outline>
	<anchor name="bottom" x="251" y="-30"/>
	<anchor name="top" x="246" y="550"/>
</glyph>
<glyph name="Tcedilla" format="2">
	<unicode hex="0162"/>
	<advance width="778"/>
	<outline>
		<contour>
			<point x="379" y="-229" type="curve" smooth="yes"/>
			<point x="459" y="-229"/>
			<point x="496" y="-189"/>
			<point x="496" y="-133" type="curve" smooth="yes"/>
			<point x="496" y="-76"/>
			<point x="456" y="-49"/>
			<point x="390" y="-53" type="curve"/>
			<point x="412" y="0" type="line"/>
			<point x="563" y="0" type="line"/>
			<point x="563" y="53" type="line"/>
			<point x="475" y="60" type="line" smooth="yes"/>
			<point x="445" y="62"/>
			<point x="439" y="74"/>
			<point x="439" y="106" type="curve" smooth="yes"/>
			<point x="439" y="640" type="line"/>
			<point x="508" y="640" type="line" smooth="yes"/>
			<point x="598" y="640"/>
			<point x="622" y="633"/>
			<point x="674" y="487" type="curve"/>
			<point x="728" y="499" type="line"/>
			<point x="691" y="700" type="line"/>
			<point x="89" y="700" type="line"/>
			<point x="50" y="499" type="line"/>
			<point x="103" y="487" type="line"/>
			<point x="155" y="633"/>
			<point x="178" y="640"/>
			<point x="271" y="640" type="curve" smooth="yes"/>
			<point x="341" y="640" type="line"/>
			<point x="341" y="110" type="line" smooth="yes"/>
			<point x="341" y="77"/>
			<point x="333" y="62"/>
			<point x="305" y="60" type="curve" smooth="yes"/>
			<point x="217" y="53" type="line"/>
			<point x="217" y="0" type="line"/>
			<point x="361" y="0" type="line"/>
			<point x="331" y="-75" type="line"/>
			<point x="339" y="-98" type="line"/>
			<point x="348" y="-96"/>
			<point x="356" y="-95"/>
			<point x="369" y="-95" type="curve" smooth="yes"/>
			<point x="406" y="-95"/>
			<point x="424" y="-104"/>
			<point x="424" y="-131" type="curve" smooth="yes"/>
			<point x="424" y="-161"/>
			<point x="397" y="-172"/>
			<point x="371" y="-172" type="curve" smooth="yes"/>
			<point x="349" y="-172"/>
			<point x="317" y="-160"/>
			<point x="300" y="-148" type="curve"/>
			<point x="274" y="-193" type="line"/>
			<point x="288" y="-206"/>
			<point x="325" y="-229"/>
		</contour>
	</outline>
	<anchor name="bottom" x="387" y="-30"/>
	<anchor name="top" x="387" y="730"/>
</glyph>
<glyph name="tcedilla" format="2">
	<unicode hex="0163"/>
	<advance width="445"/>
	<outline>
		<contour>
			<point x="267" y="-229" type="curve" smooth="yes"/>
			<point x="347" y="-229"/>
			<point x="384" y="-189"/>
			<point x="384" y="-133" type="curve" smooth="yes"/>
			<point x="384" y="-76"/>
			<point x="344" y="-49"/>
			<point x="278" y="-53" type="curve"/>
			<point x="294" y="-13" type="line"/>
			<point x="341" y="-8"/>
			<point x="387" y="14"/>
			<point x="427" y="53" type="curve"/>
			<point x="398" y="95" type="line"/>
			<point x="366" y="72"/>
			<point x="338" y="59"/>
			<point x="300" y="59" type="curve" smooth="yes"/>
			<point x="249" y="59"/>
			<point x="224" y="86"/>
			<point x="224" y="142" type="curve" smooth="yes"/>
			<point x="224" y="456" type="line"/>
			<point x="394" y="456" type="line"/>
			<point x="394" y="519" type="line"/>
			<point x="224" y="519" type="line"/>
			<point x="224" y="674" type="line"/>
			<point x="210" y="680" type="line"/>
			<point x="164" y="674" type="line"/>
			<point x="154" y="552"/>
			<point x="129" y="514"/>
			<point x="45" y="508" type="curve"/>
			<point x="45" y="456" type="line"/>
			<point x="131" y="456" type="line"/>
			<point x="131" y="135" type="line" smooth="yes"/>
			<point x="131" y="52"/>
			<point x="163" y="-2"/>
			<point x="244" y="-12" type="curve"/>
			<point x="219" y="-75" type="line"/>
			<point x="227" y="-98" type="line"/>
			<point x="236" y="-96"/>
			<point x="244" y="-95"/>
			<point x="257" y="-95" type="curve" smooth="yes"/>
			<point x="294" y="-95"/>
			<point x="312" y="-104"/>
			<point x="312" y="-131" type="curve" smooth="yes"/>
			<point x="312" y="-161"/>
			<point x="285" y="-172"/>
			<point x="259" y="-172" type="curve" smooth="yes"/>
			<point x="237" y="-172"/>
			<point x="205" y="-160"/>
			<point x="188" y="-148" type="curve"/>
			<point x="162" y="-193" type="line"/>
			<point x="176" y="-206"/>
			<point x="213" y="-229"/>
		</contour>
	</outline>
	<anchor name="bottom" x="275" y="-30"/>
</glyph>
<glyph name="Uogonek" format="2">
	<unicode hex="0172"/>
	<advance width="890"/>
	<outline>
		<contour>
			<point x="482" y="-229" type="curve" smooth="yes"/>
			<point x="524" y="-229"/>
			<point x="564" y="-211"/>
			<point x="589" y="-194" type="curve"/>
			<point x="575" y="-152" type="line"/>
			<point x="561" y="-159"/>
			<point x="539" y="-165"/>
			<point x="520" y="-165" type="curve" smooth="yes"/>
			<point x="487" y="-165"/>
			<point x="475" y="-150"/>
			<point x="475" y="-123" type="curve" smooth="yes"/>
			<point x="475" y="-81"/>
			<point x="506" y="-41"/>
			<point x="576" y="7" type="curve"/>
			<point x="684" y="46"/>
			<point x="738" y="141"/>
			<point x="738" y="291" type="curve" smooth="yes"/>
			<point x="738" y="592" type="line" smooth="yes"/>
			<point x="738" y="632"/>
			<point x="749" y="642"/>
			<point x="770" y="643" type="curve" smooth="yes"/>
			<point x="833" y="647" type="line"/>
			<point x="833" y="700" type="line"/>
			<point x="568" y="700" type="line"/>
			<point x="568" y="647" type="line"/>
			<point x="628" y="643" type="line" smooth="yes"/>
			<point x="657" y="641"/>
			<point x="664" y="630"/>
			<point x="664" y="596" type="curve" smooth="yes"/>
			<point x="664" y="279" type="line" smooth="yes"/>
			<point x="664" y="127"/>
			<point x="596" y="58"/>
			<point x="457" y="58" type="curve" smooth="yes"/>
			<point x="305" y="58"/>
			<point x="258" y="134"/>
			<point x="258" y="272" type="curve" smooth="yes"/>
			<point x="258" y="592" type="line" smooth="yes"/>
			<point x="258" y="632"/>
			<point x="269" y="642"/>
			<point x="290" y="643" type="curve" smooth="yes"/>
			<point x="353" y="647" type="line"/>
			<point x="353" y="700" type="line"/>
			<point x="60" y="700" type="line"/>
			<point x="60" y="647" type="line"/>
			<point x="120" y="643" type="line" smooth="yes"/>
			<point x="149" y="641"/>
			<point x="156" y="630"/>
			<point x="156" y="596" type="curve" smooth="yes"/>
			<point x="156" y="265" type="line" smooth="yes"/>
			<point x="156" y="76"/>
			<point x="251" y="-14"/>
			<point x="442" y="-14" type="curve" smooth="yes"/>
			<point x="458" y="-14"/>
			<point x="474" y="-13"/>
			<point x="489" y="-12" type="curve"/>
			<point x="441" y="-43"/>
			<point x="388" y="-86"/>
			<point x="388" y="-145" type="curve" smooth="yes"/>
			<point x="388" y="-193"/>
			<point x="423" y="-229"/>
		</contour>
	</outline>
	<anchor name="bottom" x="441" y="-30"/>
	<anchor name="top" x="454" y="730"/>
</glyph>
<glyph name="Schwa" format="2">
	<unicode hex="018F"/>
	<advance width="758"/>
	<outline>
		<contour>
			<point x="351" y="-14" type="curve" smooth="yes"/>
			<point x="547" y="-14"/>
			<point x="694" y="120"/>
			<point x="694" y="351" type="curve" smooth="yes"/>
			<point x="694" y="571"/>
			<point x="565" y="714"/>
			<point x="355" y="714" type="curve" smooth="yes"/>
			<point x="214" y="714"/>
			<point x="116" y="647"/>
			<point x="64" y="579" type="curve"/>
			<point x="103" y="540" type="line"/>
			<point x="167" y="599"/>
			<point x="235" y="631"/>
			<point x="320" y="631" type="curve" smooth="yes"/>
			<point x="494" y="631"/>
			<point x="576" y="509"/>
			<point x="583" y="355" type="curve"/>
			<point x="88" y="355" type="line"/>
			<point x="78" y="320"/>
			<point x="71" y="273"/>
			<point x="71" y="234" type="curve" smooth="yes"/>
			<point x="71" y="68"/>
			<point x="197" y="-14"/>
		</contour>
		<contour>
			<point x="356" y="48" type="curve" smooth="yes"/>
			<point x="257" y="48"/>
			<point x="180" y="101"/>
			<point x="180" y="225" type="curve" smooth="yes"/>
			<point x="180" y="245"/>
			<point x="182" y="271"/>
			<point x="184" y="286" type="curve"/>
			<point x="584" y="286" type="line"/>
			<point x="572" y="165"/>
			<point x="501" y="48"/>
		</contour>
	</outline>
</glyph>
<glyph name="florin" format="2">
	<unicode hex="0192"/>
	<advance width="604"/>
	<outline>
		<contour>
			<point x="82" y="-193" type="curve" smooth="yes"/>
			<point x="197" y="-193"/>
			<point x="273" y="-100"/>
			<point x="292" y="45" type="curve" smooth="yes"/>
			<point x="337" y="381" type="line"/>
			<point x="495" y="381" type="line"/>
			<point x="503" y="437" type="line"/>
			<point x="345" y="437" type="line"/>
			<point x="359" y="532" type="line" smooth="yes"/>
			<point x="373" y="626"/>
			<point x="400" y="662"/>
			<point x="461" y="662" type="curve" smooth="yes"/>
			<point x="487" y="662"/>
			<point x="506" y="654"/>
			<point x="524" y="646" type="curve"/>
			<point x="505" y="615"/>
			<point x="499" y="601"/>
			<point x="499" y="587" type="curve" smooth="yes"/>
			<point x="499" y="563"/>
			<point x="520" y="548"/>
			<point x="554" y="548" type="curve" smooth="yes"/>
			<point x="590" y="548"/>
			<point x="614" y="576"/>
			<point x="614" y="614" type="curve" smooth="yes"/>
			<point x="614" y="675"/>
			<point x="554" y="714"/>
			<point x="468" y="714" type="curve" smooth="yes"/>
			<point x="348" y="714"/>
			<point x="275" y="623"/>
			<point x="255" y="478" type="curve"/>
			<point x="248" y="435" type="line"/>
			<point x="161" y="435" type="line"/>
			<point x="154" y="381" type="line"/>
			<point x="241" y="381" type="line"/>
			<point x="189" y="-10" type="line"/>
			<point x="174" y="-104"/>
			<point x="146" y="-141"/>
			<point x="89" y="-141" type="curve" smooth="yes"/>
			<point x="69" y="-141"/>
			<point x="50" y="-135"/>
			<point x="32" y="-125" type="curve"/>
			<point x="51" y="-94"/>
			<point x="57" y="-80"/>
			<point x="57" y="-66" type="curve" smooth="yes"/>
			<point x="57" y="-42"/>
			<point x="36" y="-27"/>
			<point x="2" y="-27" type="curve" smooth="yes"/>
			<point x="-34" y="-27"/>
			<point x="-58" y="-55"/>
			<point x="-58" y="-93" type="curve" smooth="yes"/>
			<point x="-58" y="-154"/>
			<point x="2" y="-193"/>
		</contour>
	</outline>
</glyph>
<glyph name="uhorn" format="2">
	<unicode hex="01B0"/>
	<advance width="756"/>
	<outline>
		<contour>
			<point x="300" y="-14" type="curve" smooth="yes"/>
			<point x="366" y="-14"/>
			<point x="422" y="13"/>
			<point x="480" y="75" type="curve"/>
			<point x="483" y="75" type="line"/>
			<point x="498" y="-6" type="line"/>
			<point x="660" y="0" type="line"/>
			<point x="660" y="53" type="line"/>
			<point x="605" y="57" type="line" smooth="yes"/>
			<point x="578" y="59"/>
			<point x="571" y="71"/>
			<point x="571" y="102" type="curve" smooth="yes"/>
			<point x="571" y="362" type="line"/>
			<point x="701" y="391"/>
			<point x="756" y="503"/>
			<point x="756" y="576" type="curve" smooth="yes"/>
			<point x="756" y="625"/>
			<point x="739" y="667"/>
			<point x="683" y="667" type="curve" smooth="yes"/>
			<point x="644" y="667"/>
			<point x="615" y="641"/>
			<point x="615" y="598" type="curve" smooth="yes"/>
			<point x="615" y="564"/>
			<point x="632" y="544"/>
			<point x="678" y="544" type="curve" smooth="yes"/>
			<point x="685" y="544" type="line"/>
			<point x="681" y="496"/>
			<point x="654" y="452"/>
			<point x="571" y="421" type="curve"/>
			<point x="571" y="519" type="line"/>
			<point x="558" y="526" type="line"/>
			<point x="400" y="515" type="line"/>
			<point x="392" y="462" type="line"/>
			<point x="441" y="458" type="line" smooth="yes"/>
			<point x="472" y="455"/>
			<point x="478" y="443"/>
			<point x="478" y="396" type="curve" smooth="yes"/>
			<point x="478" y="208" type="line" smooth="yes"/>
			<point x="478" y="123"/>
			<point x="420" y="57"/>
			<point x="328" y="57" type="curve" smooth="yes"/>
			<point x="239" y="57"/>
			<point x="222" y="102"/>
			<point x="222" y="186" type="curve" smooth="yes"/>
			<point x="222" y="519" type="line"/>
			<point x="209" y="526" type="line"/>
			<point x="54" y="515" type="line"/>
			<point x="45" y="462" type="line"/>
			<point x="92" y="458" type="line" smooth="yes"/>
			<point x="123" y="455"/>
			<point x="129" y="444"/>
			<point x="129" y="396" type="curve" smooth="yes"/>
			<point x="129" y="157" type="line" smooth="yes"/>
			<point x="129" y="45"/>
			<point x="189" y="-14"/>
		</contour>
	</outline>
	<anchor name="bottom" x="357" y="-30"/>
	<anchor name="top" x="340" y="550"/>
</glyph>
<glyph name="oogonek" format="2">
	<unicode hex="01EB"/>
	<advance width="643"/>
	<outline>
		<contour>
			<point x="330" y="-229" type="curve" smooth="yes"/>
			<point x="372" y="-229"/>
			<point x="412" y="-211"/>
			<point x="437" y="-194" type="curve"/>
			<point x="423" y="-152" type="line"/>
			<point x="409" y="-159"/>
			<point x="387" y="-165"/>
			<point x="368" y="-165" type="curve" smooth="yes"/>
			<point x="335" y="-165"/>
			<point x="323" y="-150"/>
			<point x="323" y="-123" type="curve" smooth="yes"/>
			<point x="323" y="-81"/>
			<point x="354" y="-46"/>
			<point x="413" y="0" type="curve"/>
			<point x="523" y="35"/>
			<point x="585" y="131"/>
			<point x="585" y="271" type="curve" smooth="yes"/>
			<point x="585" y="434"/>
			<point x="486" y="533"/>
			<point x="328" y="533" type="curve" smooth="yes"/>
			<point x="165" y="533"/>
			<point x="62" y="423"/>
			<point x="62" y="246" type="curve" smooth="yes"/>
			<point x="62" y="85"/>
			<point x="157" y="-14"/>
			<point x="313" y="-14" type="curve" smooth="yes"/>
			<point x="320" y="-14"/>
			<point x="328" y="-14"/>
			<point x="335" y="-13" type="curve"/>
			<point x="288" y="-44"/>
			<point x="236" y="-87"/>
			<point x="236" y="-145" type="curve" smooth="yes"/>
			<point x="236" y="-193"/>
			<point x="271" y="-229"/>
		</contour>
		<contour>
			<point x="329" y="51" type="curve" smooth="yes"/>
			<point x="227" y="51"/>
			<point x="161" y="130"/>
			<point x="161" y="269" type="curve" smooth="yes"/>
			<point x="161" y="398"/>
			<point x="217" y="467"/>
			<point x="312" y="467" type="curve" smooth="yes"/>
			<point x="418" y="467"/>
			<point x="486" y="389"/>
			<point x="486" y="244" type="curve" smooth="yes"/>
			<point x="486" y="117"/>
			<point x="429" y="51"/>
		</contour>
	</outline>
	<anchor name="bottom" x="324" y="-30"/>
	<anchor name="top" x="320" y="550"/>
</glyph>
<glyph name="Aringacute" format="2">
	<unicode hex="01FA"/>
	<advance width="802"/>
	<outline>
		<contour>
			<point x="16" y="0" type="line"/>
			<point x="281" y="0" type="line"/>
			<point x="281" y="52" type="line"/>
			<point x="221" y="56" type="line" smooth="yes"/>
			<point x="185" y="58"/>
			<point x="187" y="83"/>
			<point x="196" y="109" type="curve" smooth="yes"/>
			<point x="240" y="227" type="line"/>
			<point x="535" y="227" type="line"/>
			<point x="580" y="107" type="line" smooth="yes"/>
			<point x="596" y="65"/>
			<point x="580" y="58"/>
			<point x="559" y="57" type="curve" smooth="yes"/>
			<point x="497" y="53" type="line"/>
			<point x="497" y="0" type="line"/>
			<point x="786" y="0" type="line"/>
			<point x="786" y="53" type="line"/>
			<point x="737" y="59" type="line" smooth="yes"/>
			<point x="709" y="62"/>
			<point x="701" y="77"/>
			<point x="690" y="108" type="curve" smooth="yes"/>
			<point x="477" y="663" type="line"/>
			<point x="511" y="681"/>
			<point x="528" y="715"/>
			<point x="528" y="758" type="curve" smooth="yes"/>
			<point x="528" y="822"/>
			<point x="489" y="864"/>
			<point x="411" y="864" type="curve" smooth="yes"/>
			<point x="329" y="864"/>
			<point x="290" y="815"/>
			<point x="290" y="756" type="curve" smooth="yes"/>
			<point x="290" y="714"/>
			<point x="304" y="681"/>
			<point x="337" y="663" type="curve"/>
			<point x="122" y="110" type="line" smooth="yes"/>
			<point x="105" y="65"/>
			<point x="95" y="60"/>
			<point x="73" y="58" type="curve" smooth="yes"/>
			<point x="16" y="53" type="line"/>
		</contour>
		<contour>
			<point x="262" y="291" type="line"/>
			<point x="385" y="617" type="line"/>
			<point x="393" y="617" type="line"/>
			<point x="513" y="291" type="line"/>
		</contour>
		<contour>
			<point x="410" y="700" type="curve" smooth="yes"/>
			<point x="368" y="700"/>
			<point x="355" y="723"/>
			<point x="355" y="756" type="curve" smooth="yes"/>
			<point x="355" y="789"/>
			<point x="368" y="812"/>
			<point x="408" y="812" type="curve" smooth="yes"/>
			<point x="447" y="812"/>
			<point x="462" y="790"/>
			<point x="462" y="756" type="curve" smooth="yes"/>
			<point x="462" y="721"/>
			<point x="451" y="700"/>
		</contour>
		<contour>
			<point x="343" y="892" type="line"/>
			<point x="494" y="958" type="line" smooth="yes"/>
			<point x="520" y="969"/>
			<point x="536" y="986"/>
			<point x="536" y="1014" type="curve" smooth="yes"/>
			<point x="536" y="1036"/>
			<point x="518" y="1065"/>
			<point x="493" y="1065" type="curve" smooth="yes"/>
			<point x="481" y="1065"/>
			<point x="469" y="1059"/>
			<point x="452" y="1044" type="curve" smooth="yes"/>
			<point x="318" y="926" type="line"/>
		</contour>
	</outline>
	<anchor name="bottom" x="390" y="-30"/>
	<anchor name="top" x="407" y="730"/>
</glyph>
<glyph name="commaturnedmod" format="2">
	<unicode hex="02BB"/>
	<outline>
		<contour>
			<point x="0" y="578" type="curve" smooth="yes"/>
			<point x="41" y="578"/>
			<point x="64" y="601"/>
			<point x="64" y="636" type="curve" smooth="yes"/>
			<point x="64" y="664"/>
			<point x="51" y="684"/>
			<point x="13" y="684" type="curve" smooth="yes"/>
			<point x="5" y="684" type="line"/>
			<point x="5" y="707"/>
			<point x="14" y="729"/>
			<point x="50" y="760" type="curve"/>
			<point x="22" y="795" type="line"/>
			<point x="-36" y="763"/>
			<point x="-70" y="704"/>
			<point x="-70" y="652" type="curve" smooth="yes"/>
			<point x="-70" y="616"/>
			<point x="-48" y="578"/>
		</contour>
	</outline>
	<anchor name="_top" x="0" y="550"/>
</glyph>
<glyph name="verticallinemod" format="2">
	<unicode hex="02C8"/>
	<advance width="500"/>
	<outline>
		<contour>
			<point x="215" y="578" type="line"/>
			<point x="285" y="578" type="line"/>
			<point x="285" y="785" type="line"/>
			<point x="215" y="785" type="line"/>
		</contour>
	</outline>
	<anchor name="_top" x="249" y="550"/>
</glyph>
<glyph name="verticallinelowmod" format="2">
	<unicode hex="02CC"/>
	<advance width="500"/>
	<outline>
		<contour>
			<point x="215" y="-249" type="line"/>
			<point x="285" y="-249" type="line"/>
			<point x="285" y="-55" type="line"/>
			<point x="215" y="-55" type="line"/>
		</contour>
	</outline>
	<anchor name="_bottom" x="250" y="-30"/>
</glyph>
<glyph name="breve" format="2">
	<unicode hex="02D8"/>
	<advance width="500"/>
	<outline>
		<contour>
			<point x="247" y="597" type="curve" smooth="yes"/>
			<point x="348" y="597"/>
			<point x="399" y="688"/>
			<point x="406" y="767" type="curve"/>
			<point x="356" y="777" type="line"/>
			<point x="342" y="720"/>
			<point x="312" y="677"/>
			<point x="252" y="677" type="curve" smooth="yes"/>
			<point x="193" y="677"/>
			<point x="163" y="713"/>
			<point x="147" y="779" type="curve"/>
			<point x="95" y="766" type="line"/>
			<point x="104" y="680"/>
			<point x="148" y="597"/>
		</contour>
	</outline>
	<anchor name="_top" x="244" y="550"/>
</glyph>
<glyph name="dotaccent" format="2">
	<unicode hex="02D9"/>
	<advance width="500"/>
	<outline>
		<contour>
			<point x="249" y="620" type="curve" smooth="yes"/>
			<point x="290" y="620"/>
			<point x="319" y="648"/>
			<point x="319" y="687" type="curve" smooth="yes"/>
			<point x="319" y="726"/>
			<point x="289" y="753"/>
			<point x="249" y="753" type="curve" smooth="yes"/>
			<point x="209" y="753"/>
			<point x="180" y="725"/>
			<point x="180" y="686" type="curve" smooth="yes"/>
			<point x="180" y="647"/>
			<point x="209" y="620"/>
		</contour>
	</outline>
	<anchor name="_top" x="250" y="550"/>
</glyph>
<glyph name="ring" format="2">
	<unicode hex="02DA"/>
	<advance width="500"/>
	<outline>
		<contour>
			<point x="250" y="590" type="curve" smooth="yes"/>
			<point x="332" y="590"/>
			<point x="378" y="635"/>
			<point x="378" y="705" type="curve" smooth="yes"/>
			<point x="378" y="773"/>
			<point x="334" y="815"/>
			<point x="252" y="815" type="curve" smooth="yes"/>
			<point x="166" y="815"/>
			<point x="121" y="764"/>
			<point x="121" y="701" type="curve" smooth="yes"/>
			<point x="121" y="631"/>
			<point x="162" y="590"/>
		</contour>
		<contour>
			<point x="251" y="644" type="curve" smooth="yes"/>
			<point x="205" y="644"/>
			<point x="189" y="666"/>
			<point x="189" y="703" type="curve" smooth="yes"/>
			<point x="189" y="740"/>
			<point x="205" y="763"/>
			<point x="249" y="763" type="curve" smooth="yes"/>
			<point x="292" y="763"/>
			<point x="309" y="741"/>
			<point x="309" y="703" type="curve" smooth="yes"/>
			<point x="309" y="664"/>
			<point x="296" y="644"/>
		</contour>
	</outline>
	<anchor name="_top" x="250" y="550"/>
</glyph>
<glyph name="ogonek" format="2">
	<unicode hex="02DB"/>
	<advance width="500"/>
	<outline>
		<contour>
			<point x="247" y="-229" type="curve" smooth="yes"/>
			<point x="289" y="-229"/>
			<point x="329" y="-211"/>
			<point x="354" y="-194" type="curve"/>
			<point x="340" y="-152" type="line"/>
			<point x="326" y="-159"/>
			<point x="304" y="-165"/>
			<point x="285" y="-165" type="curve" smooth="yes"/>
			<point x="252" y="-165"/>
			<point x="240" y="-150"/>
			<point x="240" y="-123" type="curve" smooth="yes"/>
			<point x="240" y="-80"/>
			<point x="273" y="-44"/>
			<point x="336" y="5" type="curve"/>
			<point x="287" y="9" type="line"/>
			<point x="236" y="-23"/>
			<point x="153" y="-71"/>
			<point x="153" y="-145" type="curve" smooth="yes"/>
			<point x="153" y="-193"/>
			<point x="188" y="-229"/>
		</contour>
	</outline>
	<anchor name="_bottom" x="250" y="-30"/>
</glyph>
<glyph name="gravecomb" format="2">
	<unicode hex="0300"/>
	<outline>
		<contour>
			<point x="53" y="591" type="line"/>
			<point x="82" y="621" type="line"/>
			<point x="-25" y="753" type="line" smooth="yes"/>
			<point x="-41" y="773"/>
			<point x="-52" y="782"/>
			<point x="-67" y="782" type="curve" smooth="yes"/>
			<point x="-96" y="782"/>
			<point x="-114" y="756"/>
			<point x="-114" y="731" type="curve" smooth="yes"/>
			<point x="-114" y="709"/>
			<point x="-102" y="693"/>
			<point x="-79" y="678" type="curve" smooth="yes"/>
		</contour>
	</outline>
	<anchor name="_top" x="1" y="550"/>
</glyph>
<glyph name="acutecomb" format="2">
	<unicode hex="0301"/>
	<outline>
		<contour>
			<point x="-36" y="591" type="line"/>
			<point x="96" y="678" type="line" smooth="yes"/>
			<point x="119" y="693"/>
			<point x="131" y="709"/>
			<point x="131" y="731" type="curve" smooth="yes"/>
			<point x="131" y="756"/>
			<point x="113" y="782"/>
			<point x="84" y="782" type="curve" smooth="yes"/>
			<point x="69" y="782"/>
			<point x="58" y="773"/>
			<point x="42" y="753" type="curve" smooth="yes"/>
			<point x="-65" y="621" type="line"/>
		</contour>
	</outline>
	<anchor name="_top" x="2" y="550"/>
</glyph>
<glyph name="circumflexcomb" format="2">
	<unicode hex="0302"/>
	<outline>
		<contour>
			<point x="-129" y="591" type="line"/>
			<point x="1" y="688" type="line"/>
			<point x="127" y="591" type="line"/>
			<point x="157" y="622" type="line"/>
			<point x="42" y="761" type="line" smooth="yes"/>
			<point x="23" y="784"/>
			<point x="15" y="789"/>
			<point x="1" y="789" type="curve" smooth="yes"/>
			<point x="-13" y="789"/>
			<point x="-26" y="782"/>
			<point x="-38" y="767" type="curve" smooth="yes"/>
			<point x="-158" y="621" type="line"/>
		</contour>
	</outline>
	<anchor name="_top" x="0" y="550"/>
</glyph>
<glyph name="tildecomb" format="2">
	<unicode hex="0303"/>
	<outline>
		<contour>
			<point x="77" y="614" type="curve" smooth="yes"/>
			<point x="109" y="614"/>
			<point x="132" y="631"/>
			<point x="168" y="703" type="curve"/>
			<point x="129" y="726" type="line"/>
			<point x="112" y="696"/>
			<point x="103" y="688"/>
			<point x="90" y="688" type="curve" smooth="yes"/>
			<point x="80" y="688"/>
			<point x="61" y="693"/>
			<point x="20" y="712" type="curve" smooth="yes"/>
			<point x="-21" y="731"/>
			<point x="-44" y="736"/>
			<point x="-69" y="736" type="curve" smooth="yes"/>
			<point x="-107" y="736"/>
			<point x="-132" y="720"/>
			<point x="-167" y="649" type="curve"/>
			<point x="-128" y="625" type="line"/>
			<point x="-108" y="655"/>
			<point x="-99" y="663"/>
			<point x="-84" y="663" type="curve" smooth="yes"/>
			<point x="-73" y="663"/>
			<point x="-55" y="660"/>
			<point x="-8" y="638" type="curve" smooth="yes"/>
			<point x="29" y="621"/>
			<point x="52" y="614"/>
		</contour>
	</outline>
	<anchor name="_top" x="0" y="550"/>
</glyph>
<glyph name="brevecomb" format="2">
	<unicode hex="0306"/>
	<outline>
		<contour>
			<point x="-3" y="597" type="curve" smooth="yes"/>
			<point x="98" y="597"/>
			<point x="149" y="688"/>
			<point x="156" y="767" type="curve"/>
			<point x="111" y="777" type="line"/>
			<point x="99" y="720"/>
			<point x="62" y="677"/>
			<point x="2" y="677" type="curve" smooth="yes"/>
			<point x="-57" y="677"/>
			<point x="-92" y="712"/>
			<point x="-108" y="778" type="curve"/>
			<point x="-155" y="766" type="line"/>
			<point x="-146" y="680"/>
			<point x="-102" y="597"/>
		</contour>
	</outline>
	<anchor name="_top" x="0" y="550"/>
</glyph>
<glyph name="dotaccentcomb" format="2">
	<unicode hex="0307"/>
	<outline>
		<contour>
			<point x="0" y="620" type="curve" smooth="yes"/>
			<point x="41" y="620"/>
			<point x="70" y="648"/>
			<point x="70" y="687" type="curve" smooth="yes"/>
			<point x="70" y="726"/>
			<point x="40" y="753"/>
			<point x="0" y="753" type="curve" smooth="yes"/>
			<point x="-40" y="753"/>
			<point x="-69" y="725"/>
			<point x="-69" y="686" type="curve" smooth="yes"/>
			<point x="-69" y="647"/>
			<point x="-40" y="620"/>
		</contour>
	</outline>
	<anchor name="_top" x="0" y="550"/>
</glyph>
<glyph name="hookabovecomb" format="2">
	<unicode hex="0309"/>
	<outline>
		<contour>
			<point x="-35" y="575" type="line"/>
			<point x="28" y="575" type="line"/>
			<point x="28" y="597" type="line" smooth="yes"/>
			<point x="28" y="633"/>
			<point x="119" y="656"/>
			<point x="119" y="726" type="curve" smooth="yes"/>
			<point x="119" y="791"/>
			<point x="65" y="812"/>
			<point x="-3" y="812" type="curve" smooth="yes"/>
			<point x="-71" y="812"/>
			<point x="-124" y="781"/>
			<point x="-124" y="729" type="curve" smooth="yes"/>
			<point x="-124" y="703"/>
			<point x="-110" y="686"/>
			<point x="-83" y="686" type="curve" smooth="yes"/>
			<point x="-60" y="686"/>
			<point x="-42" y="697"/>
			<point x="-42" y="716" type="curve" smooth="yes"/>
			<point x="-42" y="727"/>
			<point x="-48" y="739"/>
			<point x="-59" y="751" type="curve"/>
			<point x="-46" y="760"/>
			<point x="-28" y="764"/>
			<point x="-5" y="764" type="curve" smooth="yes"/>
			<point x="26" y="764"/>
			<point x="43" y="750"/>
			<point x="43" y="731" type="curve" smooth="yes"/>
			<point x="43" y="689"/>
			<point x="-35" y="676"/>
			<point x="-35" y="622" type="curve" smooth="yes"/>
		</contour>
	</outline>
	<anchor name="_top" x="0" y="550"/>
</glyph>
<glyph name="ringcomb" format="2">
	<unicode hex="030A"/>
	<outline>
		<contour>
			<point x="0" y="589" type="curve" smooth="yes"/>
			<point x="78" y="589"/>
			<point x="119" y="634"/>
			<point x="119" y="700" type="curve" smooth="yes"/>
			<point x="119" y="764"/>
			<point x="80" y="806"/>
			<point x="2" y="806" type="curve" smooth="yes"/>
			<point x="-80" y="806"/>
			<point x="-119" y="757"/>
			<point x="-119" y="698" type="curve" smooth="yes"/>
			<point x="-119" y="632"/>
			<point x="-84" y="589"/>
		</contour>
		<contour>
			<point x="1" y="642" type="curve" smooth="yes"/>
			<point x="-41" y="642"/>
			<point x="-54" y="665"/>
			<point x="-54" y="698" type="curve" smooth="yes"/>
			<point x="-54" y="731"/>
			<point x="-41" y="754"/>
			<point x="-1" y="754" type="curve" smooth="yes"/>
			<point x="38" y="754"/>
			<point x="53" y="732"/>
			<point x="53" y="698" type="curve" smooth="yes"/>
			<point x="53" y="663"/>
			<point x="42" y="642"/>
		</contour>
	</outline>
	<anchor name="_top" x="0" y="550"/>
</glyph>
<glyph name="dblgravecomb" format="2">
	<unicode hex="030F"/>
	<outline>
		<contour>
			<point x="-65" y="590" type="line"/>
			<point x="-36" y="620" type="line"/>
			<point x="-137" y="749" type="line" smooth="yes"/>
			<point x="-153" y="770"/>
			<point x="-163" y="778"/>
			<point x="-177" y="778" type="curve" smooth="yes"/>
			<point x="-206" y="778"/>
			<point x="-219" y="754"/>
			<point x="-219" y="731" type="curve" smooth="yes"/>
			<point x="-219" y="711"/>
			<point x="-206" y="689"/>
			<point x="-185" y="674" type="curve" smooth="yes"/>
		</contour>
		<contour>
			<point x="91" y="590" type="line"/>
			<point x="120" y="620" type="line"/>
			<point x="31" y="755" type="line" smooth="yes"/>
			<point x="17" y="777"/>
			<point x="7" y="784"/>
			<point x="-7" y="784" type="curve" smooth="yes"/>
			<point x="-33" y="784"/>
			<point x="-49" y="760"/>
			<point x="-49" y="735" type="curve" smooth="yes"/>
			<point x="-49" y="716"/>
			<point x="-39" y="698"/>
			<point x="-18" y="681" type="curve" smooth="yes"/>
		</contour>
	</outline>
	<anchor name="_top" x="0" y="550"/>
</glyph>
<glyph name="commaaccentcomb" format="2">
	<unicode hex="0326"/>
	<outline>
		<contour>
			<point x="-26" y="-273" type="line"/>
			<point x="32" y="-241"/>
			<point x="68" y="-182"/>
			<point x="68" y="-130" type="curve" smooth="yes"/>
			<point x="68" y="-94"/>
			<point x="46" y="-56"/>
			<point x="-2" y="-56" type="curve" smooth="yes"/>
			<point x="-43" y="-56"/>
			<point x="-66" y="-79"/>
			<point x="-66" y="-114" type="curve" smooth="yes"/>
			<point x="-66" y="-142"/>
			<point x="-53" y="-162"/>
			<point x="-15" y="-162" type="curve" smooth="yes"/>
			<point x="-4" y="-162" type="line"/>
			<point x="-4" y="-185"/>
			<point x="-16" y="-211"/>
			<point x="-52" y="-242" type="curve"/>
		</contour>
	</outline>
	<anchor name="_bottom" x="0" y="-30"/>
</glyph>
<glyph name="ogonekcomb" format="2">
	<unicode hex="0328"/>
	<outline>
		<contour>
			<point x="-3" y="-229" type="curve" smooth="yes"/>
			<point x="39" y="-229"/>
			<point x="79" y="-211"/>
			<point x="104" y="-194" type="curve"/>
			<point x="90" y="-152" type="line"/>
			<point x="76" y="-159"/>
			<point x="54" y="-165"/>
			<point x="35" y="-165" type="curve" smooth="yes"/>
			<point x="2" y="-165"/>
			<point x="-10" y="-150"/>
			<point x="-10" y="-123" type="curve" smooth="yes"/>
			<point x="-10" y="-80"/>
			<point x="23" y="-44"/>
			<point x="86" y="5" type="curve"/>
			<point x="37" y="9" type="line"/>
			<point x="-14" y="-23"/>
			<point x="-97" y="-71"/>
			<point x="-97" y="-145" type="curve" smooth="yes"/>
			<point x="-97" y="-193"/>
			<point x="-62" y="-229"/>
		</contour>
	</outline>
	<anchor name="_bottom" x="0" y="-30"/>
</glyph>
<glyph name="tonos" format="2">
	<unicode hex="0384"/>
	<advance width="490"/>
	<outline>
		<contour>
			<point x="219" y="573" type="line"/>
			<point x="369" y="738" type="line"/>
			<point x="369" y="753" type="line"/>
			<point x="351" y="791"/>
			<point x="333" y="806"/>
			<point x="304" y="806" type="curve" smooth="yes"/>
			<point x="279" y="806"/>
			<point x="267" y="796"/>
			<point x="253" y="761" type="curve" smooth="yes"/>
			<point x="183" y="592" type="line"/>
		</contour>
	</outline>
	<anchor name="_top" x="217" y="550"/>
</glyph>
<glyph name="dieresistonos" format="2">
	<unicode hex="0385"/>
	<advance width="617"/>
	<outline>
		<contour>
			<point x="263" y="584" type="line"/>
			<point x="398" y="756" type="line"/>
			<point x="398" y="770" type="line"/>
			<point x="377" y="804"/>
			<point x="359" y="817"/>
			<point x="334" y="817" type="curve" smooth="yes"/>
			<point x="305" y="817"/>
			<point x="293" y="806"/>
			<point x="281" y="768" type="curve" smooth="yes"/>
			<point x="226" y="600" type="line"/>
		</contour>
		<contour>
			<point x="147" y="620" type="curve" smooth="yes"/>
			<point x="185" y="620"/>
			<point x="212" y="647"/>
			<point x="212" y="683" type="curve" smooth="yes"/>
			<point x="212" y="719"/>
			<point x="185" y="745"/>
			<point x="147" y="745" type="curve" smooth="yes"/>
			<point x="111" y="745"/>
			<point x="84" y="718"/>
			<point x="84" y="682" type="curve" smooth="yes"/>
			<point x="84" y="646"/>
			<point x="111" y="620"/>
		</contour>
		<contour>
			<point x="469" y="620" type="curve" smooth="yes"/>
			<point x="506" y="620"/>
			<point x="533" y="647"/>
			<point x="533" y="683" type="curve" smooth="yes"/>
			<point x="533" y="719"/>
			<point x="506" y="745"/>
			<point x="469" y="745" type="curve" smooth="yes"/>
			<point x="432" y="745"/>
			<point x="405" y="718"/>
			<point x="405" y="682" type="curve" smooth="yes"/>
			<point x="405" y="646"/>
			<point x="432" y="620"/>
		</contour>
	</outline>
	<anchor name="_top" x="267" y="550"/>
</glyph>
<glyph name="Theta" format="2">
	<unicode hex="0398"/>
	<advance width="839"/>
	<outline>
		<contour>
			<point x="417" y="-14" type="curve" smooth="yes"/>
			<point x="629" y="-14"/>
			<point x="775" y="141"/>
			<point x="775" y="368" type="curve" smooth="yes"/>
			<point x="775" y="576"/>
			<point x="637" y="714"/>
			<point x="427" y="714" type="curve" smooth="yes"/>
			<point x="206" y="714"/>
			<point x="69" y="570"/>
			<point x="69" y="336" type="curve" smooth="yes"/>
			<point x="69" y="126"/>
			<point x="209" y="-14"/>
		</contour>
		<contour>
			<point x="430" y="57" type="curve" smooth="yes"/>
			<point x="273" y="57"/>
			<point x="179" y="169"/>
			<point x="179" y="356" type="curve" smooth="yes"/>
			<point x="179" y="541"/>
			<point x="263" y="644"/>
			<point x="413" y="644" type="curve" smooth="yes"/>
			<point x="573" y="644"/>
			<point x="665" y="536"/>
			<point x="665" y="348" type="curve" smooth="yes"/>
			<point x="665" y="157"/>
			<point x="584" y="57"/>
		</contour>
		<contour>
			<point x="272" y="237" type="line"/>
			<point x="320" y="243" type="line"/>
			<point x="341" y="312"/>
			<point x="347" y="316"/>
			<point x="416" y="316" type="curve" smooth="yes"/>
			<point x="426" y="316" type="line" smooth="yes"/>
			<point x="498" y="316"/>
			<point x="509" y="308"/>
			<point x="524" y="237" type="curve"/>
			<point x="572" y="245" type="line"/>
			<point x="572" y="455" type="line"/>
			<point x="524" y="449" type="line"/>
			<point x="503" y="380"/>
			<point x="497" y="376"/>
			<point x="428" y="376" type="curve" smooth="yes"/>
			<point x="418" y="376" type="line" smooth="yes"/>
			<point x="346" y="376"/>
			<point x="335" y="384"/>
			<point x="320" y="455" type="curve"/>
			<point x="272" y="447" type="line"/>
		</contour>
	</outline>
</glyph>
<glyph name="Lambda" format="2">
	<unicode hex="039B"/>
	<advance width="782"/>
	<outline>
		<contour>
			<point x="16" y="0" type="line"/>
			<point x="281" y="0" type="line"/>
			<point x="281" y="52" type="line"/>
			<point x="221" y="56" type="line" smooth="yes"/>
			<point x="191" y="58"/>
			<point x="183" y="75"/>
			<point x="196" y="109" type="curve"/>
			<point x="375" y="617" type="line"/>
			<point x="383" y="617" type="line"/>
			<point x="560" y="107" type="line"/>
			<point x="573" y="73"/>
			<point x="567" y="58"/>
			<point x="539" y="57" type="curve" smooth="yes"/>
			<point x="477" y="53" type="line"/>
			<point x="477" y="0" type="line"/>
			<point x="766" y="0" type="line"/>
			<point x="766" y="53" type="line"/>
			<point x="717" y="59" type="line" smooth="yes"/>
			<point x="692" y="62"/>
			<point x="684" y="71"/>
			<point x="670" y="108" type="curve" smooth="yes"/>
			<point x="453" y="700" type="line"/>
			<point x="341" y="700" type="line"/>
			<point x="122" y="110" type="line" smooth="yes"/>
			<point x="107" y="69"/>
			<point x="98" y="60"/>
			<point x="73" y="58" type="curve" smooth="yes"/>
			<point x="16" y="53" type="line"/>
		</contour>
	</outline>
</glyph>
<glyph name="alpha" format="2">
	<unicode hex="03B1"/>
	<advance width="669"/>
	<outline>
		<contour>
			<point x="266" y="-14" type="curve" smooth="yes"/>
			<point x="350" y="-14"/>
			<point x="411" y="23"/>
			<point x="442" y="93" type="curve"/>
			<point x="445" y="93" type="line"/>
			<point x="459" y="14"/>
			<point x="485" y="-14"/>
			<point x="545" y="-14" type="curve" smooth="yes"/>
			<point x="578" y="-14"/>
			<point x="610" y="0"/>
			<point x="636" y="26" type="curve"/>
			<point x="624" y="71" type="line"/>
			<point x="610" y="66"/>
			<point x="590" y="61"/>
			<point x="580" y="61" type="curve" smooth="yes"/>
			<point x="536" y="61"/>
			<point x="524" y="90"/>
			<point x="524" y="194" type="curve" smooth="yes"/>
			<point x="524" y="296"/>
			<point x="539" y="414"/>
			<point x="564" y="519" type="curve"/>
			<point x="551" y="526" type="line"/>
			<point x="461" y="520" type="line"/>
			<point x="453" y="438" type="line"/>
			<point x="451" y="438" type="line"/>
			<point x="424" y="498"/>
			<point x="365" y="533"/>
			<point x="292" y="533" type="curve" smooth="yes"/>
			<point x="153" y="533"/>
			<point x="68" y="426"/>
			<point x="68" y="252" type="curve" smooth="yes"/>
			<point x="68" y="84"/>
			<point x="141" y="-14"/>
		</contour>
		<contour>
			<point x="296" y="63" type="curve" smooth="yes"/>
			<point x="210" y="63"/>
			<point x="167" y="129"/>
			<point x="167" y="260" type="curve" smooth="yes"/>
			<point x="167" y="396"/>
			<point x="213" y="465"/>
			<point x="304" y="465" type="curve" smooth="yes"/>
			<point x="370" y="465"/>
			<point x="426" y="421"/>
			<point x="441" y="357" type="curve"/>
			<point x="439" y="312"/>
			<point x="437" y="205"/>
			<point x="437" y="165" type="curve"/>
			<point x="407" y="97"/>
			<point x="360" y="63"/>
		</contour>
	</outline>
	<anchor name="bottom" x="282" y="-45"/>
	<anchor name="top" x="300" y="550"/>
</glyph>
<glyph name="beta" format="2">
	<unicode hex="03B2"/>
	<advance width="661"/>
	<outline>
		<contour>
			<point x="105" y="-223" type="line"/>
			<point x="195" y="-217" type="line"/>
			<point x="185" y="-173"/>
			<point x="174" y="-48"/>
			<point x="174" y="23" type="curve"/>
			<point x="176" y="23" type="line"/>
			<point x="209" y="1"/>
			<point x="276" y="-14"/>
			<point x="336" y="-14" type="curve" smooth="yes"/>
			<point x="490" y="-14"/>
			<point x="601" y="87"/>
			<point x="601" y="229" type="curve" smooth="yes"/>
			<point x="601" y="327"/>
			<point x="537" y="410"/>
			<point x="447" y="431" type="curve"/>
			<point x="447" y="433" type="line"/>
			<point x="509" y="466"/>
			<point x="544" y="520"/>
			<point x="544" y="584" type="curve" smooth="yes"/>
			<point x="544" y="709"/>
			<point x="464" y="782"/>
			<point x="326" y="782" type="curve" smooth="yes"/>
			<point x="169" y="782"/>
			<point x="81" y="687"/>
			<point x="81" y="518" type="curve" smooth="yes"/>
			<point x="81" y="7" type="line" smooth="yes"/>
			<point x="81" y="-52"/>
			<point x="87" y="-172"/>
			<point x="92" y="-216" type="curve"/>
		</contour>
		<contour>
			<point x="322" y="52" type="curve" smooth="yes"/>
			<point x="261" y="52"/>
			<point x="201" y="70"/>
			<point x="174" y="97" type="curve"/>
			<point x="174" y="526" type="line" smooth="yes"/>
			<point x="174" y="651"/>
			<point x="226" y="716"/>
			<point x="326" y="716" type="curve" smooth="yes"/>
			<point x="412" y="716"/>
			<point x="463" y="665"/>
			<point x="463" y="581" type="curve" smooth="yes"/>
			<point x="463" y="522"/>
			<point x="438" y="480"/>
			<point x="386" y="451" type="curve"/>
			<point x="362" y="469"/>
			<point x="332" y="480"/>
			<point x="305" y="480" type="curve" smooth="yes"/>
			<point x="261" y="480"/>
			<point x="236" y="456"/>
			<point x="236" y="415" type="curve" smooth="yes"/>
			<point x="236" y="380"/>
			<point x="265" y="355"/>
			<point x="305" y="355" type="curve" smooth="yes"/>
			<point x="330" y="355"/>
			<point x="352" y="364"/>
			<point x="393" y="391" type="curve"/>
			<point x="465" y="358"/>
			<point x="502" y="300"/>
			<point x="502" y="218" type="curve" smooth="yes"/>
			<point x="502" y="115"/>
			<point x="434" y="52"/>
		</contour>
	</outline>
</glyph>
<glyph name="gamma" format="2">
	<unicode hex="03B3"/>
	<advance width="616"/>
	<outline>
		<contour>
			<point x="220" y="-186" type="curve"/>
			<point x="240" y="-187"/>
			<point x="277" y="-184"/>
			<point x="304" y="-178" type="curve"/>
			<point x="304" y="-119"/>
			<point x="298" y="-33"/>
			<point x="291" y="10" type="curve"/>
			<point x="442" y="120"/>
			<point x="548" y="305"/>
			<point x="548" y="460" type="curve" smooth="yes"/>
			<point x="548" y="482"/>
			<point x="547" y="504"/>
			<point x="545" y="519" type="curve"/>
			<point x="532" y="526" type="line"/>
			<point x="442" y="520" type="line"/>
			<point x="447" y="499"/>
			<point x="449" y="476"/>
			<point x="449" y="453" type="curve" smooth="yes"/>
			<point x="449" y="335"/>
			<point x="380" y="186"/>
			<point x="282" y="92" type="curve"/>
			<point x="273" y="92" type="line"/>
			<point x="243" y="458"/>
			<point x="217" y="528"/>
			<point x="114" y="528" type="curve" smooth="yes"/>
			<point x="76" y="528"/>
			<point x="37" y="513"/>
			<point x="10" y="488" type="curve"/>
			<point x="22" y="443" type="line"/>
			<point x="37" y="449"/>
			<point x="55" y="453"/>
			<point x="68" y="453" type="curve" smooth="yes"/>
			<point x="144" y="453"/>
			<point x="175" y="354"/>
			<point x="205" y="13" type="curve"/>
			<point x="180" y="-67"/>
			<point x="185" y="-128"/>
		</contour>
	</outline>
</glyph>
<glyph name="eta" format="2">
	<unicode hex="03B7"/>
	<advance width="641"/>
	<outline>
		<contour>
			<point x="546" y="-223" type="line"/>
			<point x="559" y="-216" type="line"/>
			<point x="565" y="-166"/>
			<point x="570" y="-60"/>
			<point x="570" y="7" type="curve" smooth="yes"/>
			<point x="570" y="346" type="line" smooth="yes"/>
			<point x="570" y="469"/>
			<point x="511" y="533"/>
			<point x="397" y="533" type="curve" smooth="yes"/>
			<point x="316" y="533"/>
			<point x="244" y="494"/>
			<point x="207" y="430" type="curve"/>
			<point x="204" y="430" type="line"/>
			<point x="199" y="500"/>
			<point x="177" y="528"/>
			<point x="129" y="528" type="curve" smooth="yes"/>
			<point x="97" y="528"/>
			<point x="60" y="512"/>
			<point x="35" y="488" type="curve"/>
			<point x="45" y="450" type="line"/>
			<point x="61" y="455"/>
			<point x="75" y="458"/>
			<point x="87" y="458" type="curve" smooth="yes"/>
			<point x="113" y="458"/>
			<point x="122" y="446"/>
			<point x="122" y="409" type="curve" smooth="yes"/>
			<point x="122" y="0" type="line"/>
			<point x="215" y="0" type="line"/>
			<point x="215" y="317" type="line" smooth="yes"/>
			<point x="215" y="403"/>
			<point x="273" y="456"/>
			<point x="365" y="456" type="curve" smooth="yes"/>
			<point x="449" y="456"/>
			<point x="477" y="420"/>
			<point x="477" y="312" type="curve" smooth="yes"/>
			<point x="477" y="26" type="line" smooth="yes"/>
			<point x="477" y="-46"/>
			<point x="468" y="-154"/>
			<point x="457" y="-217" type="curve"/>
		</contour>
	</outline>
	<anchor name="bottom" x="168" y="-30"/>
	<anchor name="top" x="320" y="550"/>
</glyph>
<glyph name="iota" format="2">
	<unicode hex="03B9"/>
	<advance width="316"/>
	<outline>
		<contour>
			<point x="195" y="-14" type="curve" smooth="yes"/>
			<point x="235" y="-14"/>
			<point x="275" y="1"/>
			<point x="303" y="26" type="curve"/>
			<point x="291" y="71" type="line"/>
			<point x="267" y="62"/>
			<point x="251" y="59"/>
			<point x="234" y="59" type="curve" smooth="yes"/>
			<point x="176" y="59"/>
			<point x="158" y="79"/>
			<point x="158" y="142" type="curve" smooth="yes"/>
			<point x="158" y="197"/>
			<point x="169" y="415"/>
			<point x="177" y="519" type="curve"/>
			<point x="164" y="526" type="line"/>
			<point x="71" y="519" type="line"/>
			<point x="74" y="449"/>
			<point x="76" y="290"/>
			<point x="76" y="143" type="curve" smooth="yes"/>
			<point x="76" y="31"/>
			<point x="110" y="-14"/>
		</contour>
	</outline>
	<anchor name="top" x="130" y="550"/>
</glyph>
<glyph name="kappa" format="2">
	<unicode hex="03BA"/>
	<advance width="629"/>
	<outline>
		<contour>
			<point x="477" y="-14" type="curve" smooth="yes"/>
			<point x="512" y="-14"/>
			<point x="554" y="2"/>
			<point x="581" y="26" type="curve"/>
			<point x="569" y="71" type="line"/>
			<point x="553" y="64"/>
			<point x="536" y="61"/>
			<point x="515" y="61" type="curve" smooth="yes"/>
			<point x="473" y="61"/>
			<point x="458" y="73"/>
			<point x="424" y="132" type="curve" smooth="yes"/>
			<point x="380" y="207"/>
			<point x="342" y="281"/>
			<point x="327" y="318" type="curve"/>
			<point x="381" y="385" type="line" smooth="yes"/>
			<point x="405" y="416"/>
			<point x="423" y="434"/>
			<point x="435" y="439" type="curve"/>
			<point x="441" y="411"/>
			<point x="462" y="395"/>
			<point x="494" y="395" type="curve" smooth="yes"/>
			<point x="537" y="395"/>
			<point x="563" y="420"/>
			<point x="563" y="462" type="curve" smooth="yes"/>
			<point x="563" y="505"/>
			<point x="533" y="533"/>
			<point x="487" y="533" type="curve" smooth="yes"/>
			<point x="438" y="533"/>
			<point x="406" y="512"/>
			<point x="350" y="442" type="curve" smooth="yes"/>
			<point x="167" y="213" type="line"/>
			<point x="170" y="325"/>
			<point x="176" y="418"/>
			<point x="182" y="519" type="curve"/>
			<point x="169" y="526" type="line"/>
			<point x="76" y="519" type="line"/>
			<point x="84" y="0" type="line"/>
			<point x="165" y="0" type="line"/>
			<point x="165" y="115" type="line"/>
			<point x="271" y="247" type="line"/>
			<point x="289" y="201"/>
			<point x="334" y="108"/>
			<point x="354" y="74" type="curve" smooth="yes"/>
			<point x="394" y="7"/>
			<point x="423" y="-14"/>
		</contour>
	</outline>
</glyph>
<glyph name="lambda" format="2">
	<unicode hex="03BB"/>
	<advance width="615"/>
	<outline>
		<contour>
			<point x="598" y="71" type="line"/>
			<point x="582" y="64"/>
			<point x="566" y="61"/>
			<point x="551" y="61" type="curve" smooth="yes"/>
			<point x="519" y="61"/>
			<point x="506" y="76"/>
			<point x="490" y="129" type="curve" smooth="yes"/>
			<point x="337" y="627" type="line" smooth="yes"/>
			<point x="306" y="729"/>
			<point x="244" y="782"/>
			<point x="158" y="782" type="curve" smooth="yes"/>
			<point x="67" y="782"/>
			<point x="15" y="744"/>
			<point x="15" y="677" type="curve" smooth="yes"/>
			<point x="15" y="638"/>
			<point x="37" y="614"/>
			<point x="72" y="614" type="curve" smooth="yes"/>
			<point x="106" y="614"/>
			<point x="128" y="630"/>
			<point x="128" y="653" type="curve" smooth="yes"/>
			<point x="128" y="672"/>
			<point x="125" y="682"/>
			<point x="109" y="710" type="curve"/>
			<point x="121" y="719"/>
			<point x="134" y="722"/>
			<point x="153" y="722" type="curve" smooth="yes"/>
			<point x="197" y="722"/>
			<point x="230" y="685"/>
			<point x="250" y="612" type="curve" smooth="yes"/>
			<point x="274" y="528" type="line"/>
			<point x="18" y="7" type="line"/>
			<point x="31" y="0" type="line"/>
			<point x="131" y="0" type="line"/>
			<point x="307" y="407" type="line"/>
			<point x="309" y="407" type="line"/>
			<point x="396" y="102" type="line" smooth="yes"/>
			<point x="420" y="19"/>
			<point x="455" y="-14"/>
			<point x="519" y="-14" type="curve" smooth="yes"/>
			<point x="554" y="-14"/>
			<point x="582" y="-2"/>
			<point x="610" y="26" type="curve"/>
		</contour>
	</outline>
</glyph>
<glyph name="nu" format="2">
	<unicode hex="03BD"/>
	<advance width="616"/>
	<outline>
		<contour>
			<point x="271" y="-15" type="line"/>
			<point x="442" y="127"/>
			<point x="548" y="309"/>
			<point x="548" y="460" type="curve" smooth="yes"/>
			<point x="548" y="494"/>
			<point x="548" y="502"/>
			<point x="546" y="513" type="curve"/>
			<point x="533" y="519" type="line"/>
			<point x="444" y="519" type="line"/>
			<point x="447" y="495"/>
			<point x="449" y="472"/>
			<point x="449" y="453" type="curve" smooth="yes"/>
			<point x="449" y="337"/>
			<point x="384" y="192"/>
			<point x="283" y="84" type="curve"/>
			<point x="275" y="84" type="line"/>
			<point x="265" y="422"/>
			<point x="227" y="528"/>
			<point x="114" y="528" type="curve" smooth="yes"/>
			<point x="76" y="528"/>
			<point x="37" y="513"/>
			<point x="10" y="488" type="curve"/>
			<point x="22" y="443" type="line"/>
			<point x="37" y="449"/>
			<point x="55" y="453"/>
			<point x="68" y="453" type="curve" smooth="yes"/>
			<point x="157" y="453"/>
			<point x="190" y="346"/>
			<point x="207" y="0" type="curve"/>
		</contour>
	</outline>
</glyph>
<glyph name="pi" format="2">
	<unicode hex="03C0"/>
	<advance width="691"/>
	<outline>
		<contour>
			<point x="541" y="-14" type="curve" smooth="yes"/>
			<point x="576" y="-14"/>
			<point x="621" y="4"/>
			<point x="643" y="26" type="curve"/>
			<point x="631" y="71" type="line"/>
			<point x="602" y="61"/>
			<point x="591" y="59"/>
			<point x="574" y="59" type="curve" smooth="yes"/>
			<point x="521" y="59"/>
			<point x="503" y="78"/>
			<point x="503" y="136" type="curve" smooth="yes"/>
			<point x="503" y="202"/>
			<point x="503" y="216"/>
			<point x="508" y="450" type="curve"/>
			<point x="621" y="450" type="line"/>
			<point x="634" y="457" type="line"/>
			<point x="634" y="533" type="line"/>
			<point x="155" y="528" type="line" smooth="yes"/>
			<point x="127" y="528"/>
			<point x="66" y="519"/>
			<point x="33" y="509" type="curve"/>
			<point x="23" y="450" type="line"/>
			<point x="170" y="450" type="line"/>
			<point x="86" y="7" type="line"/>
			<point x="99" y="0" type="line"/>
			<point x="192" y="0" type="line"/>
			<point x="240" y="450" type="line"/>
			<point x="437" y="450" type="line"/>
			<point x="425" y="324"/>
			<point x="416" y="183"/>
			<point x="416" y="136" type="curve" smooth="yes"/>
			<point x="416" y="34"/>
			<point x="456" y="-14"/>
		</contour>
	</outline>
</glyph>
<glyph name="rho" format="2">
	<unicode hex="03C1"/>
	<advance width="612"/>
	<outline>
		<contour>
			<point x="85" y="-223" type="line"/>
			<point x="175" y="-217" type="line"/>
			<point x="164" y="-169"/>
			<point x="154" y="-57"/>
			<point x="154" y="19" type="curve"/>
			<point x="156" y="19" type="line"/>
			<point x="181" y="2"/>
			<point x="252" y="-14"/>
			<point x="301" y="-14" type="curve" smooth="yes"/>
			<point x="455" y="-14"/>
			<point x="552" y="92"/>
			<point x="552" y="261" type="curve" smooth="yes"/>
			<point x="552" y="429"/>
			<point x="461" y="532"/>
			<point x="314" y="532" type="curve" smooth="yes"/>
			<point x="157" y="532"/>
			<point x="61" y="434"/>
			<point x="61" y="273" type="curve" smooth="yes"/>
			<point x="61" y="27" type="line" smooth="yes"/>
			<point x="61" y="-41"/>
			<point x="66" y="-142"/>
			<point x="72" y="-216" type="curve"/>
		</contour>
		<contour>
			<point x="292" y="51" type="curve" smooth="yes"/>
			<point x="242" y="51"/>
			<point x="175" y="73"/>
			<point x="154" y="96" type="curve"/>
			<point x="154" y="292" type="line" smooth="yes"/>
			<point x="154" y="402"/>
			<point x="212" y="467"/>
			<point x="308" y="467" type="curve" smooth="yes"/>
			<point x="404" y="467"/>
			<point x="453" y="397"/>
			<point x="453" y="260" type="curve" smooth="yes"/>
			<point x="453" y="132"/>
			<point x="391" y="51"/>
		</contour>
	</outline>
	<anchor name="top" x="292" y="550"/>
</glyph>
<glyph name="sigmafinal" format="2">
	<unicode hex="03C2"/>
	<advance width="555"/>
	<outline>
		<contour>
			<point x="368" y="-230" type="line"/>
			<point x="433" y="-174"/>
			<point x="467" y="-118"/>
			<point x="467" y="-66" type="curve" smooth="yes"/>
			<point x="467" y="12"/>
			<point x="426" y="47"/>
			<point x="298" y="78" type="curve" smooth="yes"/>
			<point x="202" y="102"/>
			<point x="160" y="158"/>
			<point x="160" y="262" type="curve" smooth="yes"/>
			<point x="160" y="386"/>
			<point x="222" y="471"/>
			<point x="312" y="471" type="curve" smooth="yes"/>
			<point x="352" y="471"/>
			<point x="379" y="464"/>
			<point x="409" y="445" type="curve"/>
			<point x="389" y="407"/>
			<point x="384" y="392"/>
			<point x="384" y="377" type="curve" smooth="yes"/>
			<point x="384" y="349"/>
			<point x="408" y="329"/>
			<point x="442" y="329" type="curve" smooth="yes"/>
			<point x="483" y="329"/>
			<point x="511" y="356"/>
			<point x="511" y="395" type="curve" smooth="yes"/>
			<point x="511" y="474"/>
			<point x="428" y="533"/>
			<point x="315" y="533" type="curve" smooth="yes"/>
			<point x="162" y="533"/>
			<point x="62" y="420"/>
			<point x="62" y="248" type="curve" smooth="yes"/>
			<point x="62" y="100"/>
			<point x="128" y="19"/>
			<point x="271" y="-11" type="curve" smooth="yes"/>
			<point x="345" y="-27"/>
			<point x="372" y="-48"/>
			<point x="372" y="-89" type="curve" smooth="yes"/>
			<point x="372" y="-121"/>
			<point x="358" y="-152"/>
			<point x="324" y="-196" type="curve"/>
		</contour>
	</outline>
</glyph>
<glyph name="sigma" format="2">
	<unicode hex="03C3"/>
	<advance width="684"/>
	<outline>
		<contour>
			<point x="317" y="-14" type="curve" smooth="yes"/>
			<point x="474" y="-14"/>
			<point x="575" y="87"/>
			<point x="575" y="246" type="curve" smooth="yes"/>
			<point x="575" y="334"/>
			<point x="537" y="420"/>
			<point x="481" y="458" type="curve"/>
			<point x="481" y="460" type="line"/>
			<point x="618" y="450" type="line"/>
			<point x="631" y="457" type="line"/>
			<point x="631" y="533" type="line"/>
			<point x="378" y="531" type="line" smooth="yes"/>
			<point x="175" y="529"/>
			<point x="62" y="428"/>
			<point x="62" y="250" type="curve" smooth="yes"/>
			<point x="62" y="92"/>
			<point x="164" y="-14"/>
		</contour>
		<contour>
			<point x="317" y="50" type="curve" smooth="yes"/>
			<point x="222" y="50"/>
			<point x="161" y="128"/>
			<point x="161" y="249" type="curve" smooth="yes"/>
			<point x="161" y="386"/>
			<point x="238" y="460"/>
			<point x="379" y="460" type="curve" smooth="yes"/>
			<point x="394" y="460" type="line"/>
			<point x="450" y="416"/>
			<point x="480" y="339"/>
			<point x="480" y="244" type="curve" smooth="yes"/>
			<point x="480" y="123"/>
			<point x="419" y="50"/>
		</contour>
	</outline>
</glyph>
<glyph name="chi" format="2">
	<unicode hex="03C7"/>
	<advance width="596"/>
	<outline>
		<contour>
			<point x="506" y="-230" type="curve" smooth="yes"/>
			<point x="546" y="-230"/>
			<point x="580" y="-217"/>
			<point x="610" y="-190" type="curve"/>
			<point x="600" y="-152" type="line"/>
			<point x="587" y="-157"/>
			<point x="569" y="-160"/>
			<point x="552" y="-160" type="curve" smooth="yes"/>
			<point x="503" y="-160"/>
			<point x="490" y="-145"/>
			<point x="432" y="-23" type="curve" smooth="yes"/>
			<point x="356" y="139" type="line"/>
			<point x="576" y="519" type="line"/>
			<point x="563" y="526" type="line"/>
			<point x="463" y="519" type="line"/>
			<point x="327" y="213" type="line"/>
			<point x="322" y="213" type="line"/>
			<point x="257" y="385" type="line" smooth="yes"/>
			<point x="213" y="502"/>
			<point x="188" y="528"/>
			<point x="122" y="528" type="curve" smooth="yes"/>
			<point x="82" y="528"/>
			<point x="40" y="513"/>
			<point x="14" y="488" type="curve"/>
			<point x="25" y="450" type="line"/>
			<point x="38" y="455"/>
			<point x="56" y="458"/>
			<point x="72" y="458" type="curve" smooth="yes"/>
			<point x="121" y="458"/>
			<point x="134" y="443"/>
			<point x="192" y="321" type="curve" smooth="yes"/>
			<point x="278" y="139" type="line"/>
			<point x="72" y="-216" type="line"/>
			<point x="85" y="-223" type="line"/>
			<point x="185" y="-216" type="line"/>
			<point x="311" y="59" type="line"/>
			<point x="314" y="59" type="line"/>
			<point x="367" y="-87" type="line" smooth="yes"/>
			<point x="411" y="-206"/>
			<point x="434" y="-230"/>
		</contour>
	</outline>
</glyph>
<glyph name="omega" format="2">
	<unicode hex="03C9"/>
	<advance width="842"/>
	<outline>
		<contour>
			<point x="254" y="-14" type="curve" smooth="yes"/>
			<point x="333" y="-14"/>
			<point x="406" y="34"/>
			<point x="424" y="98" type="curve"/>
			<point x="427" y="98" type="line"/>
			<point x="452" y="28"/>
			<point x="512" y="-14"/>
			<point x="586" y="-14" type="curve" smooth="yes"/>
			<point x="702" y="-14"/>
			<point x="779" y="88"/>
			<point x="779" y="242" type="curve" smooth="yes"/>
			<point x="779" y="342"/>
			<point x="735" y="460"/>
			<point x="676" y="519" type="curve"/>
			<point x="663" y="526" type="line"/>
			<point x="574" y="508" type="line"/>
			<point x="636" y="435"/>
			<point x="680" y="323"/>
			<point x="680" y="236" type="curve" smooth="yes"/>
			<point x="680" y="121"/>
			<point x="643" y="56"/>
			<point x="578" y="56" type="curve" smooth="yes"/>
			<point x="526" y="56"/>
			<point x="484" y="95"/>
			<point x="458" y="168" type="curve"/>
			<point x="486" y="213"/>
			<point x="498" y="250"/>
			<point x="498" y="285" type="curve" smooth="yes"/>
			<point x="498" y="336"/>
			<point x="467" y="372"/>
			<point x="423" y="372" type="curve" smooth="yes"/>
			<point x="380" y="372"/>
			<point x="352" y="337"/>
			<point x="352" y="285" type="curve" smooth="yes"/>
			<point x="352" y="244"/>
			<point x="362" y="212"/>
			<point x="391" y="168" type="curve"/>
			<point x="363" y="94"/>
			<point x="322" y="56"/>
			<point x="271" y="56" type="curve" smooth="yes"/>
			<point x="206" y="56"/>
			<point x="166" y="119"/>
			<point x="166" y="221" type="curve" smooth="yes"/>
			<point x="166" y="321"/>
			<point x="200" y="415"/>
			<point x="265" y="499" type="curve"/>
			<point x="223" y="526" type="line"/>
			<point x="129" y="467"/>
			<point x="67" y="348"/>
			<point x="67" y="229" type="curve" smooth="yes"/>
			<point x="67" y="81"/>
			<point x="140" y="-14"/>
		</contour>
	</outline>
	<anchor name="bottom" x="423" y="-45"/>
	<anchor name="top" x="423" y="550"/>
</glyph>
<glyph name="kaiSymbol" format="2">
	<unicode hex="03D7"/>
	<advance width="617"/>
	<outline>
		<contour>
			<point x="353" y="-229" type="curve" smooth="yes"/>
			<point x="490" y="-229"/>
			<point x="569" y="-162"/>
			<point x="569" y="-46" type="curve" smooth="yes"/>
			<point x="569" y="33"/>
			<point x="542" y="79"/>
			<point x="442" y="169" type="curve" smooth="yes"/>
			<point x="367" y="236"/>
			<point x="345" y="273"/>
			<point x="345" y="329" type="curve" smooth="yes"/>
			<point x="345" y="369"/>
			<point x="396" y="431"/>
			<point x="435" y="439" type="curve"/>
			<point x="441" y="411"/>
			<point x="462" y="395"/>
			<point x="494" y="395" type="curve" smooth="yes"/>
			<point x="536" y="395"/>
			<point x="563" y="421"/>
			<point x="563" y="461" type="curve" smooth="yes"/>
			<point x="563" y="505"/>
			<point x="533" y="533"/>
			<point x="487" y="533" type="curve" smooth="yes"/>
			<point x="393" y="533"/>
			<point x="265" y="405"/>
			<point x="167" y="213" type="curve"/>
			<point x="172" y="325"/>
			<point x="177" y="417"/>
			<point x="182" y="519" type="curve"/>
			<point x="168" y="526" type="line"/>
			<point x="76" y="519" type="line"/>
			<point x="84" y="0" type="line"/>
			<point x="165" y="0" type="line"/>
			<point x="165" y="115" type="line"/>
			<point x="201" y="182"/>
			<point x="244" y="251"/>
			<point x="289" y="311" type="curve"/>
			<point x="282" y="297"/>
			<point x="278" y="280"/>
			<point x="278" y="262" type="curve" smooth="yes"/>
			<point x="278" y="212"/>
			<point x="311" y="156"/>
			<point x="386" y="79" type="curve" smooth="yes"/>
			<point x="453" y="10"/>
			<point x="470" y="-16"/>
			<point x="470" y="-48" type="curve" smooth="yes"/>
			<point x="470" y="-127"/>
			<point x="417" y="-159"/>
			<point x="286" y="-159" type="curve" smooth="yes"/>
			<point x="277" y="-159" type="line"/>
			<point x="277" y="-219" type="line"/>
			<point x="294" y="-225"/>
			<point x="324" y="-229"/>
		</contour>
	</outline>
</glyph>
<glyph name="KoppaArchaic" format="2">
	<unicode hex="03D8"/>
	<advance width="834"/>
	<outline>
		<contour>
			<point x="368" y="-208" type="line"/>
			<point x="458" y="-199" type="line"/>
			<point x="457" y="-140"/>
			<point x="454" y="-67"/>
			<point x="453" y="-12" type="curve"/>
			<point x="644" y="7"/>
			<point x="770" y="158"/>
			<point x="770" y="368" type="curve" smooth="yes"/>
			<point x="770" y="576"/>
			<point x="632" y="714"/>
			<point x="422" y="714" type="curve" smooth="yes"/>
			<point x="201" y="714"/>
			<point x="64" y="570"/>
			<point x="64" y="336" type="curve" smooth="yes"/>
			<point x="64" y="142"/>
			<point x="183" y="6"/>
			<point x="370" y="-12" type="curve"/>
			<point x="368" y="-65"/>
			<point x="362" y="-137"/>
			<point x="355" y="-201" type="curve"/>
		</contour>
		<contour>
			<point x="454" y="58" type="curve"/>
			<point x="457" y="93"/>
			<point x="462" y="133"/>
			<point x="469" y="219" type="curve"/>
			<point x="456" y="226" type="line"/>
			<point x="366" y="217" type="line"/>
			<point x="367" y="165"/>
			<point x="369" y="104"/>
			<point x="370" y="62" type="curve"/>
			<point x="246" y="86"/>
			<point x="174" y="193"/>
			<point x="174" y="356" type="curve" smooth="yes"/>
			<point x="174" y="541"/>
			<point x="258" y="644"/>
			<point x="408" y="644" type="curve" smooth="yes"/>
			<point x="568" y="644"/>
			<point x="660" y="536"/>
			<point x="660" y="348" type="curve" smooth="yes"/>
			<point x="660" y="170"/>
			<point x="589" y="70"/>
		</contour>
	</outline>
</glyph>
<glyph name="koppa" format="2">
	<unicode hex="03DF"/>
	<advance width="600"/>
	<outline>
		<contour>
			<point x="311" y="-59" type="curve" smooth="yes"/>
			<point x="346" y="-59"/>
			<point x="384" y="-45"/>
			<point x="407" y="-24" type="curve"/>
			<point x="403" y="12" type="line"/>
			<point x="386" y="6"/>
			<point x="375" y="4"/>
			<point x="359" y="4" type="curve" smooth="yes"/>
			<point x="335" y="4"/>
			<point x="323" y="14"/>
			<point x="323" y="34" type="curve" smooth="yes"/>
			<point x="323" y="56"/>
			<point x="340" y="83"/>
			<point x="384" y="132" type="curve" smooth="yes"/>
			<point x="503" y="263" type="line"/>
			<point x="505" y="294" type="line"/>
			<point x="238" y="294" type="line"/>
			<point x="316" y="378" type="line" smooth="yes"/>
			<point x="366" y="431"/>
			<point x="385" y="464"/>
			<point x="385" y="500" type="curve" smooth="yes"/>
			<point x="385" y="541"/>
			<point x="352" y="568"/>
			<point x="301" y="568" type="curve" smooth="yes"/>
			<point x="267" y="568"/>
			<point x="225" y="553"/>
			<point x="203" y="533" type="curve"/>
			<point x="213" y="496" type="line"/>
			<point x="230" y="503"/>
			<point x="239" y="505"/>
			<point x="255" y="505" type="curve" smooth="yes"/>
			<point x="277" y="505"/>
			<point x="291" y="493"/>
			<point x="291" y="474" type="curve" smooth="yes"/>
			<point x="291" y="450"/>
			<point x="279" y="431"/>
			<point x="230" y="377" type="curve" smooth="yes"/>
			<point x="111" y="246" type="line"/>
			<point x="109" y="215" type="line"/>
			<point x="376" y="215" type="line"/>
			<point x="307" y="140" type="line" smooth="yes"/>
			<point x="245" y="73"/>
			<point x="228" y="44"/>
			<point x="228" y="7" type="curve" smooth="yes"/>
			<point x="228" y="-33"/>
			<point x="261" y="-59"/>
		</contour>
	</outline>
</glyph>
<glyph name="Dje-cy" format="2">
	<unicode hex="0402"/>
	<advance width="935"/>
	<outline>
		<contour>
			<point x="666" y="-109" type="line"/>
			<point x="815" y="-34"/>
			<point x="885" y="68"/>
			<point x="885" y="200" type="curve" smooth="yes"/>
			<point x="885" y="335"/>
			<point x="795" y="417"/>
			<point x="646" y="417" type="curve" smooth="yes"/>
			<point x="565" y="417"/>
			<point x="491" y="395"/>
			<point x="419" y="351" type="curve"/>
			<point x="419" y="640" type="line"/>
			<point x="558" y="640" type="line" smooth="yes"/>
			<point x="648" y="640"/>
			<point x="672" y="633"/>
			<point x="724" y="487" type="curve"/>
			<point x="778" y="499" type="line"/>
			<point x="741" y="700" type="line"/>
			<point x="89" y="700" type="line"/>
			<point x="50" y="499" type="line"/>
			<point x="103" y="487" type="line"/>
			<point x="155" y="633"/>
			<point x="178" y="640"/>
			<point x="271" y="640" type="curve" smooth="yes"/>
			<point x="321" y="640" type="line"/>
			<point x="321" y="110" type="line" smooth="yes"/>
			<point x="321" y="76"/>
			<point x="312" y="62"/>
			<point x="285" y="60" type="curve" smooth="yes"/>
			<point x="197" y="53" type="line"/>
			<point x="197" y="0" type="line"/>
			<point x="543" y="0" type="line"/>
			<point x="543" y="53" type="line"/>
			<point x="455" y="60" type="line" smooth="yes"/>
			<point x="425" y="62"/>
			<point x="419" y="74"/>
			<point x="419" y="106" type="curve" smooth="yes"/>
			<point x="419" y="279" type="line"/>
			<point x="468" y="318"/>
			<point x="543" y="346"/>
			<point x="618" y="346" type="curve" smooth="yes"/>
			<point x="720" y="346"/>
			<point x="779" y="294"/>
			<point x="779" y="194" type="curve" smooth="yes"/>
			<point x="779" y="83"/>
			<point x="733" y="8"/>
			<point x="634" y="-63" type="curve"/>
		</contour>
	</outline>
</glyph>
<glyph name="Be-cy" format="2">
	<unicode hex="0411"/>
	<advance width="720"/>
	<outline>
		<contour>
			<point x="69" y="0" type="line"/>
			<point x="365" y="0" type="line" smooth="yes"/>
			<point x="527" y="0"/>
			<point x="662" y="53"/>
			<point x="662" y="214" type="curve" smooth="yes"/>
			<point x="662" y="366"/>
			<point x="516" y="406"/>
			<point x="375" y="406" type="curve" smooth="yes"/>
			<point x="341" y="406"/>
			<point x="297" y="403"/>
			<point x="269" y="401" type="curve"/>
			<point x="269" y="640" type="line"/>
			<point x="412" y="640" type="line" smooth="yes"/>
			<point x="502" y="640"/>
			<point x="535" y="625"/>
			<point x="576" y="499" type="curve"/>
			<point x="630" y="511" type="line"/>
			<point x="595" y="700" type="line"/>
			<point x="69" y="700" type="line"/>
			<point x="69" y="647" type="line"/>
			<point x="135" y="643" type="line" smooth="yes"/>
			<point x="168" y="641"/>
			<point x="171" y="624"/>
			<point x="171" y="596" type="curve" smooth="yes"/>
			<point x="171" y="108" type="line" smooth="yes"/>
			<point x="171" y="67"/>
			<point x="161" y="58"/>
			<point x="138" y="57" type="curve" smooth="yes"/>
			<point x="69" y="53" type="line"/>
		</contour>
		<contour>
			<point x="347" y="58" type="curve" smooth="yes"/>
			<point x="321" y="58"/>
			<point x="295" y="60"/>
			<point x="269" y="62" type="curve"/>
			<point x="269" y="341" type="line"/>
			<point x="299" y="344"/>
			<point x="334" y="346"/>
			<point x="368" y="346" type="curve" smooth="yes"/>
			<point x="477" y="346"/>
			<point x="554" y="307"/>
			<point x="554" y="211" type="curve" smooth="yes"/>
			<point x="554" y="88"/>
			<point x="459" y="58"/>
		</contour>
	</outline>
</glyph>
<glyph name="Ge-cy" format="2">
	<unicode hex="0413"/>
	<advance width="658"/>
	<outline>
		<contour>
			<point x="69" y="0" type="line"/>
			<point x="388" y="0" type="line"/>
			<point x="388" y="53" type="line"/>
			<point x="303" y="57" type="line" smooth="yes"/>
			<point x="273" y="58"/>
			<point x="269" y="74"/>
			<point x="269" y="104" type="curve" smooth="yes"/>
			<point x="269" y="640" type="line"/>
			<point x="408" y="640" type="line" smooth="yes"/>
			<point x="498" y="640"/>
			<point x="522" y="633"/>
			<point x="574" y="487" type="curve"/>
			<point x="628" y="499" type="line"/>
			<point x="591" y="700" type="line"/>
			<point x="69" y="700" type="line"/>
			<point x="69" y="647" type="line"/>
			<point x="135" y="643" type="line" smooth="yes"/>
			<point x="168" y="641"/>
			<point x="171" y="624"/>
			<point x="171" y="596" type="curve" smooth="yes"/>
			<point x="171" y="108" type="line" smooth="yes"/>
			<point x="171" y="67"/>
			<point x="161" y="58"/>
			<point x="138" y="57" type="curve" smooth="yes"/>
			<point x="69" y="53" type="line"/>
		</contour>
	</outline>
	<anchor name="top" x="353" y="730"/>
</glyph>
<glyph name="Zhe-cy" format="2">
	<unicode hex="0416"/>
	<advance width="1086"/>
	<outline>
		<contour>
			<point x="112" y="-14" type="curve" smooth="yes"/>
			<point x="186" y="-14"/>
			<point x="222" y="26"/>
			<point x="269" y="142" type="curve" smooth="yes"/>
			<point x="315" y="255"/>
			<point x="348" y="321"/>
			<point x="444" y="321" type="curve" smooth="yes"/>
			<point x="494" y="321" type="line"/>
			<point x="494" y="108" type="line" smooth="yes"/>
			<point x="494" y="67"/>
			<point x="484" y="58"/>
			<point x="461" y="57" type="curve" smooth="yes"/>
			<point x="392" y="53" type="line"/>
			<point x="392" y="0" type="line"/>
			<point x="694" y="0" type="line"/>
			<point x="694" y="53" type="line"/>
			<point x="626" y="57" type="line" smooth="yes"/>
			<point x="596" y="59"/>
			<point x="592" y="74"/>
			<point x="592" y="104" type="curve" smooth="yes"/>
			<point x="592" y="321" type="line"/>
			<point x="642" y="321" type="line" smooth="yes"/>
			<point x="734" y="321"/>
			<point x="770" y="258"/>
			<point x="817" y="142" type="curve" smooth="yes"/>
			<point x="864" y="26"/>
			<point x="900" y="-14"/>
			<point x="974" y="-14" type="curve" smooth="yes"/>
			<point x="1009" y="-14"/>
			<point x="1045" y="-5"/>
			<point x="1076" y="24" type="curve"/>
			<point x="1064" y="64" type="line"/>
			<point x="1050" y="57"/>
			<point x="1030" y="53"/>
			<point x="1017" y="53" type="curve" smooth="yes"/>
			<point x="970" y="53"/>
			<point x="942" y="108"/>
			<point x="900" y="211" type="curve" smooth="yes"/>
			<point x="868" y="290"/>
			<point x="808" y="353"/>
			<point x="718" y="356" type="curve"/>
			<point x="718" y="359" type="line"/>
			<point x="792" y="385"/>
			<point x="826" y="438"/>
			<point x="850" y="502" type="curve" smooth="yes"/>
			<point x="884" y="591"/>
			<point x="889" y="603"/>
			<point x="909" y="624" type="curve"/>
			<point x="926" y="592"/>
			<point x="943" y="567"/>
			<point x="977" y="567" type="curve" smooth="yes"/>
			<point x="1012" y="567"/>
			<point x="1044" y="602"/>
			<point x="1044" y="639" type="curve" smooth="yes"/>
			<point x="1044" y="678"/>
			<point x="1007" y="709"/>
			<point x="955" y="709" type="curve" smooth="yes"/>
			<point x="882" y="709"/>
			<point x="841" y="666"/>
			<point x="801" y="549" type="curve" smooth="yes"/>
			<point x="767" y="450"/>
			<point x="732" y="414"/>
			<point x="682" y="395" type="curve" smooth="yes"/>
			<point x="661" y="387"/>
			<point x="641" y="383"/>
			<point x="592" y="382" type="curve"/>
			<point x="592" y="592" type="line" smooth="yes"/>
			<point x="592" y="630"/>
			<point x="600" y="642"/>
			<point x="624" y="643" type="curve" smooth="yes"/>
			<point x="694" y="647" type="line"/>
			<point x="694" y="700" type="line"/>
			<point x="392" y="700" type="line"/>
			<point x="392" y="647" type="line"/>
			<point x="458" y="643" type="line" smooth="yes"/>
			<point x="491" y="641"/>
			<point x="494" y="624"/>
			<point x="494" y="596" type="curve" smooth="yes"/>
			<point x="494" y="382" type="line"/>
			<point x="450" y="383"/>
			<point x="425" y="387"/>
			<point x="404" y="395" type="curve" smooth="yes"/>
			<point x="354" y="414"/>
			<point x="319" y="450"/>
			<point x="285" y="549" type="curve" smooth="yes"/>
			<point x="245" y="666"/>
			<point x="204" y="709"/>
			<point x="131" y="709" type="curve" smooth="yes"/>
			<point x="79" y="709"/>
			<point x="42" y="678"/>
			<point x="42" y="639" type="curve" smooth="yes"/>
			<point x="42" y="602"/>
			<point x="74" y="567"/>
			<point x="109" y="567" type="curve" smooth="yes"/>
			<point x="143" y="567"/>
			<point x="160" y="592"/>
			<point x="177" y="624" type="curve"/>
			<point x="197" y="603"/>
			<point x="204" y="592"/>
			<point x="236" y="502" type="curve" smooth="yes"/>
			<point x="259" y="438"/>
			<point x="294" y="385"/>
			<point x="368" y="359" type="curve"/>
			<point x="368" y="356" type="line"/>
			<point x="278" y="353"/>
			<point x="218" y="290"/>
			<point x="186" y="211" type="curve" smooth="yes"/>
			<point x="144" y="108"/>
			<point x="116" y="53"/>
			<point x="69" y="53" type="curve" smooth="yes"/>
			<point x="56" y="53"/>
			<point x="36" y="57"/>
			<point x="22" y="64" type="curve"/>
			<point x="10" y="25" type="line"/>
			<point x="43" y="-3"/>
			<point x="77" y="-14"/>
		</contour>
	</outline>
</glyph>
<glyph name="Pe-cy" format="2">
	<unicode hex="041F"/>
	<advance width="917"/>
	<outline>
		<contour>
			<point x="69" y="0" type="line"/>
			<point x="370" y="0" type="line"/>
			<point x="370" y="53" type="line"/>
			<point x="304" y="57" type="line" smooth="yes"/>
			<point x="276" y="59"/>
			<point x="269" y="71"/>
			<point x="269" y="104" type="curve" smooth="yes"/>
			<point x="269" y="636" type="line"/>
			<point x="650" y="636" type="line"/>
			<point x="650" y="108" type="line" smooth="yes"/>
			<point x="650" y="71"/>
			<point x="643" y="59"/>
			<point x="617" y="57" type="curve" smooth="yes"/>
			<point x="550" y="53" type="line"/>
			<point x="550" y="0" type="line"/>
			<point x="848" y="0" type="line"/>
			<point x="848" y="53" type="line"/>
			<point x="783" y="57" type="line" smooth="yes"/>
			<point x="749" y="59"/>
			<point x="748" y="77"/>
			<point x="748" y="104" type="curve" smooth="yes"/>
			<point x="748" y="592" type="line" smooth="yes"/>
			<point x="748" y="631"/>
			<point x="756" y="642"/>
			<point x="780" y="643" type="curve" smooth="yes"/>
			<point x="848" y="647" type="line"/>
			<point x="848" y="700" type="line"/>
			<point x="69" y="700" type="line"/>
			<point x="69" y="647" type="line"/>
			<point x="135" y="643" type="line" smooth="yes"/>
			<point x="164" y="641"/>
			<point x="171" y="629"/>
			<point x="171" y="596" type="curve" smooth="yes"/>
			<point x="171" y="108" type="line" smooth="yes"/>
			<point x="171" y="71"/>
			<point x="164" y="59"/>
			<point x="138" y="57" type="curve" smooth="yes"/>
			<point x="69" y="53" type="line"/>
		</contour>
	</outline>
</glyph>
<glyph name="U-cy" format="2">
	<unicode hex="0423"/>
	<advance width="734"/>
	<outline>
		<contour>
			<point x="240" y="-14" type="curve" smooth="yes"/>
			<point x="352" y="-14"/>
			<point x="404" y="92"/>
			<point x="441" y="173" type="curve" smooth="yes"/>
			<point x="507" y="317"/>
			<point x="561" y="451"/>
			<point x="613" y="588" type="curve" smooth="yes"/>
			<point x="628" y="628"/>
			<point x="647" y="641"/>
			<point x="671" y="643" type="curve" smooth="yes"/>
			<point x="729" y="647" type="line"/>
			<point x="729" y="700" type="line"/>
			<point x="451" y="700" type="line"/>
			<point x="451" y="647" type="line"/>
			<point x="505" y="643" type="line" smooth="yes"/>
			<point x="540" y="640"/>
			<point x="553" y="625"/>
			<point x="540" y="590" type="curve" smooth="yes"/>
			<point x="487" y="444"/>
			<point x="453" y="358"/>
			<point x="412" y="263" type="curve"/>
			<point x="407" y="263" type="line"/>
			<point x="228" y="593" type="line" smooth="yes"/>
			<point x="210" y="626"/>
			<point x="219" y="637"/>
			<point x="242" y="640" type="curve" smooth="yes"/>
			<point x="306" y="647" type="line"/>
			<point x="306" y="700" type="line"/>
			<point x="10" y="700" type="line"/>
			<point x="10" y="647" type="line"/>
			<point x="56" y="642" type="line" smooth="yes"/>
			<point x="90" y="638"/>
			<point x="102" y="624"/>
			<point x="120" y="591" type="curve" smooth="yes"/>
			<point x="358" y="157" type="line"/>
			<point x="339" y="105"/>
			<point x="306" y="73"/>
			<point x="294" y="65" type="curve"/>
			<point x="270" y="108"/>
			<point x="242" y="130"/>
			<point x="219" y="130" type="curve" smooth="yes"/>
			<point x="185" y="130"/>
			<point x="152" y="95"/>
			<point x="152" y="48" type="curve" smooth="yes"/>
			<point x="152" y="4"/>
			<point x="203" y="-14"/>
		</contour>
	</outline>
	<anchor name="top" x="377" y="730"/>
</glyph>
<glyph name="Che-cy" format="2">
	<unicode hex="0427"/>
	<advance width="835"/>
	<outline>
		<contour>
			<point x="450" y="0" type="line"/>
			<point x="766" y="0" type="line"/>
			<point x="766" y="53" type="line"/>
			<point x="698" y="57" type="line" smooth="yes"/>
			<point x="668" y="59"/>
			<point x="664" y="74"/>
			<point x="664" y="104" type="curve" smooth="yes"/>
			<point x="664" y="592" type="line" smooth="yes"/>
			<point x="664" y="630"/>
			<point x="672" y="642"/>
			<point x="696" y="643" type="curve" smooth="yes"/>
			<point x="766" y="647" type="line"/>
			<point x="766" y="700" type="line"/>
			<point x="464" y="700" type="line"/>
			<point x="464" y="647" type="line"/>
			<point x="530" y="643" type="line" smooth="yes"/>
			<point x="563" y="641"/>
			<point x="566" y="624"/>
			<point x="566" y="596" type="curve" smooth="yes"/>
			<point x="566" y="385" type="line"/>
			<point x="514" y="347"/>
			<point x="452" y="319"/>
			<point x="385" y="319" type="curve" smooth="yes"/>
			<point x="261" y="319"/>
			<point x="225" y="382"/>
			<point x="225" y="468" type="curve" smooth="yes"/>
			<point x="225" y="592" type="line" smooth="yes"/>
			<point x="225" y="630"/>
			<point x="233" y="642"/>
			<point x="257" y="643" type="curve" smooth="yes"/>
			<point x="327" y="647" type="line"/>
			<point x="327" y="700" type="line"/>
			<point x="25" y="700" type="line"/>
			<point x="25" y="647" type="line"/>
			<point x="91" y="643" type="line" smooth="yes"/>
			<point x="124" y="641"/>
			<point x="127" y="624"/>
			<point x="127" y="596" type="curve" smooth="yes"/>
			<point x="127" y="448" type="line" smooth="yes"/>
			<point x="127" y="307"/>
			<point x="228" y="249"/>
			<point x="349" y="249" type="curve" smooth="yes"/>
			<point x="440" y="249"/>
			<point x="505" y="272"/>
			<point x="566" y="314" type="curve"/>
			<point x="566" y="108" type="line" smooth="yes"/>
			<point x="566" y="67"/>
			<point x="556" y="58"/>
			<point x="533" y="57" type="curve" smooth="yes"/>
			<point x="450" y="53" type="line"/>
		</contour>
	</outline>
</glyph>
<glyph name="Sha-cy" format="2">
	<unicode hex="0428"/>
	<advance width="1256"/>
	<outline>
		<contour>
			<point x="69" y="0" type="line"/>
			<point x="1187" y="0" type="line"/>
			<point x="1187" y="53" type="line"/>
			<point x="1122" y="57" type="line" smooth="yes"/>
			<point x="1088" y="59"/>
			<point x="1087" y="77"/>
			<point x="1087" y="104" type="curve" smooth="yes"/>
			<point x="1087" y="592" type="line" smooth="yes"/>
			<point x="1087" y="631"/>
			<point x="1095" y="642"/>
			<point x="1119" y="643" type="curve" smooth="yes"/>
			<point x="1187" y="647" type="line"/>
			<point x="1187" y="700" type="line"/>
			<point x="889" y="700" type="line"/>
			<point x="889" y="647" type="line"/>
			<point x="953" y="643" type="line" smooth="yes"/>
			<point x="988" y="641"/>
			<point x="989" y="623"/>
			<point x="989" y="596" type="curve" smooth="yes"/>
			<point x="989" y="64" type="line"/>
			<point x="678" y="64" type="line"/>
			<point x="678" y="592" type="line" smooth="yes"/>
			<point x="678" y="631"/>
			<point x="686" y="642"/>
			<point x="710" y="643" type="curve" smooth="yes"/>
			<point x="778" y="647" type="line"/>
			<point x="778" y="700" type="line"/>
			<point x="480" y="700" type="line"/>
			<point x="480" y="647" type="line"/>
			<point x="544" y="643" type="line" smooth="yes"/>
			<point x="579" y="641"/>
			<point x="580" y="623"/>
			<point x="580" y="596" type="curve" smooth="yes"/>
			<point x="580" y="64" type="line"/>
			<point x="269" y="64" type="line"/>
			<point x="269" y="592" type="line" smooth="yes"/>
			<point x="269" y="630"/>
			<point x="278" y="642"/>
			<point x="301" y="643" type="curve" smooth="yes"/>
			<point x="370" y="647" type="line"/>
			<point x="370" y="700" type="line"/>
			<point x="69" y="700" type="line"/>
			<point x="69" y="647" type="line"/>
			<point x="135" y="643" type="line" smooth="yes"/>
			<point x="164" y="641"/>
			<point x="171" y="629"/>
			<point x="171" y="596" type="curve" smooth="yes"/>
			<point x="171" y="108" type="line" smooth="yes"/>
			<point x="171" y="71"/>
			<point x="164" y="59"/>
			<point x="138" y="57" type="curve" smooth="yes"/>
			<point x="69" y="53" type="line"/>
		</contour>
	</outline>
</glyph>
<glyph name="Yeru-cy" format="2">
	<unicode hex="042B"/>
	<advance width="1057"/>
	<outline>
		<contour>
			<point x="69" y="0" type="line"/>
			<point x="365" y="0" type="line" smooth="yes"/>
			<point x="524" y="0"/>
			<point x="648" y="62"/>
			<point x="648" y="220" type="curve" smooth="yes"/>
			<point x="648" y="363"/>
			<point x="512" y="410"/>
			<point x="375" y="410" type="curve" smooth="yes"/>
			<point x="341" y="410"/>
			<point x="297" y="407"/>
			<point x="269" y="405" type="curve"/>
			<point x="269" y="592" type="line" smooth="yes"/>
			<point x="269" y="630"/>
			<point x="277" y="642"/>
			<point x="301" y="643" type="curve" smooth="yes"/>
			<point x="371" y="647" type="line"/>
			<point x="371" y="700" type="line"/>
			<point x="69" y="700" type="line"/>
			<point x="69" y="647" type="line"/>
			<point x="135" y="643" type="line" smooth="yes"/>
			<point x="168" y="641"/>
			<point x="171" y="624"/>
			<point x="171" y="596" type="curve" smooth="yes"/>
			<point x="171" y="108" type="line" smooth="yes"/>
			<point x="171" y="67"/>
			<point x="161" y="58"/>
			<point x="138" y="57" type="curve" smooth="yes"/>
			<point x="69" y="53" type="line"/>
		</contour>
		<contour>
			<point x="269" y="62" type="curve"/>
			<point x="269" y="345" type="line"/>
			<point x="299" y="348"/>
			<point x="334" y="350"/>
			<point x="367" y="350" type="curve" smooth="yes"/>
			<point x="467" y="350"/>
			<point x="540" y="307"/>
			<point x="540" y="213" type="curve" smooth="yes"/>
			<point x="540" y="88"/>
			<point x="459" y="58"/>
			<point x="347" y="58" type="curve" smooth="yes"/>
			<point x="321" y="58"/>
			<point x="295" y="60"/>
		</contour>
		<contour>
			<point x="686" y="0" type="line"/>
			<point x="988" y="0" type="line"/>
			<point x="988" y="53" type="line"/>
			<point x="920" y="57" type="line" smooth="yes"/>
			<point x="890" y="59"/>
			<point x="886" y="74"/>
			<point x="886" y="104" type="curve" smooth="yes"/>
			<point x="886" y="592" type="line" smooth="yes"/>
			<point x="886" y="630"/>
			<point x="894" y="642"/>
			<point x="918" y="643" type="curve" smooth="yes"/>
			<point x="988" y="647" type="line"/>
			<point x="988" y="700" type="line"/>
			<point x="686" y="700" type="line"/>
			<point x="686" y="647" type="line"/>
			<point x="752" y="643" type="line" smooth="yes"/>
			<point x="785" y="641"/>
			<point x="788" y="624"/>
			<point x="788" y="596" type="curve" smooth="yes"/>
			<point x="788" y="108" type="line" smooth="yes"/>
			<point x="788" y="67"/>
			<point x="778" y="58"/>
			<point x="755" y="57" type="curve" smooth="yes"/>
			<point x="686" y="53" type="line"/>
		</contour>
	</outline>
	<anchor name="top" x="504" y="730"/>
</glyph>
<glyph name="Ereversed-cy" format="2">
	<unicode hex="042D"/>
	<advance width="729"/>
	<outline>
		<contour>
			<point x="320" y="-14" type="curve" smooth="yes"/>
			<point x="584" y="-14"/>
			<point x="665" y="192"/>
			<point x="665" y="373" type="curve" smooth="yes"/>
			<point x="665" y="549"/>
			<point x="583" y="714"/>
			<point x="361" y="714" type="curve" smooth="yes"/>
			<point x="274" y="714"/>
			<point x="206" y="687"/>
			<point x="160" y="644" type="curve"/>
			<point x="143" y="709" type="line"/>
			<point x="89" y="709" type="line"/>
			<point x="110" y="492" type="line"/>
			<point x="159" y="492" type="line"/>
			<point x="159" y="583"/>
			<point x="239" y="646"/>
			<point x="345" y="646" type="curve" smooth="yes"/>
			<point x="503" y="646"/>
			<point x="556" y="531"/>
			<point x="556" y="391" type="curve"/>
			<point x="177" y="391" type="line"/>
			<point x="177" y="327" type="line"/>
			<point x="556" y="327" type="line"/>
			<point x="556" y="211"/>
			<point x="504" y="56"/>
			<point x="324" y="56" type="curve" smooth="yes"/>
			<point x="242" y="56"/>
			<point x="158" y="84"/>
			<point x="113" y="196" type="curve"/>
			<point x="50" y="180" type="line"/>
			<point x="88" y="35"/>
			<point x="220" y="-14"/>
		</contour>
	</outline>
	<anchor name="top" x="360" y="730"/>
</glyph>
<glyph name="Ia-cy" format="2">
	<unicode hex="042F"/>
	<advance width="765"/>
	<outline>
		<contour>
			<point x="109" y="-10" type="curve" smooth="yes"/>
			<point x="193" y="-10"/>
			<point x="229" y="54"/>
			<point x="255" y="144" type="curve" smooth="yes"/>
			<point x="280" y="231"/>
			<point x="302" y="286"/>
			<point x="386" y="297" type="curve" smooth="yes"/>
			<point x="395" y="298"/>
			<point x="451" y="299"/>
			<point x="496" y="299" type="curve"/>
			<point x="496" y="108" type="line" smooth="yes"/>
			<point x="496" y="67"/>
			<point x="486" y="58"/>
			<point x="463" y="57" type="curve" smooth="yes"/>
			<point x="380" y="53" type="line"/>
			<point x="380" y="0" type="line"/>
			<point x="696" y="0" type="line"/>
			<point x="696" y="53" type="line"/>
			<point x="628" y="57" type="line" smooth="yes"/>
			<point x="598" y="59"/>
			<point x="594" y="74"/>
			<point x="594" y="104" type="curve" smooth="yes"/>
			<point x="594" y="592" type="line" smooth="yes"/>
			<point x="594" y="630"/>
			<point x="602" y="642"/>
			<point x="626" y="643" type="curve" smooth="yes"/>
			<point x="696" y="647" type="line"/>
			<point x="696" y="700" type="line"/>
			<point x="431" y="700" type="line" smooth="yes"/>
			<point x="254" y="700"/>
			<point x="131" y="650"/>
			<point x="131" y="498" type="curve" smooth="yes"/>
			<point x="131" y="390"/>
			<point x="227" y="328"/>
			<point x="335" y="322" type="curve"/>
			<point x="335" y="319" type="line"/>
			<point x="257" y="301"/>
			<point x="198" y="265"/>
			<point x="167" y="186" type="curve" smooth="yes"/>
			<point x="132" y="96"/>
			<point x="117" y="60"/>
			<point x="69" y="60" type="curve" smooth="yes"/>
			<point x="58" y="60"/>
			<point x="41" y="62"/>
			<point x="28" y="70" type="curve"/>
			<point x="10" y="33" type="line"/>
			<point x="45" y="-1"/>
			<point x="79" y="-10"/>
		</contour>
		<contour>
			<point x="417" y="358" type="curve" smooth="yes"/>
			<point x="303" y="358"/>
			<point x="234" y="404"/>
			<point x="234" y="499" type="curve" smooth="yes"/>
			<point x="234" y="617"/>
			<point x="326" y="642"/>
			<point x="423" y="642" type="curve" smooth="yes"/>
			<point x="496" y="642" type="line"/>
			<point x="496" y="362" type="line"/>
			<point x="471" y="359"/>
			<point x="431" y="358"/>
		</contour>
	</outline>
	<anchor name="top" x="424" y="730"/>
</glyph>
<glyph name="ze-cy" format="2">
	<unicode hex="0437"/>
	<advance width="546"/>
	<outline>
		<contour>
			<point x="266" y="-14" type="curve" smooth="yes"/>
			<point x="381" y="-14"/>
			<point x="491" y="39"/>
			<point x="491" y="141" type="curve" smooth="yes"/>
			<point x="491" y="230"/>
			<point x="398" y="261"/>
			<point x="317" y="268" type="curve"/>
			<point x="317" y="270" type="line"/>
			<point x="419" y="281"/>
			<point x="472" y="332"/>
			<point x="472" y="406" type="curve" smooth="yes"/>
			<point x="472" y="479"/>
			<point x="399" y="533"/>
			<point x="297" y="533" type="curve" smooth="yes"/>
			<point x="229" y="533"/>
			<point x="180" y="511"/>
			<point x="146" y="470" type="curve"/>
			<point x="139" y="521" type="line"/>
			<point x="79" y="521" type="line"/>
			<point x="91" y="337" type="line"/>
			<point x="142" y="337" type="line"/>
			<point x="152" y="431"/>
			<point x="209" y="470"/>
			<point x="273" y="470" type="curve" smooth="yes"/>
			<point x="338" y="470"/>
			<point x="370" y="441"/>
			<point x="370" y="389" type="curve" smooth="yes"/>
			<point x="370" y="336"/>
			<point x="331" y="294"/>
			<point x="255" y="294" type="curve" smooth="yes"/>
			<point x="180" y="294" type="line"/>
			<point x="180" y="233" type="line"/>
			<point x="266" y="233" type="line" smooth="yes"/>
			<point x="348" y="233"/>
			<point x="390" y="202"/>
			<point x="390" y="144" type="curve" smooth="yes"/>
			<point x="390" y="71"/>
			<point x="329" y="45"/>
			<point x="260" y="45" type="curve" smooth="yes"/>
			<point x="218" y="45"/>
			<point x="183" y="53"/>
			<point x="158" y="70" type="curve"/>
			<point x="176" y="89"/>
			<point x="190" y="114"/>
			<point x="190" y="137" type="curve" smooth="yes"/>
			<point x="190" y="167"/>
			<point x="168" y="189"/>
			<point x="133" y="189" type="curve" smooth="yes"/>
			<point x="86" y="189"/>
			<point x="60" y="155"/>
			<point x="60" y="115" type="curve" smooth="yes"/>
			<point x="60" y="38"/>
			<point x="144" y="-14"/>
		</contour>
	</outline>
</glyph>
<glyph name="el-cy" format="2">
	<unicode hex="043B"/>
	<advance width="676"/>
	<outline>
		<contour>
			<point x="98" y="-13" type="curve" smooth="yes"/>
			<point x="170" y="-13"/>
			<point x="219" y="48"/>
			<point x="246" y="181" type="curve" smooth="yes"/>
			<point x="259" y="244"/>
			<point x="267" y="351"/>
			<point x="267" y="458" type="curve"/>
			<point x="436" y="458" type="line"/>
			<point x="436" y="98" type="line" smooth="yes"/>
			<point x="436" y="65"/>
			<point x="428" y="58"/>
			<point x="404" y="56" type="curve" smooth="yes"/>
			<point x="360" y="53" type="line"/>
			<point x="360" y="0" type="line"/>
			<point x="619" y="0" type="line"/>
			<point x="619" y="53" type="line"/>
			<point x="563" y="56" type="line" smooth="yes"/>
			<point x="535" y="58"/>
			<point x="529" y="68"/>
			<point x="529" y="97" type="curve" smooth="yes"/>
			<point x="529" y="422" type="line" smooth="yes"/>
			<point x="529" y="451"/>
			<point x="535" y="461"/>
			<point x="563" y="463" type="curve" smooth="yes"/>
			<point x="619" y="466" type="line"/>
			<point x="619" y="519" type="line"/>
			<point x="117" y="519" type="line"/>
			<point x="104" y="466" type="line"/>
			<point x="166" y="462" type="line" smooth="yes"/>
			<point x="188" y="461"/>
			<point x="194" y="449"/>
			<point x="194" y="414" type="curve" smooth="yes"/>
			<point x="194" y="295"/>
			<point x="184" y="194"/>
			<point x="167" y="140" type="curve" smooth="yes"/>
			<point x="154" y="100"/>
			<point x="144" y="82"/>
			<point x="133" y="73" type="curve"/>
			<point x="115" y="100"/>
			<point x="101" y="117"/>
			<point x="79" y="117" type="curve" smooth="yes"/>
			<point x="42" y="117"/>
			<point x="15" y="84"/>
			<point x="15" y="48" type="curve" smooth="yes"/>
			<point x="15" y="13"/>
			<point x="53" y="-13"/>
		</contour>
	</outline>
</glyph>
<glyph name="te-cy" format="2">
	<unicode hex="0442"/>
	<advance width="631"/>
	<outline>
		<contour>
			<point x="184" y="0" type="line"/>
			<point x="449" y="0" type="line"/>
			<point x="449" y="53" type="line"/>
			<point x="389" y="57" type="line" smooth="yes"/>
			<point x="367" y="58"/>
			<point x="362" y="70"/>
			<point x="362" y="102" type="curve" smooth="yes"/>
			<point x="362" y="458" type="line"/>
			<point x="417" y="458" type="line" smooth="yes"/>
			<point x="474" y="458"/>
			<point x="501" y="441"/>
			<point x="521" y="385" type="curve" smooth="yes"/>
			<point x="545" y="316" type="line"/>
			<point x="596" y="328" type="line"/>
			<point x="566" y="519" type="line"/>
			<point x="65" y="519" type="line"/>
			<point x="35" y="328" type="line"/>
			<point x="86" y="316" type="line"/>
			<point x="110" y="385" type="line" smooth="yes"/>
			<point x="130" y="441"/>
			<point x="157" y="458"/>
			<point x="214" y="458" type="curve" smooth="yes"/>
			<point x="269" y="458" type="line"/>
			<point x="269" y="105" type="line" smooth="yes"/>
			<point x="269" y="70"/>
			<point x="263" y="59"/>
			<point x="241" y="57" type="curve" smooth="yes"/>
			<point x="184" y="53" type="line"/>
		</contour>
	</outline>
</glyph>
<glyph name="ef-cy" format="2">
	<unicode hex="0444"/>
	<advance width="899"/>
	<outline>
		<contour>
			<point x="308" y="-219" type="line"/>
			<point x="596" y="-219" type="line"/>
			<point x="596" y="-166" type="line"/>
			<point x="529" y="-163" type="line" smooth="yes"/>
			<point x="501" y="-162"/>
			<point x="496" y="-150"/>
			<point x="496" y="-118" type="curve" smooth="yes"/>
			<point x="496" y="32" type="line"/>
			<point x="536" y="2"/>
			<point x="577" y="-14"/>
			<point x="625" y="-14" type="curve" smooth="yes"/>
			<point x="742" y="-14"/>
			<point x="839" y="75"/>
			<point x="839" y="268" type="curve" smooth="yes"/>
			<point x="839" y="422"/>
			<point x="755" y="521"/>
			<point x="631" y="521" type="curve" smooth="yes"/>
			<point x="568" y="521"/>
			<point x="526" y="498"/>
			<point x="496" y="469" type="curve"/>
			<point x="496" y="755" type="line"/>
			<point x="484" y="766" type="line"/>
			<point x="308" y="761" type="line"/>
			<point x="302" y="708" type="line"/>
			<point x="356" y="704" type="line" smooth="yes"/>
			<point x="396" y="701"/>
			<point x="403" y="689"/>
			<point x="403" y="643" type="curve" smooth="yes"/>
			<point x="403" y="469" type="line"/>
			<point x="374" y="500"/>
			<point x="331" y="521"/>
			<point x="280" y="521" type="curve" smooth="yes"/>
			<point x="143" y="521"/>
			<point x="60" y="421"/>
			<point x="60" y="250" type="curve" smooth="yes"/>
			<point x="60" y="74"/>
			<point x="147" y="-14"/>
			<point x="268" y="-14" type="curve" smooth="yes"/>
			<point x="322" y="-14"/>
			<point x="363" y="2"/>
			<point x="403" y="32" type="curve"/>
			<point x="403" y="-115" type="line" smooth="yes"/>
			<point x="403" y="-153"/>
			<point x="396" y="-160"/>
			<point x="371" y="-162" type="curve" smooth="yes"/>
			<point x="308" y="-166" type="line"/>
		</contour>
		<contour>
			<point x="295" y="55" type="curve" smooth="yes"/>
			<point x="221" y="55"/>
			<point x="160" y="105"/>
			<point x="160" y="254" type="curve" smooth="yes"/>
			<point x="160" y="350"/>
			<point x="193" y="448"/>
			<point x="300" y="448" type="curve" smooth="yes"/>
			<point x="344" y="448"/>
			<point x="385" y="423"/>
			<point x="403" y="391" type="curve"/>
			<point x="403" y="99" type="line"/>
			<point x="368" y="69"/>
			<point x="334" y="55"/>
		</contour>
		<contour>
			<point x="604" y="55" type="curve" smooth="yes"/>
			<point x="565" y="55"/>
			<point x="531" y="69"/>
			<point x="496" y="99" type="curve"/>
			<point x="496" y="391" type="line"/>
			<point x="514" y="423"/>
			<point x="555" y="448"/>
			<point x="599" y="448" type="curve" smooth="yes"/>
			<point x="706" y="448"/>
			<point x="739" y="351"/>
			<point x="739" y="255" type="curve" smooth="yes"/>
			<point x="739" y="106"/>
			<point x="678" y="55"/>
		</contour>
	</outline>
</glyph>
